<svg width="184" height="54" viewBox="0 0 184 54" fill="none" xmlns="http://www.w3.org/2000/svg">
<g clip-path="url(#clip0_1615_137931)">
<path d="M184 19.4677C184 19.5021 184 19.5021 184 19.5365C184 19.5709 184 19.5709 184 19.6053C184 19.6741 183.931 19.7429 183.896 19.7773C183.828 19.8117 183.759 19.8461 183.69 19.8461H150.973H118.221C118.153 19.8461 118.084 19.8117 118.015 19.7773C117.946 19.7429 117.912 19.6741 117.912 19.6053C117.912 19.6053 117.912 19.5709 117.912 19.5365C117.912 19.5365 117.912 19.5021 117.912 19.4677C117.912 19.4333 117.946 19.3989 117.946 19.3645C117.981 19.2957 118.05 19.2614 118.118 19.227C129.081 14.8244 140.044 10.4563 150.973 6.05371C161.936 10.4563 172.899 14.8244 183.828 19.227C183.896 19.2614 183.965 19.2957 184 19.3645C184 19.3989 184 19.4333 184 19.4677ZM132.655 17.2321H169.222L150.939 9.90594L132.655 17.2321Z" fill="url(#paint0_linear_1615_137931)"/>
<path d="M184 16.4404C184 16.4404 184 16.4748 184 16.5092C184 16.5092 184 16.5436 184 16.578C184 16.6467 183.931 16.7155 183.896 16.7499C183.828 16.7843 183.759 16.8187 183.69 16.8187H150.973H118.221C118.153 16.8187 118.084 16.7843 118.015 16.7499C117.946 16.7155 117.912 16.6467 117.912 16.578C117.912 16.5436 117.912 16.5436 117.912 16.5092C117.912 16.4748 117.912 16.4748 117.912 16.4404C117.912 16.406 117.946 16.3716 117.946 16.3372C117.981 16.2684 118.05 16.234 118.118 16.1996C129.081 11.7971 140.044 7.42891 150.973 3.02637C161.936 7.42891 172.899 11.7971 183.828 16.1996C183.896 16.234 183.965 16.2684 184 16.3372C184 16.3716 184 16.406 184 16.4404ZM132.655 14.2047H169.222L150.939 6.8786L132.655 14.2047Z" fill="url(#paint1_linear_1615_137931)"/>
<path d="M184 13.414C184 13.4484 184 13.4484 184 13.4828C184 13.5172 184 13.5172 184 13.5516C184 13.6204 183.931 13.6892 183.896 13.7236C183.828 13.758 183.759 13.7924 183.69 13.7924H150.973H118.221C118.153 13.7924 118.084 13.758 118.015 13.7236C117.946 13.6892 117.912 13.6204 117.912 13.5516C117.912 13.5516 117.912 13.5172 117.912 13.4828C117.912 13.4828 117.912 13.4484 117.912 13.414C117.912 13.3796 117.946 13.3452 117.946 13.3108C117.981 13.242 118.05 13.2076 118.118 13.1732C129.081 8.7707 140.044 4.40255 150.973 0C161.936 4.40255 172.899 8.7707 183.828 13.1732C183.896 13.2076 183.965 13.242 184 13.3108C184 13.3452 184 13.3796 184 13.414ZM132.655 11.2127H169.222L150.939 3.88662L132.655 11.2127Z" fill="url(#paint2_linear_1615_137931)"/>
<path d="M184 19.5703V20.0174C184 20.6709 183.725 21.3245 183.278 21.7716C182.797 22.2531 182.178 22.4939 181.525 22.4939H120.387C119.734 22.4939 119.081 22.2187 118.634 21.7716C118.153 21.3245 117.912 20.6709 117.912 20.0174V19.5703C117.912 19.6391 117.981 19.7079 118.015 19.7423C118.084 19.7767 118.153 19.8111 118.221 19.8111H150.939H183.69C183.759 19.8111 183.828 19.7767 183.896 19.7423C183.931 19.7079 184 19.6391 184 19.5703Z" fill="#3D3228"/>
<path d="M183.45 26.7938V31.3339L180.838 32.2282V31.7467C180.838 31.4027 180.7 31.0588 180.46 30.818C180.219 30.5773 179.876 30.4397 179.532 30.4397C179.188 30.4397 178.845 30.5773 178.604 30.818C178.363 31.0588 178.226 31.4027 178.226 31.7467V33.1225L175.614 34.0167V31.7467C175.614 31.4027 175.477 31.0588 175.236 30.818C174.995 30.5773 174.652 30.4397 174.308 30.4397C173.964 30.4397 173.621 30.5773 173.38 30.818C173.14 31.0588 173.002 31.4027 173.002 31.7467V34.9454L170.39 35.8397V33.0537C170.39 32.6409 170.356 32.2282 170.253 31.8155C170.184 31.3683 170.047 30.9556 169.875 30.5429C169.531 29.7518 169.05 29.0295 168.466 28.4448C167.847 27.8257 167.16 27.3785 166.369 27.0346C165.957 26.8626 165.545 26.725 165.098 26.6562C164.685 26.5874 164.273 26.5531 163.861 26.5531C163.448 26.5531 163.036 26.5874 162.623 26.6562C162.211 26.725 161.764 26.8626 161.352 27.0346C160.561 27.3785 159.84 27.8601 159.255 28.4448C158.637 29.0639 158.19 29.7518 157.846 30.5429C157.675 30.9556 157.572 31.3683 157.468 31.8155C157.4 32.2282 157.365 32.6409 157.365 33.0537V40.3798L154.753 41.2741V31.7467C154.753 31.4027 154.616 31.0588 154.375 30.818C154.135 30.5773 153.791 30.4397 153.447 30.4397C153.104 30.4397 152.76 30.5773 152.52 30.818C152.279 31.0588 152.142 31.4027 152.142 31.7467V42.2027L149.53 43.097V31.7467C149.53 31.4027 149.392 31.0588 149.152 30.818C148.911 30.5773 148.567 30.4397 148.224 30.4397C147.88 30.4397 147.536 30.5773 147.296 30.818C147.055 31.0588 146.918 31.4027 146.918 31.7467V44.0257L144.306 44.9199V33.0537C144.306 32.6409 144.272 32.2282 144.203 31.8155C144.134 31.3683 143.997 30.9556 143.825 30.5429C143.481 29.7518 143.034 29.0295 142.416 28.4448C141.797 27.8257 141.11 27.3785 140.319 27.0346C139.907 26.8626 139.495 26.725 139.048 26.6562C138.635 26.5874 138.223 26.5531 137.811 26.5531C137.398 26.5531 136.986 26.5874 136.573 26.6562C136.161 26.725 135.714 26.8626 135.302 27.0346C134.511 27.3785 133.79 27.8601 133.205 28.4448C132.587 29.0639 132.106 29.7518 131.796 30.5429C131.625 30.9556 131.487 31.3683 131.418 31.8155C131.35 32.2282 131.315 32.6409 131.315 33.0537V49.4601L128.703 50.3543V31.7467C128.703 31.4027 128.566 31.0588 128.325 30.818C128.085 30.5773 127.741 30.4397 127.397 30.4397C127.054 30.4397 126.71 30.5773 126.47 30.818C126.229 31.0588 126.091 31.4027 126.091 31.7467V51.2486L123.48 52.1429V31.7467C123.48 31.4027 123.342 31.0588 123.102 30.818C122.861 30.5773 122.517 30.4397 122.174 30.4397C121.83 30.4397 121.486 30.5773 121.246 30.818C121.005 31.0588 120.868 31.4027 120.868 31.7467V53.0715L118.256 53.9658V26.7938C118.256 26.1403 118.531 25.4868 118.978 25.0397C119.459 24.5581 120.077 24.3174 120.73 24.3174H150.733H180.735C181.388 24.3174 182.041 24.5925 182.487 25.0397C183.175 25.4868 183.45 26.1059 183.45 26.7938Z" fill="#3D3228"/>
<path d="M45.7856 49.0796H43.918V48.402H48.4412V49.0796H46.5443V53.9113H45.7856V49.0796Z" fill="#3D3228"/>
<path d="M52.0597 48.402C52.6142 48.402 53.0227 48.5493 53.3145 48.8145C53.6063 49.1091 53.7523 49.4626 53.7523 49.9635C53.7523 50.3465 53.6647 50.6705 53.4896 50.9357C53.3145 51.2008 53.0811 51.4071 52.7601 51.5249L54.0149 53.9113H53.1686L51.9722 51.6428H49.9586V53.9113H49.1999V48.402H52.0597ZM52.0305 50.9652C52.3223 50.9652 52.5558 50.8768 52.7309 50.7C52.906 50.5232 52.9935 50.2875 52.9935 49.9635C52.9935 49.6689 52.906 49.4626 52.7601 49.2859C52.6142 49.1091 52.3515 49.0502 52.0305 49.0502H49.9878V50.9357H52.0305V50.9652Z" fill="#3D3228"/>
<path d="M55.5324 53.4694C55.153 53.1158 54.9487 52.5855 54.9487 51.8785V48.402H55.7074V51.9079C55.7074 52.3793 55.8242 52.7328 56.0868 52.9685C56.3494 53.2042 56.6996 53.3221 57.1665 53.3221C57.6334 53.3221 58.0128 53.2042 58.2754 52.9391C58.5381 52.7034 58.6548 52.3498 58.6548 51.8785V48.402H59.4135V51.8785C59.4135 52.5855 59.2093 53.1453 58.8299 53.4694C58.4505 53.8229 57.8961 53.9997 57.1665 53.9997C56.4662 53.9997 55.9409 53.8229 55.5324 53.4694Z" fill="#3D3228"/>
<path d="M61.0769 53.5872C60.6684 53.3221 60.4641 52.9096 60.4641 52.3498V52.2025H61.2228C61.2228 52.2025 61.2228 52.232 61.2228 52.2615C61.2228 52.2909 61.2228 52.3204 61.2228 52.3793C61.2228 52.7034 61.3687 52.9391 61.6314 53.1158C61.894 53.2926 62.2442 53.381 62.7111 53.381C63.2072 53.381 63.5865 53.2926 63.8492 53.1453C64.1118 52.998 64.2577 52.7623 64.2577 52.4677C64.2577 52.2614 64.1994 52.1141 64.0535 51.9668C63.9075 51.849 63.7325 51.7311 63.5282 51.6722C63.3239 51.5838 63.0321 51.5249 62.6819 51.4365C62.2442 51.3187 61.894 51.2303 61.6314 51.1125C61.3687 50.9946 61.1353 50.8473 60.931 50.6411C60.7267 50.4349 60.6392 50.1697 60.6392 49.8162C60.6392 49.3448 60.8435 48.9618 61.2228 48.7261C61.6314 48.4609 62.1275 48.3431 62.7403 48.3431C63.3531 48.3431 63.8492 48.4609 64.2577 48.7261C64.6371 48.9912 64.8414 49.3742 64.8414 49.9045V49.9929H64.1118V49.8751C64.1118 49.6099 63.9951 49.3742 63.7325 49.2269C63.499 49.0796 63.178 48.9912 62.7695 48.9912C62.3609 48.9912 62.0107 49.0502 61.7773 49.1975C61.5146 49.3153 61.3979 49.5216 61.3979 49.7867C61.3979 49.9635 61.4563 50.1402 61.6022 50.2581C61.7481 50.3759 61.894 50.4643 62.0983 50.5527C62.3025 50.6116 62.5652 50.7 62.9154 50.7884C63.3531 50.9062 63.7033 51.0241 63.9951 51.1125C64.2869 51.2303 64.5204 51.3776 64.6955 51.5838C64.8997 51.7901 64.9873 52.0552 64.9873 52.3793C64.9873 52.9685 64.783 53.381 64.3745 53.6756C63.9659 53.9407 63.4115 54.088 62.7403 54.088C62.0399 53.9997 61.5146 53.8524 61.0769 53.5872Z" fill="#3D3228"/>
<path d="M67.4094 49.0796H65.5417V48.402H70.0357V49.0796H68.1681V53.9113H67.4094V49.0796Z" fill="#3D3228"/>
<path d="M73.3333 53.2926C72.8956 52.8212 72.6621 52.1141 72.6621 51.1419C72.6621 50.1992 72.8956 49.4921 73.3333 48.9913C73.771 48.5199 74.4422 48.2842 75.3177 48.2842C76.018 48.2842 76.6017 48.4609 77.0102 48.8145C77.4479 49.168 77.6522 49.6983 77.6522 50.3759H76.8935C76.8935 49.9045 76.7476 49.551 76.4849 49.3153C76.1931 49.0796 75.8138 48.9618 75.3177 48.9618C74.6757 48.9618 74.2087 49.1386 73.9169 49.4626C73.6251 49.8162 73.45 50.3465 73.45 51.1419V51.1714C73.45 51.9374 73.5959 52.4971 73.9169 52.8507C74.2379 53.2042 74.7048 53.381 75.3468 53.381C75.8429 53.381 76.2515 53.2631 76.5141 53.0274C76.8059 52.7918 76.9518 52.4382 76.9518 51.9668H77.6814C77.6814 52.6444 77.4771 53.1748 77.0394 53.5283C76.6017 53.8818 76.0472 54.0586 75.3177 54.0586C74.413 53.9997 73.771 53.764 73.3333 53.2926Z" fill="#3D3228"/>
<path d="M79.0821 53.2926C78.6152 52.8212 78.3818 52.1141 78.3818 51.1714C78.3818 50.2286 78.6152 49.5216 79.0821 49.0502C79.549 48.5788 80.2202 48.3431 81.0957 48.3431C81.9711 48.3431 82.6423 48.5788 83.1092 49.0502C83.5761 49.5216 83.8096 50.2286 83.8096 51.1714C83.8096 52.1141 83.5761 52.8212 83.1092 53.2926C82.6423 53.764 81.9711 53.9997 81.0957 53.9997C80.2494 53.9997 79.5782 53.764 79.0821 53.2926ZM82.5548 52.8212C82.8758 52.4677 83.0508 51.9374 83.0508 51.1714V51.1419C83.0508 50.3759 82.8758 49.8162 82.5548 49.4626C82.2338 49.1091 81.7377 48.9323 81.1248 48.9323C80.512 48.9323 80.0159 49.1091 79.6949 49.4626C79.3739 49.8162 79.1988 50.3759 79.1988 51.1419V51.1714C79.1988 51.9374 79.3739 52.4677 79.6949 52.8212C80.0159 53.1748 80.512 53.3515 81.1248 53.3515C81.7377 53.3515 82.2046 53.1748 82.5548 52.8212Z" fill="#3D3228"/>
<path d="M84.8309 48.402H85.9399L87.253 52.1436C87.3114 52.2909 87.3406 52.4382 87.3989 52.615C87.4573 52.7918 87.4865 52.9096 87.4865 52.9685H87.5157C87.5449 52.9096 87.574 52.7918 87.6032 52.5855C87.6616 52.4088 87.6908 52.232 87.7491 52.1141L89.0623 48.3726H90.1712V53.8818H89.4125V50.2581L89.4417 49.2269H89.3833C89.3833 49.2564 89.3541 49.3448 89.325 49.4626C89.2958 49.5805 89.2666 49.6689 89.2374 49.7572L87.7491 53.8818H87.1071L85.648 49.7572C85.6189 49.6689 85.5897 49.5805 85.5605 49.4626C85.5313 49.3448 85.5021 49.2564 85.5021 49.2269L85.5313 50.2581V53.8818H84.8309V48.402Z" fill="#3D3228"/>
<path d="M91.426 48.402H94.0816C94.636 48.402 95.0446 48.5493 95.3364 48.8734C95.6282 49.168 95.7741 49.5805 95.7741 50.0813C95.7741 50.6116 95.6282 51.0241 95.3072 51.3187C95.0154 51.6428 94.5777 51.7901 94.0816 51.7901H92.1848V53.9113H91.426V48.402ZM94.0524 51.1125C94.3442 51.1125 94.5777 51.0241 94.7528 50.8178C94.9279 50.6411 95.0154 50.3759 95.0154 50.0519C95.0154 49.7278 94.9279 49.4626 94.782 49.2859C94.6069 49.1091 94.3734 49.0207 94.0524 49.0207H92.1848V51.083H94.0524V51.1125Z" fill="#3D3228"/>
<path d="M97.671 48.402H98.634L100.735 53.9113H99.9472L99.3927 52.4382H96.8831L96.3578 53.9113H95.5699L97.671 48.402ZM99.1592 51.7606L98.5172 50.0519L98.1379 49.0502H98.1087L97.7585 50.0224L97.1165 51.7606H99.1592Z" fill="#3D3228"/>
<path d="M101.435 48.402H102.107L104.996 52.232L105.171 52.4971L105.2 52.4677V48.402H105.9V53.9113H105.258L102.369 50.0224L102.165 49.7278L102.136 49.7572V53.9113H101.435V48.402Z" fill="#3D3228"/>
<path d="M108.818 51.6133L106.659 48.402H107.593L109.198 50.9062H109.227L110.861 48.402H111.707L109.577 51.6133V53.9113H108.818V51.6133Z" fill="#3D3228"/>
<path d="M22.8494 41.2729C23.4622 42.8638 24.2793 43.4825 24.8921 43.5119V44.219C23.2288 44.1601 20.865 44.1306 18.5888 44.1306C16.2543 44.1306 14.0073 44.1601 12.7817 44.219V43.5119C14.4158 43.453 15.2038 43.1879 15.2038 42.2451C15.2038 41.8327 15.0578 41.3024 14.7952 40.5953L12.7233 34.8798H5.77801L5.19437 36.4412C4.40646 38.4446 4.05628 39.9177 4.05628 40.9488C4.05628 42.9816 5.34028 43.4236 7.17874 43.4825V44.1896C5.45701 44.1306 4.23137 44.1012 2.65555 44.1012C1.75091 44.1012 0.671183 44.1306 0 44.1896V43.4825C1.05055 43.3057 2.07191 42.304 3.18082 39.3874L10.8557 19.501C11.4101 19.5599 12.0521 19.5599 12.6649 19.5599C13.2777 19.5599 13.9197 19.5305 14.4742 19.501L22.8494 41.2729ZM9.36738 25.4227L6.04065 34.1433H12.4898L9.36738 25.4227Z" fill="#3D3228"/>
<path d="M51.4476 42.8049C50.0177 44.2485 48.3835 44.6904 46.2824 44.6904C43.2767 44.6904 41.3799 43.7771 40.9422 40.9194L40.4169 37.4429C40.0083 34.5852 39.4247 32.4934 37.6738 32.4934H36.098V40.5069C36.098 43.0406 36.4773 43.3941 38.5492 43.5119V44.219C37.2069 44.1601 34.9307 44.1306 32.7712 44.1306C30.2616 44.1306 27.927 44.1601 26.6139 44.219V43.5119C28.715 43.4236 29.0651 43.0406 29.0651 40.5069V23.1837C29.0651 20.65 28.6858 20.2965 26.6139 20.1786V19.501C27.927 19.5599 30.3783 19.5894 32.567 19.5894C34.8723 19.5894 37.2361 19.5305 38.1115 19.5305C45.1152 19.5305 48.5294 21.4749 48.5294 25.5995C48.5294 28.6635 46.6618 31.7274 40.0667 32.3461C44.7942 32.6113 47.0704 34.0549 47.6248 36.8832L48.3544 40.5069C48.7045 42.2451 49.1131 42.7754 49.901 42.7754C50.3387 42.7754 50.6597 42.6281 50.9515 42.304L51.4476 42.8049ZM36.098 23.1837V31.7569H37.0318C40.5628 31.7569 41.2923 29.1643 41.2923 25.953C41.2923 22.2998 40.4169 20.1492 37.9656 20.1492C36.419 20.1786 36.098 20.7973 36.098 23.1837Z" fill="#3D3228"/>
<path d="M65.1923 20.1786C63.0912 20.267 62.741 20.65 62.741 23.1837V40.4774C62.741 43.0111 63.1204 43.3646 65.1923 43.4825V44.1896C63.8499 44.1306 61.5737 44.1012 59.4143 44.1012C56.9046 44.1012 54.5701 44.1306 53.2569 44.1896V43.4825C55.358 43.3941 55.7082 43.0111 55.7082 40.4774V23.1837C55.7082 20.65 55.3288 20.2965 53.2569 20.1786V19.501C54.5701 19.5599 56.9338 19.5894 59.4143 19.5894C61.5446 19.5894 63.8207 19.5599 65.1923 19.501V20.1786Z" fill="#3D3228"/>
<path d="M88.8588 44.1896C86.5242 44.1012 83.2559 44.1012 80.9505 44.1012C78.47 44.1012 72.8671 44.1012 68.8692 44.1896V43.4825C70.9703 43.3941 71.3205 43.0111 71.3205 40.4774V23.1837C71.3205 20.65 70.9411 20.2965 68.8692 20.1786V19.501C72.8671 19.5894 78.47 19.5894 80.9505 19.5894C83.0516 19.5894 86.0281 19.5894 88.1584 19.501C87.9833 21.8284 87.925 24.2148 87.925 25.3638C87.925 26.336 87.9541 27.2788 88.0125 27.8975H87.2246C86.3783 22.0936 83.6936 20.2965 80.863 20.2965H80.396C78.616 20.2965 78.2949 20.5911 78.2949 22.5061V31.4328H78.6451C81.2423 31.4328 82.9349 28.8697 83.3434 26.8369H84.1313C84.0438 28.3689 83.9854 29.4 83.9854 30.2249C83.9854 30.8141 84.0146 31.2855 84.0146 31.7864C84.0146 32.9353 84.073 34.0843 84.248 36.7359H83.4601C83.0516 34.1433 81.2423 32.1104 78.6451 32.1104H78.2949V41.1845C78.2949 43.0995 78.616 43.3941 80.396 43.3941H81.5341C83.8103 43.3941 86.7869 41.4497 87.8958 35.1449H88.6837C88.6253 35.9699 88.5961 37.0894 88.5961 38.3562C88.6253 39.4758 88.6253 41.8916 88.8588 44.1896Z" fill="#3D3228"/>
<path d="M108.09 20.3848C108.644 20.7089 108.936 20.8857 109.257 20.8857C109.724 20.8857 109.87 20.3554 110.016 19.3537H110.804C110.716 20.8562 110.628 22.6239 110.628 27.868H109.841C109.578 24.0086 107.418 19.9429 103.829 19.9429C101.816 19.9429 100.298 21.0919 100.298 23.1837C100.298 25.7763 102.049 26.8074 106.397 29.8714C109.461 32.0221 112 33.9665 112 37.767C112 42.4808 107.652 44.6904 102.603 44.6904C99.4518 44.6904 97.7593 44.0128 96.4753 43.3941C95.9208 43.0406 95.5706 42.8933 95.308 42.8933C94.8411 42.8933 94.6952 43.4236 94.5201 44.4252H93.7322C93.8197 42.6576 93.8781 40.3007 93.8781 34.32H94.666C94.9286 39.2401 96.5336 43.6298 100.94 43.6298C103.479 43.6298 105.084 42.3924 105.084 40.2123C105.084 37.3251 102.983 35.6458 100.035 33.6424C96.7671 31.4328 93.9072 29.4295 93.9072 25.57C93.9072 21.0035 97.9927 18.9707 102.458 18.9707C105.463 19.0002 106.922 19.7367 108.09 20.3848Z" fill="#3D3228"/>
</g>
<defs>
<linearGradient id="paint0_linear_1615_137931" x1="150.87" y1="19.9493" x2="150.87" y2="3.78366" gradientUnits="userSpaceOnUse">
<stop stop-color="#3D3228"/>
<stop offset="1" stop-color="#3D3228" stop-opacity="0"/>
</linearGradient>
<linearGradient id="paint1_linear_1615_137931" x1="150.87" y1="16.8531" x2="150.87" y2="0.859492" gradientUnits="userSpaceOnUse">
<stop stop-color="#3D3228"/>
<stop offset="1" stop-color="#3D3228" stop-opacity="0"/>
</linearGradient>
<linearGradient id="paint2_linear_1615_137931" x1="150.87" y1="13.758" x2="150.87" y2="-0.515924" gradientUnits="userSpaceOnUse">
<stop stop-color="#3D3228"/>
<stop offset="1" stop-color="#3D3228" stop-opacity="0"/>
</linearGradient>
<clipPath id="clip0_1615_137931">
<rect width="184" height="54" fill="white"/>
</clipPath>
</defs>
</svg>
