<svg width="16" height="17" viewBox="0 0 16 17" fill="none" xmlns="http://www.w3.org/2000/svg">
<path fill-rule="evenodd" clip-rule="evenodd" d="M15.3337 8.49935C15.3337 12.5494 12.0504 15.8327 8.00033 15.8327C3.95024 15.8327 0.666992 12.5494 0.666992 8.49935C0.666992 4.44926 3.95024 1.16602 8.00033 1.16602C12.0504 1.16602 15.3337 4.44926 15.3337 8.49935ZM9.00033 12.166C9.00033 11.6137 8.55261 11.166 8.00033 11.166C7.44804 11.166 7.00033 11.6137 7.00033 12.166C7.00033 12.7183 7.44804 13.166 8.00033 13.166C8.55261 13.166 9.00033 12.7183 9.00033 12.166ZM8.00033 3.83268C7.27622 3.83268 6.70079 4.44097 6.74095 5.16396L6.94486 8.83422C6.97598 9.3944 7.43929 9.83268 8.00033 9.83268C8.56136 9.83268 9.02468 9.3944 9.0558 8.83422L9.2597 5.16396C9.29986 4.44098 8.72443 3.83268 8.00033 3.83268Z" fill="#708077"/>
</svg>
