<svg width="44" height="44" viewBox="0 0 44 44" fill="none" xmlns="http://www.w3.org/2000/svg">
<path fill-rule="evenodd" clip-rule="evenodd" d="M22 44C34.1503 44 44 34.1503 44 22C44 9.84974 34.1503 0 22 0C9.84974 0 0 9.84974 0 22C0 34.1503 9.84974 44 22 44ZM19.4172 18.25C19.4172 19.5 19.6689 20.625 20.298 21.625L13 28.875L16.1457 32L17.9073 30.25L16.5232 28.875L17.404 28L18.7881 29.375L20.5497 27.625L19.1656 26.25L22.0596 23.375C23.1921 24.125 24.3245 24.5 25.7086 24.5C29.2318 24.5 32 21.75 32 18.25C32 14.75 29.2318 12 25.7086 12C22.1854 12 19.4172 14.75 19.4172 18.25ZM21.9338 18.25C21.9338 16.125 23.5695 14.5 25.7086 14.5C27.7219 14.5 29.4834 16.125 29.4834 18.25C29.4834 20.375 27.8477 22 25.7086 22C23.5695 22 21.9338 20.375 21.9338 18.25Z" fill="url(#paint0_linear_148_757)"/>
<defs>
<linearGradient id="paint0_linear_148_757" x1="-1.79348" y1="21.433" x2="44" y2="21.433" gradientUnits="userSpaceOnUse">
<stop stop-color="#BE9D66"/>
<stop offset="1" stop-color="#E8D2A3"/>
</linearGradient>
</defs>
</svg>
