<svg width="24" height="24" viewBox="0 0 24 24" fill="none" xmlns="http://www.w3.org/2000/svg">
<path d="M15.9626 6.03727H8.98442C7.33956 6.03727 5.99377 7.37888 5.99377 9.01863V15.9752C4.69782 15.9255 4 15.1801 4 13.7888V6.18634C4 4.79503 4.74766 4 6.19315 4H13.8193C15.1153 4.04969 15.9128 4.74534 15.9626 6.03727Z" fill="#C49770"/>
<path d="M10.1807 8.02484H17.8069C19.2025 8.02484 20 8.77019 20 10.2112V17.8137C20 19.205 19.2523 20 17.8069 20H10.1807C8.78505 20 7.98754 19.2547 7.98754 17.8137V10.2112C7.98754 8.77019 8.7352 8.02484 10.1807 8.02484Z" fill="url(#paint0_linear_206_14205)"/>
<defs>
<linearGradient id="paint0_linear_206_14205" x1="3.34783" y1="11.7938" x2="20" y2="11.7938" gradientUnits="userSpaceOnUse">
<stop stop-color="#BE9D66"/>
<stop offset="1" stop-color="#E8D2A3"/>
</linearGradient>
</defs>
</svg>
