<svg width="32" height="32" viewBox="0 0 32 32" fill="none" xmlns="http://www.w3.org/2000/svg">
<rect x="0.5" y="0.5" width="31" height="31" rx="11.5" fill="url(#paint0_linear_586_108419)" stroke="#3B5649"/>
<g clip-path="url(#clip0_586_108419)">
<path fill-rule="evenodd" clip-rule="evenodd" d="M10 15.9998C10 12.6861 12.6863 9.99984 16 9.99984C19.3137 9.99984 22 12.6861 22 15.9998C22 16.368 22.2985 16.6665 22.6667 16.6665C23.0349 16.6665 23.3334 16.368 23.3334 15.9998C23.3334 11.9497 20.0501 8.6665 16 8.6665C11.9499 8.6665 8.66669 11.9497 8.66669 15.9998C8.66669 20.0499 11.9499 23.3332 16 23.3332C16.3682 23.3332 16.6667 23.0347 16.6667 22.6665C16.6667 22.2983 16.3682 21.9998 16 21.9998C12.6863 21.9998 10 19.3135 10 15.9998ZM13.4453 12.5284C13.7056 12.2681 14.1277 12.2681 14.3881 12.5284L16 14.1404L17.6119 12.5284C17.8723 12.2681 18.2944 12.2681 18.5548 12.5284C18.8151 12.7888 18.8151 13.2109 18.5548 13.4712L17.0262 14.9998H18.5C18.8682 14.9998 19.1667 15.2983 19.1667 15.6665C19.1667 16.0347 18.8682 16.3332 18.5 16.3332H16.6667V16.9998H18.5C18.8682 16.9998 19.1667 17.2983 19.1667 17.6665C19.1667 18.0347 18.8682 18.3332 18.5 18.3332H16.6667V19.6665C16.6667 20.0347 16.3682 20.3332 16 20.3332C15.6318 20.3332 15.3334 20.0347 15.3334 19.6665V18.3332H13.5C13.1318 18.3332 12.8334 18.0347 12.8334 17.6665C12.8334 17.2983 13.1318 16.9998 13.5 16.9998H15.3334V16.3332H13.5C13.1318 16.3332 12.8334 16.0347 12.8334 15.6665C12.8334 15.2983 13.1318 14.9998 13.5 14.9998H14.9739L13.4453 13.4712C13.1849 13.2109 13.1849 12.7888 13.4453 12.5284ZM21.3131 18.4796C21.5084 18.2844 21.825 18.2844 22.0202 18.4796L23.0202 19.4796C23.1632 19.6226 23.206 19.8377 23.1286 20.0245C23.0512 20.2113 22.8689 20.3332 22.6667 20.3332H18.6667C18.3905 20.3332 18.1667 20.1093 18.1667 19.8332C18.1667 19.557 18.3905 19.3332 18.6667 19.3332H21.4596L21.3131 19.1867C21.1179 18.9915 21.1179 18.6749 21.3131 18.4796ZM19.3131 23.1867C19.5084 23.382 19.825 23.382 20.0202 23.1867C20.2155 22.9915 20.2155 22.6749 20.0202 22.4796L19.8738 22.3332H22.6667C22.9428 22.3332 23.1667 22.1093 23.1667 21.8332C23.1667 21.557 22.9428 21.3332 22.6667 21.3332H18.6667C18.4645 21.3332 18.2821 21.455 18.2047 21.6418C18.1274 21.8287 18.1701 22.0437 18.3131 22.1867L19.3131 23.1867Z" fill="#99AC9B"/>
</g>
<defs>
<linearGradient id="paint0_linear_586_108419" x1="16" y1="0" x2="16" y2="32" gradientUnits="userSpaceOnUse">
<stop stop-color="#3B5649"/>
<stop offset="1" stop-color="#32473D"/>
</linearGradient>
<clipPath id="clip0_586_108419">
<rect width="16" height="16" fill="white" transform="translate(8 8)"/>
</clipPath>
</defs>
</svg>
