<svg width="53" height="53" viewBox="0 0 53 53" fill="none" xmlns="http://www.w3.org/2000/svg">
<rect x="0.5" y="0.5" width="52" height="52" rx="26" fill="url(#paint0_linear_3668_143872)" stroke="url(#paint1_linear_3668_143872)"/>
<path fill-rule="evenodd" clip-rule="evenodd" d="M42 27C42 18.7158 35.2842 12 27 12C18.7158 12 12 18.7158 12 27C12 35.2842 18.7158 42 27 42C35.2842 42 42 35.2842 42 27ZM37.7272 28.1156C37.8533 28.0892 37.9833 28.0879 38.1099 28.1117C38.2366 28.1355 38.3575 28.1841 38.4654 28.2546C38.5734 28.3252 38.6664 28.4164 38.7391 28.5229C38.8118 28.6295 38.8627 28.7493 38.889 28.8756C38.9153 29.0019 38.9164 29.1321 38.8922 29.2588C37.9221 34.3786 33.784 38.3029 28.6198 38.9996C23.4558 39.6965 18.4254 37.0092 16.1334 32.3294C16.0741 32.2135 16.0385 32.087 16.0286 31.9571C16.0187 31.8273 16.0348 31.6968 16.0759 31.5733C16.117 31.4498 16.1823 31.3357 16.268 31.2376C16.3536 31.1396 16.458 31.0596 16.5749 31.0023C16.6918 30.945 16.819 30.9116 16.9489 30.904C17.0789 30.8964 17.2091 30.9148 17.3319 30.958C17.4547 31.0012 17.5677 31.0685 17.6642 31.1559C17.7607 31.2432 17.8389 31.3489 17.8941 31.4668C19.8151 35.3876 24.0296 37.6386 28.3567 37.0551C32.6838 36.4713 36.1513 33.1837 36.9647 28.8941C36.9885 28.7675 37.037 28.6469 37.1074 28.5391C37.1779 28.4312 37.2689 28.3383 37.3752 28.2657C37.4815 28.193 37.6012 28.142 37.7272 28.1156ZM28.7241 15.0213C30.7422 15.3121 32.6541 16.108 34.2824 17.3353H34.2843C35.635 18.3508 36.7573 19.6388 37.5784 21.1158C37.7006 21.3427 37.7285 21.6086 37.6561 21.856C37.5837 22.1034 37.4169 22.3123 37.1916 22.4375C36.9663 22.5628 36.7008 22.5943 36.4525 22.5253C36.2042 22.4563 35.993 22.2922 35.8647 22.0687C34.86 20.2599 33.3261 18.8016 31.4688 17.8897C29.6115 16.9778 27.5197 16.6558 25.4741 16.9669C23.4286 17.2781 21.5271 18.2075 20.025 19.6305C18.5229 21.0534 17.4919 22.9018 17.0706 24.9275C17.0125 25.1767 16.8593 25.3933 16.6436 25.5311C16.428 25.6689 16.1671 25.7169 15.9166 25.665C15.666 25.613 15.4457 25.4651 15.3027 25.253C15.1597 25.0408 15.1053 24.7811 15.1511 24.5294C15.5672 22.5334 16.481 20.6748 17.8074 19.1264C19.1339 17.5779 20.8301 16.3897 22.7386 15.672C24.6471 14.9543 26.706 14.7305 28.7241 15.0213ZM30.0808 25.6134L28.3866 23.9193C27.4622 22.9949 26.5379 22.9948 25.6135 23.9193L23.9193 25.6134C22.9949 26.5378 22.9949 27.4621 23.9193 28.3866L25.6135 30.0807C26.5379 31.0052 27.4622 31.0052 28.3866 30.0807L30.0808 28.3866C31.0052 27.4622 31.0052 26.5379 30.0808 25.6134Z" fill="url(#paint2_linear_3668_143872)"/>
<defs>
<linearGradient id="paint0_linear_3668_143872" x1="0.933099" y1="26.5" x2="53" y2="26.5" gradientUnits="userSpaceOnUse">
<stop stop-color="#191D1E"/>
<stop offset="1" stop-color="#3A3E3A"/>
</linearGradient>
<linearGradient id="paint1_linear_3668_143872" x1="-2.16033" y1="25.817" x2="53" y2="25.817" gradientUnits="userSpaceOnUse">
<stop stop-color="#BE9D66"/>
<stop offset="1" stop-color="#E8D2A3"/>
</linearGradient>
<linearGradient id="paint2_linear_3668_143872" x1="13.9804" y1="27.051" x2="40.5177" y2="27.051" gradientUnits="userSpaceOnUse">
<stop stop-color="#B08261"/>
<stop offset="1" stop-color="#CFB487"/>
</linearGradient>
</defs>
</svg>
