<svg width="32" height="32" viewBox="0 0 32 32" fill="none" xmlns="http://www.w3.org/2000/svg">
    <rect x="0.5" y="0.5" width="31" height="31" rx="11.5" fill="url(#paint0_linear_1173_128428)" stroke="#3B5649"/>
    <path fill-rule="evenodd" clip-rule="evenodd" d="M9.33398 9.99967C9.33398 9.63148 9.63246 9.33301 10.0007 9.33301C10.3688 9.33301 10.6673 9.63148 10.6673 9.99967V21.333H22.0007C22.3688 21.333 22.6673 21.6315 22.6673 21.9997C22.6673 22.3679 22.3688 22.6663 22.0007 22.6663H10.0007C9.63246 22.6663 9.33398 22.3679 9.33398 21.9997V9.99967ZM21.5888 12.3134C21.7621 11.9885 21.6392 11.5847 21.3143 11.4114C20.9894 11.2382 20.5856 11.3611 20.4124 11.686L18.0716 16.0749L14.6698 14.0905C14.3518 13.905 13.9436 14.0124 13.7581 14.3304L11.4247 18.3304C11.2392 18.6485 11.3466 19.0567 11.6647 19.2422C11.9827 19.4277 12.3909 19.3203 12.5764 19.0023L14.5739 15.5781L17.998 17.5755C18.1545 17.6668 18.3415 17.6905 18.5158 17.6411C18.6902 17.5916 18.8369 17.4733 18.9222 17.3134L21.5888 12.3134Z" fill="#99AC9B"/>
    <defs>
        <linearGradient id="paint0_linear_1173_128428" x1="16" y1="0" x2="16" y2="32" gradientUnits="userSpaceOnUse">
            <stop stop-color="#3B5649"/>
            <stop offset="1" stop-color="#32473D"/>
        </linearGradient>
    </defs>
</svg>
