<svg width="25" height="24" viewBox="0 0 25 24" fill="none" xmlns="http://www.w3.org/2000/svg">
<path fill-rule="evenodd" clip-rule="evenodd" d="M4.5 17.9007L5.44224 17.1649C5.46133 17.15 5.48059 17.1353 5.5 17.1209C6.0167 16.7372 6.64375 16.5294 7.28863 16.5294H20.5V5H4.5V17.9007ZM21.5 3H3.5C2.94772 3 2.5 3.44772 2.5 4V19.9503C2.5 20.7834 3.45889 21.2512 4.11546 20.7385L6.67317 18.7412C6.84896 18.604 7.06559 18.5294 7.28863 18.5294H21.5C22.0523 18.5294 22.5 18.0817 22.5 17.5294V4C22.5 3.44772 22.0523 3 21.5 3ZM8.5 8C7.94772 8 7.5 8.44772 7.5 9C7.5 9.55228 7.94772 10 8.5 10H16.5C17.0523 10 17.5 9.55228 17.5 9C17.5 8.44772 17.0523 8 16.5 8H8.5ZM7.5 13C7.5 12.4477 7.94772 12 8.5 12H13.5C14.0523 12 14.5 12.4477 14.5 13C14.5 13.5523 14.0523 14 13.5 14H8.5C7.94772 14 7.5 13.5523 7.5 13Z" fill="url(#paint0_linear_97_2931)"/>
<defs>
<linearGradient id="paint0_linear_97_2931" x1="1.68478" y1="11.7448" x2="22.5" y2="11.7448" gradientUnits="userSpaceOnUse">
<stop stop-color="#BE9D66"/>
<stop offset="1" stop-color="#E8D2A3"/>
</linearGradient>
</defs>
</svg>
