<svg width="24" height="24" viewBox="0 0 24 24" fill="none" xmlns="http://www.w3.org/2000/svg">
    <path d="M12.5 1.5C12.5657 1.5 12.6307 1.51293 12.6913 1.53806C12.752 1.56319 12.8071 1.60002 12.8536 1.64645C12.9 1.69288 12.9368 1.748 12.9619 1.80866C12.9871 1.86932 13 1.93434 13 2V3C13 3.06566 12.9871 3.13068 12.9619 3.19134C12.9368 3.252 12.9 3.30712 12.8536 3.35355C12.8071 3.39998 12.752 3.43681 12.6913 3.46194C12.6307 3.48707 12.5657 3.5 12.5 3.5H4V20.5H12.5C12.5657 20.5 12.6307 20.5129 12.6913 20.5381C12.752 20.5632 12.8071 20.6 12.8536 20.6464C12.9 20.6929 12.9368 20.748 12.9619 20.8087C12.9871 20.8693 13 20.9343 13 21V22C13 22.0657 12.9871 22.1307 12.9619 22.1913C12.9368 22.252 12.9 22.3071 12.8536 22.3536C12.8071 22.4 12.752 22.4368 12.6913 22.4619C12.6307 22.4871 12.5657 22.5 12.5 22.5H4C3.48688 22.5 2.99339 22.3028 2.62159 21.9491C2.2498 21.5955 2.02816 21.1125 2.0025 20.6L2 20.5V3.5C2 2.98688 2.19722 2.49339 2.55086 2.12159C2.90451 1.7498 3.38752 1.52816 3.9 1.5025L4 1.5H12.5ZM17.0605 6.6465L21.3535 10.9395C21.6227 11.2087 21.7794 11.5702 21.7919 11.9507C21.8045 12.3311 21.6719 12.7022 21.421 12.9885L21.3535 13.0605L17.0605 17.3535C16.9667 17.4472 16.8396 17.4999 16.707 17.4999C16.5744 17.4999 16.4473 17.4472 16.3535 17.3535L15.6465 16.6465C15.5528 16.5527 15.5001 16.4256 15.5001 16.293C15.5001 16.1604 15.5528 16.0333 15.6465 15.9395L18.585 13H8.5C8.43434 13 8.36932 12.9871 8.30866 12.9619C8.24799 12.9368 8.19288 12.9 8.14645 12.8536C8.10002 12.8071 8.06319 12.752 8.03806 12.6913C8.01293 12.6307 8 12.5657 8 12.5V11.5C8 11.4343 8.01293 11.3693 8.03806 11.3087C8.06319 11.248 8.10002 11.1929 8.14645 11.1464C8.19288 11.1 8.24799 11.0632 8.30866 11.0381C8.36932 11.0129 8.43434 11 8.5 11H18.585L15.6465 8.0605C15.5528 7.96674 15.5001 7.83958 15.5001 7.707C15.5001 7.57442 15.5528 7.44726 15.6465 7.3535L16.3535 6.6465C16.4473 6.55276 16.5744 6.50011 16.707 6.50011C16.8396 6.50011 16.9667 6.55276 17.0605 6.6465Z"
          fill="url(#paint0_linear_97_2941)"/>
    <defs>
        <linearGradient id="paint0_linear_97_2941" x1="1.19323" y1="11.7294" x2="21.7927" y2="11.7294"
                        gradientUnits="userSpaceOnUse">
            <stop stop-color="#BE9D66"/>
            <stop offset="1" stop-color="#E8D2A3"/>
        </linearGradient>
    </defs>
</svg>
