<svg width="24" height="24" viewBox="0 0 24 24" fill="none" xmlns="http://www.w3.org/2000/svg">
<path d="M12 1C18.0752 1 23 5.92479 23 12C23 18.0752 18.0752 23 12 23C5.92479 23 1 18.0752 1 12C1 5.92479 5.92479 1 12 1ZM15.647 12.9167H8.35304C8.55563 17.5958 10.2826 21.1667 12 21.1667C13.7169 21.1667 15.4444 17.5958 15.647 12.9167ZM6.51788 12.9167L2.87871 12.9171C3.21513 16.3024 5.39313 19.1459 8.39704 20.4315C7.31675 18.5895 6.63383 15.9123 6.51788 12.9171V12.9167ZM21.1213 12.9171H17.4821C17.3662 15.9128 16.6833 18.5895 15.603 20.431C18.6069 19.1463 20.7849 16.3024 21.1213 12.9171ZM8.3975 3.56896L8.29575 3.61296C5.34363 4.91829 3.211 7.73613 2.87917 11.0833H6.51833C6.63429 8.08767 7.31721 5.41054 8.3975 3.56896ZM12 2.83333L11.9313 2.83517C10.2373 2.92867 8.55333 6.467 8.35304 11.0833H15.647C15.4444 6.40467 13.7174 2.83333 12 2.83333ZM15.603 3.5685L15.6703 3.68537C16.7117 5.52238 17.3685 8.15 17.4817 11.0833H21.1208C20.7849 7.69763 18.6064 4.85413 15.6025 3.5685H15.603Z" fill="url(#paint0_linear_97_2933)"/>
<path fill-rule="evenodd" clip-rule="evenodd" d="M12 1.21782C6.04509 1.21782 1.21782 6.04509 1.21782 12C1.21782 17.9549 6.04509 22.7822 12 22.7822C17.9549 22.7822 22.7822 17.9549 22.7822 12C22.7822 6.04509 17.9549 1.21782 12 1.21782ZM1 12C1 5.92479 5.92479 1 12 1C18.0752 1 23 5.92479 23 12C23 18.0752 18.0752 23 12 23C5.92479 23 1 18.0752 1 12ZM12 2.81514C12.4645 2.81518 12.9163 3.05656 13.3305 3.47208C13.7451 3.88812 14.1311 4.48721 14.467 5.22605C15.139 6.7043 15.6189 8.76061 15.7197 11.0877L15.7246 11.2013H8.27541L8.28034 11.0877C8.37996 8.79156 8.84859 6.75912 9.5065 5.28549C9.83534 4.54891 10.2134 3.94764 10.62 3.52292C11.0259 3.09891 11.4689 2.84239 11.9259 2.81716L11.929 2.81699L12 2.81514ZM12.0014 3.033L11.9364 3.03474C11.5553 3.05628 11.1614 3.27235 10.7773 3.67355C10.3934 4.07457 10.0278 4.65214 9.70539 5.37429C9.07155 6.79401 8.61218 8.75589 8.5032 10.9835H15.4968C15.3865 8.72525 14.916 6.74019 14.2687 5.31619C13.9395 4.592 13.5666 4.01757 13.1762 3.62585C12.7857 3.2341 12.3866 3.03349 12.0014 3.033ZM15.5415 3.66687L15.5668 3.54307H15.6302L15.6437 3.5665C18.6358 4.86146 20.8035 7.7017 21.1389 11.0817L21.1508 11.2013H17.3226L17.3186 11.0966C17.2069 8.20414 16.5593 5.62106 15.5394 3.8217C15.5394 3.8216 15.5395 3.8218 15.5394 3.8217L15.4729 3.70637L15.5415 3.66687ZM15.8246 3.88741C16.7986 5.69258 17.4119 8.19986 17.5319 10.9835H20.9095C20.5548 7.83822 18.5725 5.18559 15.8246 3.88741ZM8.2892 3.59603L8.38994 3.55247L8.43317 3.65243L8.52711 3.70754C7.46927 5.51084 6.79579 8.14238 6.68144 11.0966L6.67738 11.2013H2.84923L2.86109 11.0817C3.19362 7.72749 5.3314 4.90387 8.2892 3.59603ZM8.17619 3.88713C5.42714 5.18472 3.44492 7.838 3.09052 10.9835H6.46807C6.58845 8.20009 7.20198 5.69252 8.17619 3.88713ZM6.68106 12.9059V12.7987L2.84875 12.7991L2.86064 12.9188C3.19776 16.3111 5.38018 19.1601 8.38986 20.4481L8.69404 20.5783L8.52666 20.2929C7.46907 18.4896 6.79566 15.8589 6.68106 12.9059ZM6.4676 13.0165L3.0901 13.0169C3.4452 16.1621 5.42741 18.8148 8.17555 20.1129C7.20141 18.3071 6.58792 15.7995 6.4676 13.0165ZM8.27542 12.7987H15.7246L15.7197 12.9123C15.6189 15.2396 15.1389 17.2959 14.4668 18.7741C14.1309 19.5129 13.7449 20.112 13.3303 20.528C12.9161 20.9435 12.4644 21.1848 12 21.1848C11.5355 21.1848 11.0837 20.9435 10.6695 20.528C10.2549 20.112 9.86888 19.5129 9.53301 18.7741C8.861 17.2959 8.3811 15.2396 8.28034 12.9123L8.27542 12.7987ZM8.50319 13.0165C8.61347 15.275 9.08395 17.26 9.7313 18.684C10.0605 19.4081 10.4334 19.9825 10.8238 20.3742C11.2147 20.7664 11.6143 20.967 12 20.967C12.3856 20.967 12.7851 20.7664 13.176 20.3742C13.5664 19.9825 13.9393 19.4081 14.2685 18.684C14.9159 17.26 15.3865 15.275 15.4968 13.0165H8.50319ZM17.3231 12.7991H21.031V12.908L21.1394 12.9188C20.8022 16.3111 18.6198 19.1605 15.6101 20.4477L15.306 20.5778L15.4733 20.2925C16.5312 18.4892 17.2047 15.8581 17.319 12.9038L17.3231 12.7991ZM20.9099 13.017H17.5324C17.412 15.8002 16.7985 18.3072 15.8244 20.1125C18.5726 18.8153 20.5548 16.1621 20.9099 13.017Z" fill="url(#paint1_linear_97_2933)"/>
<defs>
<linearGradient id="paint0_linear_97_2933" x1="0.103261" y1="11.7165" x2="23" y2="11.7165" gradientUnits="userSpaceOnUse">
<stop stop-color="#BE9D66"/>
<stop offset="1" stop-color="#E8D2A3"/>
</linearGradient>
<linearGradient id="paint1_linear_97_2933" x1="0.103261" y1="11.7165" x2="23" y2="11.7165" gradientUnits="userSpaceOnUse">
<stop stop-color="#BE9D66"/>
<stop offset="1" stop-color="#E8D2A3"/>
</linearGradient>
</defs>
</svg>
