<svg width="24" height="24" viewBox="0 0 24 24" fill="none" xmlns="http://www.w3.org/2000/svg">
<path fill-rule="evenodd" clip-rule="evenodd" d="M23.0283 12.0283C23.0283 18.1035 18.1035 23.0283 12.0283 23.0283C5.95319 23.0283 1.02832 18.1035 1.02832 12.0283C1.02832 5.95319 5.95319 1.02832 12.0283 1.02832C18.1035 1.02832 23.0283 5.95319 23.0283 12.0283ZM18.7229 18.0436C20.1562 16.4495 21.0283 14.3408 21.0283 12.0283C21.0283 7.05776 16.9989 3.02832 12.0283 3.02832C7.05776 3.02832 3.02832 7.05776 3.02832 12.0283C3.02832 14.3178 3.88319 16.4076 5.29113 17.9959C5.84737 16.1312 7.15981 14.5926 8.87267 13.7358C8.02627 12.9176 7.5 11.7703 7.5 10.5001C7.5 8.01481 9.51472 6.00009 12 6.00009C14.4853 6.00009 16.5 8.01481 16.5 10.5001C16.5 11.7703 15.9737 12.9176 15.1273 13.7358C16.8548 14.5999 18.175 16.1575 18.7229 18.0436ZM16.9796 19.5452C16.7498 16.9969 14.6081 15.0001 12 15.0001C9.40404 15.0001 7.27015 16.9784 7.02374 19.5097C8.45475 20.4689 10.1762 21.0283 12.0283 21.0283C13.8575 21.0283 15.5592 20.4826 16.9796 19.5452ZM12 13.0001C13.3807 13.0001 14.5 11.8808 14.5 10.5001C14.5 9.11938 13.3807 8.00009 12 8.00009C10.6193 8.00009 9.5 9.11938 9.5 10.5001C9.5 11.8808 10.6193 13.0001 12 13.0001Z" fill="url(#paint0_linear_97_2926)"/>
<defs>
<linearGradient id="paint0_linear_97_2926" x1="0.131582" y1="11.7448" x2="23.0283" y2="11.7448" gradientUnits="userSpaceOnUse">
<stop stop-color="#BE9D66"/>
<stop offset="1" stop-color="#E8D2A3"/>
</linearGradient>
</defs>
</svg>
