<svg width="25" height="24" viewBox="0 0 25 24" fill="none" xmlns="http://www.w3.org/2000/svg">
<path fill-rule="evenodd" clip-rule="evenodd" d="M10.5117 2.78197C10.6204 1.77997 11.4691 1 12.5 1C13.5324 1 14.3822 1.78233 14.4887 2.78652C17.386 3.64345 19.5001 6.32485 19.5001 9.5C19.5001 12.8517 20.217 15.0727 20.8945 16.4278C21.2344 17.1077 21.5682 17.577 21.8053 17.8668C21.9239 18.0118 22.0187 18.1122 22.0783 18.1718C22.108 18.2016 22.129 18.2212 22.1399 18.231L22.1477 18.238C22.4655 18.5081 22.5825 18.9476 22.4403 19.3404C22.297 19.7363 21.9211 20 21.5001 20H16.374C15.9299 21.7252 14.3638 23 12.5 23C10.6362 23 9.07006 21.7252 8.62602 20H3.50005C3.07903 20 2.70311 19.7363 2.55978 19.3404C2.41645 18.9446 2.53643 18.5013 2.85987 18.2318C3.90864 17.3578 4.57272 15.9871 4.97191 14.3626C5.36802 12.7507 5.47614 11.0013 5.50005 9.49191C5.50234 6.77052 6.65974 4.97279 8.16575 3.88847C8.91575 3.34847 9.73502 2.99644 10.5117 2.78197ZM12.5 21C11.7597 21 11.1134 20.5978 10.7676 20H14.2324C13.8866 20.5978 13.2403 21 12.5 21ZM19.4738 18H16.5H8.5H5.65C6.24917 17.025 6.64652 15.9289 6.91413 14.8399C7.36465 13.0065 7.47547 11.0769 7.49993 9.51567L7.50005 9.5C7.50005 7.42592 8.34185 6.22614 9.33436 5.51153C10.3778 4.76022 11.6601 4.5 12.5001 4.5C15.2615 4.5 17.5001 6.73858 17.5001 9.5C17.5001 13.1483 18.2831 15.6773 19.1056 17.3222C19.2287 17.5683 19.3523 17.7939 19.4738 18Z" fill="url(#paint0_linear_97_2936)"/>
<defs>
<linearGradient id="paint0_linear_97_2936" x1="1.68478" y1="11.7165" x2="22.5001" y2="11.7165" gradientUnits="userSpaceOnUse">
<stop stop-color="#BE9D66"/>
<stop offset="1" stop-color="#E8D2A3"/>
</linearGradient>
</defs>
</svg>
