<svg width="32" height="32" viewBox="0 0 32 32" fill="none" xmlns="http://www.w3.org/2000/svg">
<path d="M18.4604 8.19164L23.8087 13.5399L26.0398 11.3088C26.8752 10.4734 26.8752 9.11885 26.0398 8.2834L23.7169 5.96057C22.8815 5.12512 21.5269 5.12512 20.6915 5.96057L18.4604 8.19164Z" fill="url(#paint0_linear_191_28663)"/>
<path d="M5.35424 25.9849L7.15293 19.6895C7.20287 19.5147 7.29653 19.3555 7.42507 19.227L16.8559 9.79612L22.2042 15.1444L12.7733 24.5753C12.6448 24.7038 12.4856 24.7975 12.3108 24.8474L6.01542 26.6461C5.61197 26.7614 5.23897 26.3884 5.35424 25.9849Z" fill="url(#paint1_linear_191_28663)"/>
<defs>
<linearGradient id="paint0_linear_191_28663" x1="4.46344" y1="15.7257" x2="26.6663" y2="15.7257" gradientUnits="userSpaceOnUse">
<stop stop-color="#BE9D66"/>
<stop offset="1" stop-color="#E8D2A3"/>
</linearGradient>
<linearGradient id="paint1_linear_191_28663" x1="4.46344" y1="15.7257" x2="26.6663" y2="15.7257" gradientUnits="userSpaceOnUse">
<stop stop-color="#BE9D66"/>
<stop offset="1" stop-color="#E8D2A3"/>
</linearGradient>
</defs>
</svg>
