<svg width="25" height="24" viewBox="0 0 25 24" fill="none" xmlns="http://www.w3.org/2000/svg">
<path d="M12.75 0C6.12273 0 0.75 5.37273 0.75 12C0.75 18.6273 6.12273 24 12.75 24C19.3773 24 24.75 18.6273 24.75 12C24.75 5.37273 19.3773 0 12.75 0ZM18.9453 15.6141C18.9453 16.2765 18.3879 16.8186 17.7064 16.8186H7.79362C7.11212 16.8186 6.55468 16.2765 6.55468 15.6141L6.56037 9.66294L12.6015 12.8666C12.6473 12.8908 12.6983 12.9034 12.75 12.9034C12.8017 12.9034 12.8527 12.8908 12.8985 12.8666L18.9453 9.65992V15.6141ZM12.753 11.7354L6.56106 8.37495C6.56707 7.71746 7.11613 7.1814 7.79365 7.1814H17.7064C18.3829 7.1814 18.9373 7.71545 18.9453 8.37161L12.753 11.7354Z" fill="url(#paint0_linear_148_2942)"/>
<defs>
<linearGradient id="paint0_linear_148_2942" x1="-0.22826" y1="11.6907" x2="24.75" y2="11.6907" gradientUnits="userSpaceOnUse">
<stop stop-color="#BE9D66"/>
<stop offset="1" stop-color="#E8D2A3"/>
</linearGradient>
</defs>
</svg>
