<svg width="25" height="24" viewBox="0 0 25 24" fill="none" xmlns="http://www.w3.org/2000/svg">
<path d="M12.25 0C5.62273 0 0.25 5.37273 0.25 12C0.25 18.6273 5.62273 24 12.25 24C18.8773 24 24.25 18.6273 24.25 12C24.25 5.37273 18.8773 0 12.25 0ZM18.4453 15.6141C18.4453 16.2765 17.8879 16.8186 17.2064 16.8186H7.29362C6.61212 16.8186 6.05468 16.2765 6.05468 15.6141L6.06037 9.66294L12.1015 12.8666C12.1473 12.8908 12.1983 12.9034 12.25 12.9034C12.3017 12.9034 12.3527 12.8908 12.3985 12.8666L18.4453 9.65992V15.6141ZM12.253 11.7354L6.06106 8.37495C6.06707 7.71746 6.61613 7.1814 7.29365 7.1814H17.2064C17.8829 7.1814 18.4373 7.71545 18.4453 8.37161L12.253 11.7354Z" fill="#3D3228"/>
</svg>
