<svg width="1060" height="693" viewBox="0 0 1060 693" fill="none" xmlns="http://www.w3.org/2000/svg">
<rect x="18" y="11.1045" width="1024" height="681.813" fill="url(#paint0_linear_103_37641)"/>
<rect x="37.4258" y="23.4878" width="985.149" height="649.366" fill="#3B5649"/>
<path d="M37.9258 672.354V635.626L530 230.184L1022.07 635.626V672.354H37.9258Z" fill="url(#paint1_linear_103_37641)" stroke="url(#paint2_linear_103_37641)"/>
<g filter="url(#filter0_d_103_37641)">
<path d="M1042 34.1455C1042 59.8078 1030.13 84.0269 1009.85 99.7478L579.008 433.676C550.161 456.035 509.839 456.035 480.992 433.676L50.1538 99.7479C29.8706 84.0271 18 59.8079 18 34.1456L18 10.9999L1042 10.9998L1042 34.1455Z" fill="url(#paint3_linear_103_37641)"/>
</g>
<defs>
<filter id="filter0_d_103_37641" x="0" y="0" width="1060" height="475.445" filterUnits="userSpaceOnUse" color-interpolation-filters="sRGB">
<feFlood flood-opacity="0" result="BackgroundImageFix"/>
<feColorMatrix in="SourceAlpha" type="matrix" values="0 0 0 0 0 0 0 0 0 0 0 0 0 0 0 0 0 0 127 0" result="hardAlpha"/>
<feOffset dy="7"/>
<feGaussianBlur stdDeviation="9"/>
<feComposite in2="hardAlpha" operator="out"/>
<feColorMatrix type="matrix" values="0 0 0 0 0.0117647 0 0 0 0 0.0470588 0 0 0 0 0.0313726 0 0 0 0.5 0"/>
<feBlend mode="normal" in2="BackgroundImageFix" result="effect1_dropShadow_103_37641"/>
<feBlend mode="normal" in="SourceGraphic" in2="effect1_dropShadow_103_37641" result="shape"/>
</filter>
<linearGradient id="paint0_linear_103_37641" x1="530" y1="679.52" x2="530" y2="11.52" gradientUnits="userSpaceOnUse">
<stop stop-color="#27302D"/>
<stop offset="1" stop-color="#42534B"/>
</linearGradient>
<linearGradient id="paint1_linear_103_37641" x1="530" y1="229.537" x2="530" y2="672.854" gradientUnits="userSpaceOnUse">
<stop stop-color="#3B5649"/>
<stop offset="1" stop-color="#32473D"/>
</linearGradient>
<linearGradient id="paint2_linear_103_37641" x1="396" y1="559.52" x2="406.459" y2="686.696" gradientUnits="userSpaceOnUse">
<stop stop-color="#446052"/>
<stop offset="1" stop-color="#2E4037"/>
</linearGradient>
<linearGradient id="paint3_linear_103_37641" x1="102.5" y1="10.52" x2="54.2341" y2="394.658" gradientUnits="userSpaceOnUse">
<stop stop-color="#446052"/>
<stop offset="1" stop-color="#2E4037"/>
</linearGradient>
</defs>
</svg>
