<svg width="1024" height="24" viewBox="0 0 1024 24" fill="none" xmlns="http://www.w3.org/2000/svg">
<path d="M493.845 12.4816C494.195 13.3566 494.642 13.6799 494.991 13.699V14.0794C494.059 14.0414 492.737 14.0223 491.455 14.0223C490.133 14.0223 488.89 14.0414 488.19 14.0794V13.699C489.103 13.6609 489.55 13.5278 489.55 12.9952C489.55 12.7669 489.473 12.4816 489.317 12.1011L488.151 8.98157H484.245L483.915 9.83755C483.487 10.9598 483.293 11.7587 483.293 12.3104C483.293 13.4327 484.012 13.6609 485.042 13.699V14.0794C484.07 14.0414 483.39 14.0223 482.496 14.0223C481.991 14.0223 481.389 14.0414 481 14.0794V13.699C481.602 13.6039 482.166 13.0522 482.788 11.4734L487.102 0.612008C487.413 0.631029 487.782 0.650051 488.132 0.650051C488.481 0.650051 488.851 0.650051 489.142 0.612008L493.845 12.4816ZM486.266 3.8457L484.401 8.60114H488.035L486.266 3.8457Z" fill="url(#paint0_linear_1279_135032)"/>
<path d="M509.935 13.3185C509.138 14.0984 508.205 14.3457 507.02 14.3457C505.329 14.3457 504.261 13.8511 504.027 12.2914L503.736 10.3892C503.503 8.8294 503.172 7.68809 502.181 7.68809H501.307V12.0631C501.307 13.4517 501.521 13.6419 502.687 13.699V14.0794C501.929 14.0414 500.646 14.0223 499.441 14.0223C498.042 14.0223 496.721 14.0414 495.982 14.0794V13.699C497.168 13.6419 497.362 13.4517 497.362 12.0631V2.62831C497.362 1.23973 497.148 1.04951 495.982 0.992443V0.612008C496.721 0.650051 498.081 0.669073 499.325 0.669073C500.627 0.669073 501.948 0.631029 502.453 0.631029C506.398 0.631029 508.303 1.69625 508.303 3.94081C508.303 5.61472 507.253 7.26962 503.542 7.63103C506.204 7.7832 507.486 8.56309 507.797 10.1039L508.205 12.0821C508.4 13.0332 508.633 13.3185 509.08 13.3185C509.333 13.3185 509.507 13.2424 509.682 13.0712L509.935 13.3185ZM501.307 2.62831V7.30766H501.832C503.814 7.30766 504.222 5.90005 504.222 4.15005C504.222 2.15277 503.736 0.992443 502.356 0.992443C501.482 0.992443 501.307 1.31581 501.307 2.62831Z" fill="url(#paint1_linear_1279_135032)"/>
<path d="M517.669 0.992443C516.484 1.04951 516.289 1.23973 516.289 2.62831V12.0631C516.289 13.4517 516.503 13.6419 517.669 13.699V14.0794C516.911 14.0414 515.629 14.0223 514.424 14.0223C513.025 14.0223 511.703 14.0414 510.965 14.0794V13.699C512.15 13.6419 512.345 13.4517 512.345 12.0631V2.62831C512.345 1.23973 512.131 1.04951 510.965 0.992443V0.612008C511.703 0.650051 513.025 0.669073 514.424 0.669073C515.629 0.669073 516.911 0.650051 517.669 0.612008V0.992443Z" fill="url(#paint2_linear_1279_135032)"/>
<path d="M530.98 14.0794C529.659 14.0223 527.832 14.0223 526.53 14.0223C525.131 14.0223 521.983 14.0223 519.729 14.0794V13.699C520.914 13.6419 521.109 13.4517 521.109 12.0631V2.62831C521.109 1.23973 520.895 1.04951 519.729 0.992443V0.612008C521.983 0.669073 525.131 0.669073 526.53 0.669073C527.716 0.669073 529.387 0.669073 530.592 0.612008C530.494 1.88646 530.456 3.17994 530.456 3.80766C530.456 4.34027 530.475 4.85385 530.514 5.17722H530.067C529.581 2.01962 528.085 1.04951 526.491 1.04951H526.239C525.228 1.04951 525.053 1.20168 525.053 2.24788V7.11744H525.248C526.705 7.11744 527.657 5.70983 527.89 4.60657H528.337C528.279 5.44353 528.26 6.01418 528.26 6.45168C528.26 6.77505 528.26 7.04136 528.26 7.30766C528.26 7.93538 528.279 8.56309 528.376 10.0087H527.929C527.696 8.60114 526.686 7.49788 525.228 7.49788H525.034V12.4435C525.034 13.4897 525.209 13.6419 526.219 13.6419H526.861C528.143 13.6419 529.814 12.5767 530.436 9.13375H530.883C530.844 9.59027 530.825 10.199 530.825 10.8837C530.844 11.5115 530.844 12.824 530.98 14.0794Z" fill="url(#paint3_linear_1279_135032)"/>
<path d="M541.804 1.10657C542.115 1.27777 542.29 1.37288 542.465 1.37288C542.717 1.37288 542.815 1.08755 542.892 0.535921H543.339C543.281 1.35386 543.242 2.32396 543.242 5.17722H542.795C542.659 3.08483 541.435 0.85929 539.414 0.85929C538.267 0.85929 537.432 1.48701 537.432 2.62831C537.432 4.03592 538.403 4.60657 540.852 6.28049C542.581 7.45983 544 8.50603 544 10.5794C544 13.1473 541.552 14.3457 538.714 14.3457C536.946 14.3457 535.994 13.9843 535.275 13.6419C534.964 13.4517 534.77 13.3756 534.614 13.3756C534.361 13.3756 534.264 13.6609 534.187 14.2126H533.74C533.798 13.2424 533.817 11.949 533.817 8.69625H534.264C534.42 11.3783 535.314 13.7751 537.801 13.7751C539.22 13.7751 540.133 13.0903 540.133 11.9109C540.133 10.3321 538.948 9.41907 537.296 8.33483C535.45 7.13646 533.837 6.0332 533.837 3.94081C533.837 1.44896 536.149 0.345703 538.656 0.345703C540.327 0.345703 541.143 0.74516 541.804 1.10657Z" fill="url(#paint4_linear_1279_135032)"/>
<path d="M489.908 19.849H488.58V19.4252H491.756V19.849H490.457V22.9481H489.908V19.849Z" fill="url(#paint5_linear_1279_135032)"/>
<path d="M492.333 19.4252H494.325C494.701 19.4252 495.018 19.5046 495.221 19.69C495.423 19.8755 495.538 20.1139 495.538 20.4317C495.538 20.6701 495.48 20.882 495.365 21.0409C495.249 21.2263 495.076 21.3323 494.845 21.4118L495.74 22.9481H495.134L494.297 21.4912H492.882V22.9481H492.333V19.4252ZM494.297 21.0674C494.499 21.0674 494.672 21.0144 494.787 20.9085C494.903 20.8025 494.961 20.6436 494.961 20.4317C494.961 20.2463 494.903 20.1139 494.787 20.0079C494.672 19.9019 494.499 19.849 494.268 19.849H492.824V21.0674H494.297Z" fill="url(#paint6_linear_1279_135032)"/>
<path d="M496.78 22.6567C496.52 22.4448 496.375 22.1004 496.375 21.6237V19.4252H496.895V21.6766C496.895 21.968 496.982 22.2064 497.155 22.3653C497.328 22.5243 497.588 22.6037 497.934 22.6037C498.281 22.6037 498.541 22.5243 498.714 22.3653C498.887 22.2064 498.974 21.968 498.974 21.6766V19.4252H499.493V21.6502C499.493 22.1004 499.349 22.4448 499.089 22.6832C498.829 22.8951 498.425 23.0275 497.906 23.0275C497.444 23.001 497.068 22.8951 496.78 22.6567Z" fill="url(#paint7_linear_1279_135032)"/>
<path d="M500.706 22.7362C500.417 22.5772 500.273 22.2859 500.273 21.9415V21.8356H500.793V21.8621C500.793 21.8885 500.793 21.915 500.793 21.9415C500.793 22.1534 500.879 22.3123 501.081 22.4183C501.284 22.5243 501.514 22.5772 501.832 22.5772C502.179 22.5772 502.438 22.5243 502.64 22.4183C502.814 22.3123 502.929 22.1799 502.929 21.9945C502.929 21.8621 502.871 21.7561 502.785 21.6766C502.698 21.5972 502.554 21.5177 502.41 21.4912C502.265 21.4382 502.063 21.3853 501.803 21.3323C501.486 21.2528 501.255 21.1999 501.053 21.1204C500.85 21.0409 500.706 20.9615 500.562 20.829C500.417 20.6966 500.36 20.5112 500.36 20.2993C500.36 19.9814 500.504 19.743 500.793 19.5841C501.081 19.4252 501.428 19.3457 501.861 19.3457C502.294 19.3457 502.64 19.4252 502.929 19.5841C503.189 19.743 503.333 20.0079 503.333 20.3258V20.3787H502.814V20.2993C502.814 20.1139 502.727 19.9814 502.554 19.8755C502.381 19.7695 502.15 19.7165 501.89 19.7165C501.601 19.7165 501.37 19.7695 501.168 19.849C500.995 19.9284 500.908 20.0609 500.908 20.2198C500.908 20.3522 500.966 20.4317 501.053 20.5112C501.139 20.5906 501.255 20.6436 501.399 20.6966C501.543 20.7496 501.745 20.8025 501.976 20.8555C502.294 20.935 502.525 20.988 502.727 21.0674C502.929 21.1469 503.102 21.2263 503.218 21.3588C503.362 21.4912 503.42 21.6502 503.42 21.8621C503.42 22.2329 503.276 22.5243 502.987 22.6832C502.698 22.8421 502.323 22.9481 501.832 22.9481C501.37 23.001 500.995 22.9216 500.706 22.7362Z" fill="url(#paint8_linear_1279_135032)"/>
<path d="M505.152 19.849H503.824V19.4252H507V19.849H505.701V22.9481H505.152V19.849Z" fill="url(#paint9_linear_1279_135032)"/>
<path d="M509.31 22.5507C508.992 22.2594 508.848 21.7826 508.848 21.1734C508.848 20.5641 508.992 20.1139 509.31 19.796C509.627 19.5046 510.089 19.3457 510.696 19.3457C511.186 19.3457 511.591 19.4517 511.908 19.69C512.197 19.9284 512.37 20.2463 512.37 20.6966H511.822C511.822 20.4052 511.735 20.1668 511.533 20.0079C511.331 19.849 511.071 19.7695 510.724 19.7695C510.263 19.7695 509.945 19.8755 509.714 20.0874C509.512 20.2993 509.396 20.6701 509.396 21.1469C509.396 21.6502 509.512 21.9945 509.714 22.2329C509.916 22.4448 510.263 22.5772 510.724 22.5772C511.071 22.5772 511.36 22.4978 511.562 22.3388C511.764 22.1799 511.85 21.968 511.85 21.6502H512.37C512.37 22.1004 512.226 22.4183 511.908 22.6302C511.619 22.8421 511.215 22.9745 510.696 22.9745C510.118 23.001 509.627 22.8421 509.31 22.5507Z" fill="url(#paint10_linear_1279_135032)"/>
<path d="M513.41 22.5507C513.063 22.2329 512.919 21.7826 512.919 21.1734C512.919 20.5641 513.092 20.1139 513.41 19.796C513.756 19.4781 514.218 19.3457 514.824 19.3457C515.431 19.3457 515.921 19.5046 516.239 19.796C516.585 20.1139 516.73 20.5641 516.73 21.1734C516.73 21.7826 516.557 22.2329 516.239 22.5243C515.892 22.8421 515.431 22.9745 514.824 22.9745C514.218 23.001 513.727 22.8421 513.41 22.5507ZM515.835 22.2594C516.066 22.0475 516.181 21.6766 516.181 21.1999V21.1734C516.181 20.6966 516.066 20.3258 515.835 20.1139C515.604 19.9019 515.257 19.7695 514.824 19.7695C514.391 19.7695 514.045 19.8755 513.814 20.1139C513.583 20.3258 513.467 20.6966 513.467 21.1734V21.1999C513.467 21.6766 513.583 22.0475 513.814 22.2594C514.045 22.4713 514.391 22.6037 514.824 22.6037C515.257 22.5772 515.604 22.4713 515.835 22.2594Z" fill="url(#paint11_linear_1279_135032)"/>
<path d="M517.423 19.4252H518.202L519.126 21.8356C519.155 21.915 519.184 22.021 519.242 22.1534C519.27 22.2594 519.299 22.3388 519.299 22.3653H519.328C519.328 22.3388 519.357 22.2594 519.386 22.1269C519.415 21.9945 519.444 21.915 519.473 21.8356L520.396 19.4252H521.176V22.9481H520.656V19.9549H520.627C520.627 19.9814 520.599 20.0344 520.599 20.1139C520.57 20.1933 520.57 20.2463 520.541 20.2993L519.501 22.9481H519.068L518.029 20.2993C518 20.2463 518 20.1933 517.971 20.1139C517.942 20.0344 517.942 19.9814 517.942 19.9549H517.913V22.9481H517.423V19.4252Z" fill="url(#paint12_linear_1279_135032)"/>
<path d="M522.1 19.4252H523.976C524.352 19.4252 524.669 19.5311 524.871 19.7165C525.074 19.9019 525.189 20.1668 525.189 20.4847C525.189 20.829 525.074 21.0939 524.871 21.2793C524.669 21.4912 524.352 21.5707 524.005 21.5707H522.677V22.9216H522.158V19.4252H522.1ZM523.948 21.1469C524.15 21.1469 524.323 21.0939 524.438 20.9615C524.554 20.829 524.612 20.6701 524.612 20.4847C524.612 20.2728 524.554 20.1139 524.438 20.0079C524.323 19.9019 524.15 19.849 523.919 19.849H522.62V21.1734H523.948V21.1469Z" fill="url(#paint13_linear_1279_135032)"/>
<path d="M526.517 19.4252H527.181L528.683 22.9481H528.105L527.73 21.9945H525.94L525.564 22.9481H525.016L526.517 19.4252ZM527.557 21.5707L527.095 20.4582L526.835 19.8225H526.806L526.546 20.4582L526.084 21.5707H527.557Z" fill="url(#paint14_linear_1279_135032)"/>
<path d="M529.144 19.4252H529.635L531.656 21.8621L531.801 22.021H531.83V19.4252H532.32V22.9481H531.858L529.837 20.4582L529.664 20.2728V22.9481H529.144V19.4252Z" fill="url(#paint15_linear_1279_135032)"/>
<path d="M534.37 21.4647L532.84 19.3987H533.504L534.63 21.0144H534.659L535.814 19.3987H536.42L534.89 21.4647V22.9481H534.37V21.4647Z" fill="url(#paint16_linear_1279_135032)"/>
<rect y="14" width="273" height="4" fill="url(#paint17_linear_1279_135032)"/>
<rect x="751" y="14" width="273" height="4" fill="url(#paint18_linear_1279_135032)"/>
<line x1="584" y1="13.5" x2="1024" y2="13.5" stroke="url(#paint19_linear_1279_135032)"/>
<line y1="13.5" x2="441" y2="13.5" stroke="url(#paint20_linear_1279_135032)"/>
<defs>
<linearGradient id="paint0_linear_1279_135032" x1="481" y1="7.44715" x2="544" y2="7.44716" gradientUnits="userSpaceOnUse">
<stop stop-color="#AF8160"/>
<stop offset="1" stop-color="#D0B588"/>
</linearGradient>
<linearGradient id="paint1_linear_1279_135032" x1="481" y1="7.44715" x2="544" y2="7.44716" gradientUnits="userSpaceOnUse">
<stop stop-color="#AF8160"/>
<stop offset="1" stop-color="#D0B588"/>
</linearGradient>
<linearGradient id="paint2_linear_1279_135032" x1="481" y1="7.44715" x2="544" y2="7.44716" gradientUnits="userSpaceOnUse">
<stop stop-color="#AF8160"/>
<stop offset="1" stop-color="#D0B588"/>
</linearGradient>
<linearGradient id="paint3_linear_1279_135032" x1="481" y1="7.44715" x2="544" y2="7.44716" gradientUnits="userSpaceOnUse">
<stop stop-color="#AF8160"/>
<stop offset="1" stop-color="#D0B588"/>
</linearGradient>
<linearGradient id="paint4_linear_1279_135032" x1="481" y1="7.44715" x2="544" y2="7.44716" gradientUnits="userSpaceOnUse">
<stop stop-color="#AF8160"/>
<stop offset="1" stop-color="#D0B588"/>
</linearGradient>
<linearGradient id="paint5_linear_1279_135032" x1="488.58" y1="21.2133" x2="536.42" y2="21.2133" gradientUnits="userSpaceOnUse">
<stop stop-color="#AF8160"/>
<stop offset="1" stop-color="#D0B588"/>
</linearGradient>
<linearGradient id="paint6_linear_1279_135032" x1="488.58" y1="21.2133" x2="536.42" y2="21.2133" gradientUnits="userSpaceOnUse">
<stop stop-color="#AF8160"/>
<stop offset="1" stop-color="#D0B588"/>
</linearGradient>
<linearGradient id="paint7_linear_1279_135032" x1="488.58" y1="21.2133" x2="536.42" y2="21.2133" gradientUnits="userSpaceOnUse">
<stop stop-color="#AF8160"/>
<stop offset="1" stop-color="#D0B588"/>
</linearGradient>
<linearGradient id="paint8_linear_1279_135032" x1="488.58" y1="21.2133" x2="536.42" y2="21.2133" gradientUnits="userSpaceOnUse">
<stop stop-color="#AF8160"/>
<stop offset="1" stop-color="#D0B588"/>
</linearGradient>
<linearGradient id="paint9_linear_1279_135032" x1="488.58" y1="21.2133" x2="536.42" y2="21.2133" gradientUnits="userSpaceOnUse">
<stop stop-color="#AF8160"/>
<stop offset="1" stop-color="#D0B588"/>
</linearGradient>
<linearGradient id="paint10_linear_1279_135032" x1="488.58" y1="21.2133" x2="536.42" y2="21.2133" gradientUnits="userSpaceOnUse">
<stop stop-color="#AF8160"/>
<stop offset="1" stop-color="#D0B588"/>
</linearGradient>
<linearGradient id="paint11_linear_1279_135032" x1="488.58" y1="21.2133" x2="536.42" y2="21.2133" gradientUnits="userSpaceOnUse">
<stop stop-color="#AF8160"/>
<stop offset="1" stop-color="#D0B588"/>
</linearGradient>
<linearGradient id="paint12_linear_1279_135032" x1="488.58" y1="21.2133" x2="536.42" y2="21.2133" gradientUnits="userSpaceOnUse">
<stop stop-color="#AF8160"/>
<stop offset="1" stop-color="#D0B588"/>
</linearGradient>
<linearGradient id="paint13_linear_1279_135032" x1="488.58" y1="21.2133" x2="536.42" y2="21.2133" gradientUnits="userSpaceOnUse">
<stop stop-color="#AF8160"/>
<stop offset="1" stop-color="#D0B588"/>
</linearGradient>
<linearGradient id="paint14_linear_1279_135032" x1="488.58" y1="21.2133" x2="536.42" y2="21.2133" gradientUnits="userSpaceOnUse">
<stop stop-color="#AF8160"/>
<stop offset="1" stop-color="#D0B588"/>
</linearGradient>
<linearGradient id="paint15_linear_1279_135032" x1="488.58" y1="21.2133" x2="536.42" y2="21.2133" gradientUnits="userSpaceOnUse">
<stop stop-color="#AF8160"/>
<stop offset="1" stop-color="#D0B588"/>
</linearGradient>
<linearGradient id="paint16_linear_1279_135032" x1="488.58" y1="21.2133" x2="536.42" y2="21.2133" gradientUnits="userSpaceOnUse">
<stop stop-color="#AF8160"/>
<stop offset="1" stop-color="#D0B588"/>
</linearGradient>
<linearGradient id="paint17_linear_1279_135032" x1="-2.24591e-06" y1="16.029" x2="273" y2="16.0298" gradientUnits="userSpaceOnUse">
<stop stop-color="#AF8160"/>
<stop offset="1" stop-color="#D0B588"/>
</linearGradient>
<linearGradient id="paint18_linear_1279_135032" x1="751" y1="16.029" x2="1024" y2="16.0298" gradientUnits="userSpaceOnUse">
<stop stop-color="#AF8160"/>
<stop offset="1" stop-color="#D0B588"/>
</linearGradient>
<linearGradient id="paint19_linear_1279_135032" x1="584" y1="14.5072" x2="1024" y2="14.5155" gradientUnits="userSpaceOnUse">
<stop stop-color="#AF8160"/>
<stop offset="1" stop-color="#D0B588"/>
</linearGradient>
<linearGradient id="paint20_linear_1279_135032" x1="-3.62801e-06" y1="14.5072" x2="441" y2="14.5155" gradientUnits="userSpaceOnUse">
<stop stop-color="#AF8160"/>
<stop offset="1" stop-color="#D0B588"/>
</linearGradient>
</defs>
</svg>
