<svg width="32" height="32" viewBox="0 0 32 32" fill="none" xmlns="http://www.w3.org/2000/svg">
<rect x="0.5" y="0.5" width="31" height="31" rx="15.5" fill="url(#paint0_linear_3743_8256)" stroke="url(#paint1_linear_3743_8256)"/>
<g clip-path="url(#clip0_3743_8256)">
<path d="M21.3327 12.3135C21.3327 12.3135 20.0612 10.6019 16.6704 10.6783C12.8912 10.7546 10.666 13.8615 10.666 16.4233C10.666 18.9852 12.691 22.0812 16.6587 22.2229C19.6609 22.321 21.2856 20.5114 21.2856 20.5114L19.4254 18.7344C19.4254 18.7344 18.2952 19.6393 16.9177 19.6393C15.5402 19.6393 13.4092 18.6036 13.4092 16.3579C13.4092 14.1122 16.5998 11.8883 19.4019 14.0795C19.861 13.6544 21.3327 12.3135 21.3327 12.3135Z" fill="url(#paint2_linear_3743_8256)"/>
</g>
<defs>
<linearGradient id="paint0_linear_3743_8256" x1="0.56338" y1="16" x2="32" y2="16" gradientUnits="userSpaceOnUse">
<stop stop-color="#191D1E"/>
<stop offset="1" stop-color="#3A3E3A"/>
</linearGradient>
<linearGradient id="paint1_linear_3743_8256" x1="-1.30435" y1="15.5876" x2="32" y2="15.5876" gradientUnits="userSpaceOnUse">
<stop stop-color="#BE9D66"/>
<stop offset="1" stop-color="#E8D2A3"/>
</linearGradient>
<linearGradient id="paint2_linear_3743_8256" x1="10.2312" y1="16.3024" x2="21.3327" y2="16.3024" gradientUnits="userSpaceOnUse">
<stop stop-color="#BE9D66"/>
<stop offset="1" stop-color="#E8D2A3"/>
</linearGradient>
<clipPath id="clip0_3743_8256">
<rect width="10.6667" height="11.5556" fill="white" transform="translate(10.666 10.667)"/>
</clipPath>
</defs>
</svg>
