<svg width="44" height="44" viewBox="0 0 44 44" fill="none" xmlns="http://www.w3.org/2000/svg">
<path fill-rule="evenodd" clip-rule="evenodd" d="M22 44C34.1503 44 44 34.1503 44 22C44 9.84974 34.1503 0 22 0C9.84974 0 0 9.84974 0 22C0 34.1503 9.84974 44 22 44ZM21.7703 9.00004C21.7708 9.00003 21.7713 9.00001 21.7718 9H21.7688C21.7693 9.00001 21.7698 9.00003 21.7703 9.00004ZM21.7703 9.00004C21.3046 9.01235 20.8612 9.20933 20.5317 9.55032C20.2019 9.89168 20.0115 10.3512 20 10.8338V24.5203C20 25.2538 20.3544 25.8651 21.0631 26.2318L30.5098 30.8744C30.746 30.9998 30.9823 30.9998 31.2185 30.9998C31.5681 31.0047 31.9113 30.9029 32.2053 30.7073C32.4994 30.5116 32.7313 30.2307 32.8722 29.8995C33.0444 29.444 33.0425 28.9377 32.867 28.4835C32.6915 28.0294 32.3555 27.6614 31.9272 27.4544L23.5406 23.42V10.8338C23.5291 10.3512 23.3387 9.89168 23.0089 9.55032C22.6795 9.20933 22.236 9.01235 21.7703 9.00004Z" fill="url(#paint0_linear_1297_137605)"/>
<defs>
<linearGradient id="paint0_linear_1297_137605" x1="-1.79348" y1="21.433" x2="44" y2="21.433" gradientUnits="userSpaceOnUse">
<stop stop-color="#BE9D66"/>
<stop offset="1" stop-color="#E8D2A3"/>
</linearGradient>
</defs>
</svg>
