<svg width="33" height="32" viewBox="0 0 33 32" fill="none" xmlns="http://www.w3.org/2000/svg">
<rect x="1" y="0.5" width="31" height="31" rx="15.5" fill="url(#paint0_linear_1173_130794)" stroke="url(#paint1_linear_1173_130794)"/>
<path d="M23.2096 21.4798H22.4404V12.7345C22.4404 12.4785 22.2882 12.2545 22.0558 12.1424L18.2178 10.1422C18.0014 10.0461 17.761 10.0461 17.5447 10.1422C17.3043 10.2382 17.1521 10.4702 17.1601 11.7344V22.4799H16.3909V10.6702C16.3909 9.37405 16.3909 9.18203 16.1024 9.07801C15.854 8.974 15.5816 8.974 15.3332 9.07801L10.9423 11.3903C10.7099 11.5024 10.5577 11.7424 10.5577 11.9984V21.4878H9.78846C9.59615 21.4878 9.5 21.5918 9.5 21.6878V22.8C9.5 22.896 9.59615 23 9.78846 23H23.2096C23.2978 23 23.4821 22.896 23.4981 22.8V21.6958C23.5221 21.5758 23.3138 21.4798 23.2096 21.4798ZM14.1954 20.0716C14.1954 20.1836 14.1073 20.2716 13.9951 20.2716H12.9134C12.8012 20.2716 12.7131 20.1836 12.7131 20.0716V19.1354C12.7131 19.0234 12.8012 18.9354 12.9134 18.9354H14.0191C14.1313 18.9354 14.2194 19.0234 14.2194 19.1354L14.1954 20.0716ZM14.1954 17.2472C14.1954 17.3592 14.1073 17.4472 13.9951 17.4472H12.9134C12.8012 17.4472 12.7131 17.3592 12.7131 17.2472V16.295C12.7131 16.183 12.8012 16.095 12.9134 16.095H14.0191C14.1313 16.095 14.2194 16.183 14.2194 16.295L14.1954 17.2472ZM14.1954 14.4308C14.1954 14.5428 14.1073 14.6308 13.9951 14.6308H12.9134C12.8012 14.6308 12.7131 14.5428 12.7131 14.4308V13.4706C12.7131 13.3586 12.8012 13.2706 12.9134 13.2706H14.0191C14.1313 13.2706 14.2194 13.3586 14.2194 13.4706L14.1954 14.4308ZM20.5174 20.0636C20.5174 20.1756 20.4292 20.2636 20.3171 20.2636H19.2113C19.0991 20.2636 19.011 20.1756 19.011 20.0636V19.1194C19.011 19.0074 19.0991 18.9194 19.2113 18.9194H20.3171C20.4292 18.9194 20.5174 19.0074 20.5174 19.1194V20.0636ZM20.5174 17.2392C20.5174 17.3512 20.4292 17.4392 20.3171 17.4392H19.2113C19.0991 17.4392 19.011 17.3512 19.011 17.2392V16.295C19.011 16.183 19.0991 16.095 19.2113 16.095H20.3171C20.4292 16.095 20.5174 16.183 20.5174 16.295V17.2392ZM20.5174 14.4228C20.5174 14.5348 20.4292 14.6228 20.3171 14.6228H19.2113C19.0991 14.6228 19.011 14.5348 19.011 14.4228V13.4706C19.011 13.3586 19.0991 13.2706 19.2113 13.2706H20.3171C20.4292 13.2706 20.5174 13.3586 20.5174 13.4706V14.4228Z" fill="url(#paint2_linear_1173_130794)"/>
<defs>
<linearGradient id="paint0_linear_1173_130794" x1="1.06338" y1="16" x2="32.5" y2="16" gradientUnits="userSpaceOnUse">
<stop stop-color="#191D1E"/>
<stop offset="1" stop-color="#3A3E3A"/>
</linearGradient>
<linearGradient id="paint1_linear_1173_130794" x1="-0.804347" y1="15.5876" x2="32.5" y2="15.5876" gradientUnits="userSpaceOnUse">
<stop stop-color="#BE9D66"/>
<stop offset="1" stop-color="#E8D2A3"/>
</linearGradient>
<linearGradient id="paint2_linear_1173_130794" x1="9.5" y1="16.1014" x2="23.5" y2="16.1014" gradientUnits="userSpaceOnUse">
<stop stop-color="#AF8160"/>
<stop offset="1" stop-color="#D0B588"/>
</linearGradient>
</defs>
</svg>
