<svg width="24" height="24" viewBox="0 0 24 24" fill="none" xmlns="http://www.w3.org/2000/svg">
<rect x="0.5" y="0.5" width="23" height="23" rx="11.5" fill="url(#paint0_linear_3260_6489)" stroke="url(#paint1_linear_3260_6489)"/>
<path fill-rule="evenodd" clip-rule="evenodd" d="M10.2071 7.29289C9.81658 6.90237 9.18342 6.90237 8.79289 7.29289C8.40237 7.68342 8.40237 8.31658 8.79289 8.70711L10.0858 10H9C8.44772 10 8 10.4477 8 11C8 11.5523 8.44772 12 9 12H11V13H9C8.44772 13 8 13.4477 8 14C8 14.5523 8.44772 15 9 15H11V16C11 16.5523 11.4477 17 12 17C12.5523 17 13 16.5523 13 16V15H15C15.5523 15 16 14.5523 16 14C16 13.4477 15.5523 13 15 13H13V12H15C15.5523 12 16 11.5523 16 11C16 10.4477 15.5523 10 15 10H13.9142L15.2071 8.70711C15.5976 8.31658 15.5976 7.68342 15.2071 7.29289C14.8166 6.90237 14.1834 6.90237 13.7929 7.29289L12 9.08579L10.2071 7.29289Z" fill="#AF9467"/>
<defs>
<linearGradient id="paint0_linear_3260_6489" x1="0.422535" y1="12" x2="24" y2="12" gradientUnits="userSpaceOnUse">
<stop stop-color="#191D1E"/>
<stop offset="1" stop-color="#3A3E3A"/>
</linearGradient>
<linearGradient id="paint1_linear_3260_6489" x1="-0.97826" y1="11.6907" x2="24" y2="11.6907" gradientUnits="userSpaceOnUse">
<stop stop-color="#BE9D66"/>
<stop offset="1" stop-color="#E8D2A3"/>
</linearGradient>
</defs>
</svg>
