<svg width="32" height="32" viewBox="0 0 32 32" fill="none" xmlns="http://www.w3.org/2000/svg">
<rect x="0.5" y="0.5" width="31" height="31" rx="15.5" fill="url(#paint0_linear_1173_130806)" stroke="url(#paint1_linear_1173_130806)"/>
<path d="M22.8407 12.4427L16.4727 9.64924C16.4656 9.64573 16.4569 9.64222 16.4499 9.63871C16.406 9.61237 16.2184 9.50878 16.015 9.5H15.9922C15.7871 9.51053 15.6013 9.61237 15.5557 9.63871C15.5487 9.64222 15.5416 9.64749 15.5329 9.64924L9.17884 12.4427C9.06663 12.4866 9 12.599 9 12.7096V13.0467C9 13.1626 9.09293 13.2557 9.20865 13.2557H9.89595C9.99063 13.2557 10.073 13.3171 10.0976 13.4084C10.1835 13.7368 10.5482 13.7175 10.606 13.7139H21.389C21.4468 13.7192 21.8115 13.7385 21.8974 13.4084C21.922 13.3171 22.0044 13.2557 22.0991 13.2557H22.7864C22.9021 13.2557 22.995 13.1626 22.995 13.0467V12.7272C22.995 12.7166 22.9968 12.7043 22.9985 12.6938C23.0108 12.5902 22.9459 12.4972 22.8407 12.4427ZM22.3831 21.2183H9.6347C9.14553 21.2183 9.15605 21.6976 9.15605 21.6976V22.2911C9.15605 22.4069 9.24897 22.5 9.36469 22.5H22.6514C22.7671 22.5 22.86 22.4069 22.86 22.2911V21.6976C22.8618 21.6976 22.874 21.2183 22.3831 21.2183ZM11.0163 14.4145V19.8136H10.471C10.0678 19.8136 10.0117 20.1964 10.0047 20.2701C10.0047 20.2771 10.0029 20.2842 10.0029 20.2894V20.5282C10.0029 20.6441 10.0958 20.7372 10.2115 20.7372H21.8291C21.9448 20.7372 22.0377 20.6441 22.0377 20.5282V20.2894C22.0377 20.2824 22.0377 20.2754 22.0359 20.2701C22.0289 20.1964 21.9728 19.8136 21.5696 19.8136H21.0243V14.4145C21.0243 14.2986 20.9314 14.2056 20.8156 14.2056H19.4761C19.3604 14.2056 19.2674 14.2986 19.2674 14.4145V19.8136H18.1979V14.4145C18.1979 14.2986 18.105 14.2056 17.9893 14.2056H16.6603C16.5445 14.2056 16.4516 14.2986 16.4516 14.4145V19.8241H15.5837V14.4145C15.5837 14.2986 15.4908 14.2056 15.3751 14.2056H14.0461C13.9303 14.2056 13.8374 14.2986 13.8374 14.4145V19.8136H12.7679V14.4145C12.7679 14.2986 12.675 14.2056 12.5592 14.2056H11.2302C11.1092 14.2056 11.0163 14.2986 11.0163 14.4145Z" fill="url(#paint2_linear_1173_130806)"/>
<defs>
<linearGradient id="paint0_linear_1173_130806" x1="0.56338" y1="16" x2="32" y2="16" gradientUnits="userSpaceOnUse">
<stop stop-color="#191D1E"/>
<stop offset="1" stop-color="#3A3E3A"/>
</linearGradient>
<linearGradient id="paint1_linear_1173_130806" x1="-1.30435" y1="15.5876" x2="32" y2="15.5876" gradientUnits="userSpaceOnUse">
<stop stop-color="#BE9D66"/>
<stop offset="1" stop-color="#E8D2A3"/>
</linearGradient>
<linearGradient id="paint2_linear_1173_130806" x1="9" y1="16.0942" x2="23" y2="16.0942" gradientUnits="userSpaceOnUse">
<stop stop-color="#AF8160"/>
<stop offset="1" stop-color="#D0B588"/>
</linearGradient>
</defs>
</svg>
