<svg width="24" height="24" viewBox="0 0 24 24" fill="none" xmlns="http://www.w3.org/2000/svg">
<path fill-rule="evenodd" clip-rule="evenodd" d="M12 24C18.6274 24 24 18.6274 24 12C24 5.37258 18.6274 0 12 0C5.37258 0 0 5.37258 0 12C0 18.6274 5.37258 24 12 24ZM16.8051 12.483L14.1707 14.3452L12.4426 11.9682L14.1707 9.59758L16.8051 11.4661C16.8643 11.5089 16.9134 11.5694 16.9476 11.6418C16.9817 11.7141 16.9998 11.796 17 11.8792V12.0699C16.9998 12.1532 16.9817 12.235 16.9476 12.3074C16.9134 12.3798 16.8643 12.4403 16.8051 12.483ZM13.5859 9.18446L12.0053 11.3644L7.40042 5.0406C7.45109 5.01382 7.5058 5 7.56112 5C7.61643 5 7.67115 5.01382 7.72181 5.0406L13.5859 9.18446ZM7.40042 18.9594L12.0053 12.6038L13.5911 14.8219L7.72181 18.9594C7.67115 18.9862 7.61643 19 7.56112 19C7.5058 19 7.45109 18.9862 7.40042 18.9594ZM7 18.2666V5.66981L11.568 11.9682L7 18.2666Z" fill="url(#paint0_linear_1615_137729)"/>
<defs>
<linearGradient id="paint0_linear_1615_137729" x1="-0.97826" y1="11.6907" x2="24" y2="11.6907" gradientUnits="userSpaceOnUse">
<stop stop-color="#BE9D66"/>
<stop offset="1" stop-color="#E8D2A3"/>
</linearGradient>
</defs>
</svg>
