<svg width="184" height="54" viewBox="0 0 184 54" fill="none" xmlns="http://www.w3.org/2000/svg">
<g clip-path="url(#clip0_1854_10134)">
<path d="M184 19.4675C184 19.5019 184 19.5019 184 19.5363C184 19.5707 184 19.5707 184 19.6051C184 19.6738 183.931 19.7426 183.897 19.777C183.828 19.8114 183.759 19.8458 183.691 19.8458H150.973H118.222C118.153 19.8458 118.084 19.8114 118.016 19.777C117.947 19.7426 117.913 19.6738 117.913 19.6051C117.913 19.6051 117.913 19.5707 117.913 19.5363C117.913 19.5363 117.913 19.5019 117.913 19.4675C117.913 19.4331 117.947 19.3987 117.947 19.3643C117.981 19.2955 118.05 19.2611 118.119 19.2267C129.082 14.8242 140.045 10.456 150.973 6.05347C161.936 10.456 172.9 14.8242 183.828 19.2267C183.897 19.2611 183.966 19.2955 184 19.3643C184 19.3987 184 19.4331 184 19.4675ZM132.656 17.2318H169.222L150.939 9.9057L132.656 17.2318Z" fill="url(#paint0_linear_1854_10134)"/>
<path d="M184 16.4409C184 16.4409 184 16.4753 184 16.5097C184 16.5097 184 16.5441 184 16.5784C184 16.6472 183.931 16.716 183.897 16.7504C183.828 16.7848 183.759 16.8192 183.691 16.8192H150.973H118.222C118.153 16.8192 118.084 16.7848 118.016 16.7504C117.947 16.716 117.913 16.6472 117.913 16.5784C117.913 16.5441 117.913 16.5441 117.913 16.5097C117.913 16.4753 117.913 16.4753 117.913 16.4409C117.913 16.4065 117.947 16.3721 117.947 16.3377C117.981 16.2689 118.05 16.2345 118.119 16.2001C129.082 11.7976 140.045 7.4294 150.973 3.02686C161.936 7.4294 172.9 11.7976 183.828 16.2001C183.897 16.2345 183.966 16.2689 184 16.3377C184 16.3721 184 16.4065 184 16.4409ZM132.656 14.2052H169.222L150.939 6.87908L132.656 14.2052Z" fill="url(#paint1_linear_1854_10134)"/>
<path d="M184 13.414C184 13.4484 184 13.4484 184 13.4828C184 13.5172 184 13.5172 184 13.5516C184 13.6204 183.931 13.6892 183.897 13.7236C183.828 13.758 183.759 13.7924 183.691 13.7924H150.973H118.222C118.153 13.7924 118.084 13.758 118.016 13.7236C117.947 13.6892 117.913 13.6204 117.913 13.5516C117.913 13.5516 117.913 13.5172 117.913 13.4828C117.913 13.4828 117.913 13.4484 117.913 13.414C117.913 13.3796 117.947 13.3452 117.947 13.3108C117.981 13.242 118.05 13.2076 118.119 13.1732C129.082 8.7707 140.045 4.40255 150.973 0C161.936 4.40255 172.9 8.7707 183.828 13.1732C183.897 13.2076 183.966 13.242 184 13.3108C184 13.3452 184 13.3796 184 13.414ZM132.656 11.2127H169.222L150.939 3.88662L132.656 11.2127Z" fill="url(#paint2_linear_1854_10134)"/>
<path d="M184 19.5708V20.0179C184 20.6714 183.725 21.3249 183.278 21.7721C182.797 22.2536 182.179 22.4944 181.526 22.4944H120.387C119.734 22.4944 119.081 22.2192 118.634 21.7721C118.153 21.3249 117.913 20.6714 117.913 20.0179V19.5708C117.913 19.6396 117.981 19.7084 118.016 19.7428C118.084 19.7772 118.153 19.8116 118.222 19.8116H150.939H183.691C183.759 19.8116 183.828 19.7772 183.897 19.7428C183.931 19.7084 184 19.6396 184 19.5708Z" fill="#3D3228"/>
<path d="M183.45 26.7936V31.3337L180.838 32.228V31.7464C180.838 31.4025 180.701 31.0585 180.46 30.8178C180.22 30.577 179.876 30.4394 179.532 30.4394C179.189 30.4394 178.845 30.577 178.604 30.8178C178.364 31.0585 178.226 31.4025 178.226 31.7464V33.1222L175.615 34.0165V31.7464C175.615 31.4025 175.477 31.0585 175.237 30.8178C174.996 30.577 174.652 30.4394 174.309 30.4394C173.965 30.4394 173.621 30.577 173.381 30.8178C173.14 31.0585 173.003 31.4025 173.003 31.7464V34.9452L170.391 35.8394V33.0534C170.391 32.6407 170.356 32.228 170.253 31.8152C170.185 31.3681 170.047 30.9554 169.875 30.5426C169.532 29.7515 169.051 29.0292 168.466 28.4445C167.848 27.8254 167.16 27.3783 166.37 27.0343C165.958 26.8624 165.545 26.7248 165.098 26.656C164.686 26.5872 164.274 26.5528 163.861 26.5528C163.449 26.5528 163.036 26.5872 162.624 26.656C162.212 26.7248 161.765 26.8624 161.352 27.0343C160.562 27.3783 159.84 27.8598 159.256 28.4445C158.637 29.0636 158.191 29.7515 157.847 30.5426C157.675 30.9554 157.572 31.3681 157.469 31.8152C157.4 32.228 157.366 32.6407 157.366 33.0534V40.3796L154.754 41.2738V31.7464C154.754 31.4025 154.616 31.0585 154.376 30.8178C154.135 30.577 153.792 30.4394 153.448 30.4394C153.104 30.4394 152.761 30.577 152.52 30.8178C152.279 31.0585 152.142 31.4025 152.142 31.7464V42.2025L149.53 43.0968V31.7464C149.53 31.4025 149.393 31.0585 149.152 30.8178C148.912 30.577 148.568 30.4394 148.224 30.4394C147.881 30.4394 147.537 30.577 147.296 30.8178C147.056 31.0585 146.918 31.4025 146.918 31.7464V44.0254L144.306 44.9197V33.0534C144.306 32.6407 144.272 32.228 144.203 31.8152C144.135 31.3681 143.997 30.9554 143.825 30.5426C143.482 29.7515 143.035 29.0292 142.416 28.4445C141.798 27.8254 141.11 27.3783 140.32 27.0343C139.907 26.8624 139.495 26.7248 139.048 26.656C138.636 26.5872 138.223 26.5528 137.811 26.5528C137.399 26.5528 136.986 26.5872 136.574 26.656C136.161 26.7248 135.715 26.8624 135.302 27.0343C134.512 27.3783 133.79 27.8598 133.206 28.4445C132.587 29.0636 132.106 29.7515 131.797 30.5426C131.625 30.9554 131.488 31.3681 131.419 31.8152C131.35 32.228 131.316 32.6407 131.316 33.0534V49.4598L128.704 50.3541V31.7464C128.704 31.4025 128.566 31.0585 128.326 30.8178C128.085 30.577 127.742 30.4394 127.398 30.4394C127.054 30.4394 126.711 30.577 126.47 30.8178C126.229 31.0585 126.092 31.4025 126.092 31.7464V51.2483L123.48 52.1426V31.7464C123.48 31.4025 123.343 31.0585 123.102 30.8178C122.862 30.577 122.518 30.4394 122.174 30.4394C121.83 30.4394 121.487 30.577 121.246 30.8178C121.006 31.0585 120.868 31.4025 120.868 31.7464V53.0713L118.256 53.9655V26.7936C118.256 26.1401 118.531 25.4866 118.978 25.0394C119.459 24.5579 120.078 24.3171 120.731 24.3171H150.733H180.735C181.388 24.3171 182.041 24.5923 182.488 25.0394C183.175 25.4866 183.45 26.1057 183.45 26.7936Z" fill="#3D3228"/>
<path d="M35.6748 50.8214H34.3467V50.3976H37.5225V50.8214H36.2233V53.9205H35.6748V50.8214Z" fill="#3D3228"/>
<path d="M38.1 50.3976H40.0921C40.4674 50.3976 40.785 50.477 40.9871 50.6625C41.1892 50.8479 41.3047 51.0863 41.3047 51.4041C41.3047 51.6425 41.247 51.8544 41.1315 52.0133C41.016 52.1988 40.8428 52.3047 40.6118 52.3842L41.5068 53.9205H40.9005L40.0632 52.4636H38.6485V53.9205H38.1V50.3976ZM40.0632 52.0398C40.2653 52.0398 40.4386 51.9869 40.554 51.8809C40.6695 51.775 40.7273 51.616 40.7273 51.4041C40.7273 51.2187 40.6695 51.0863 40.554 50.9803C40.4386 50.8744 40.2653 50.8214 40.0344 50.8214H38.5908V52.0398H40.0632Z" fill="#3D3228"/>
<path d="M42.5462 53.6291C42.2863 53.4172 42.142 53.0729 42.142 52.5961V50.3976H42.6617V52.6491C42.6617 52.9404 42.7483 53.1788 42.9215 53.3377C43.0947 53.4967 43.3546 53.5761 43.701 53.5761C44.0475 53.5761 44.3073 53.4967 44.4806 53.3377C44.6538 53.1788 44.7404 52.9404 44.7404 52.6491V50.3976H45.2601V52.6226C45.2601 53.0729 45.1157 53.4172 44.8559 53.6556C44.596 53.8675 44.1918 53.9999 43.6722 53.9999C43.2102 53.9734 42.8349 53.8675 42.5462 53.6291Z" fill="#3D3228"/>
<path d="M46.4727 53.7086C46.184 53.5496 46.0396 53.2583 46.0396 52.9139V52.808H46.5593V52.8345C46.5593 52.861 46.5593 52.8874 46.5593 52.9139C46.5593 53.1258 46.6459 53.2848 46.848 53.3907C47.0501 53.4967 47.2811 53.5496 47.5987 53.5496C47.9451 53.5496 48.205 53.4967 48.4071 53.3907C48.5803 53.2848 48.6958 53.1523 48.6958 52.9669C48.6958 52.8345 48.638 52.7285 48.5514 52.6491C48.4648 52.5696 48.3205 52.4901 48.1761 52.4636C48.0317 52.4107 47.8296 52.3577 47.5698 52.3047C47.2522 52.2252 47.0212 52.1723 46.8191 52.0928C46.617 52.0133 46.4727 51.9339 46.3283 51.8014C46.184 51.669 46.1262 51.4836 46.1262 51.2717C46.1262 50.9538 46.2706 50.7154 46.5593 50.5565C46.848 50.3976 47.1945 50.3181 47.6275 50.3181C48.0606 50.3181 48.4071 50.3976 48.6958 50.5565C48.9556 50.7154 49.1 50.9803 49.1 51.2982V51.3511H48.5803V51.2717C48.5803 51.0863 48.4937 50.9538 48.3205 50.8479C48.1472 50.7419 47.9163 50.6889 47.6564 50.6889C47.3677 50.6889 47.1367 50.7419 46.9346 50.8214C46.7614 50.9008 46.6748 51.0333 46.6748 51.1922C46.6748 51.3247 46.7325 51.4041 46.8191 51.4836C46.9058 51.563 47.0212 51.616 47.1656 51.669C47.31 51.722 47.5121 51.775 47.743 51.8279C48.0606 51.9074 48.2916 51.9604 48.4937 52.0398C48.6958 52.1193 48.869 52.1988 48.9845 52.3312C49.1289 52.4636 49.1866 52.6226 49.1866 52.8345C49.1866 53.2053 49.0422 53.4967 48.7535 53.6556C48.4648 53.8145 48.0895 53.9205 47.5987 53.9205C47.1367 53.9734 46.7614 53.894 46.4727 53.7086Z" fill="#3D3228"/>
<path d="M50.9189 50.8214H49.5908V50.3976H52.7667V50.8214H51.4674V53.9205H50.9189V50.8214Z" fill="#3D3228"/>
<path d="M55.0764 53.5232C54.7588 53.2318 54.6144 52.755 54.6144 52.1458C54.6144 51.5366 54.7588 51.0863 55.0764 50.7684C55.394 50.477 55.8559 50.3181 56.4622 50.3181C56.953 50.3181 57.3572 50.4241 57.6748 50.6625C57.9635 50.9008 58.1368 51.2187 58.1368 51.669H57.5882C57.5882 51.3776 57.5016 51.1392 57.2995 50.9803C57.0974 50.8214 56.8375 50.7419 56.4911 50.7419C56.0291 50.7419 55.7115 50.8479 55.4806 51.0598C55.2785 51.2717 55.163 51.6425 55.163 52.1193C55.163 52.6226 55.2785 52.9669 55.4806 53.2053C55.6827 53.4172 56.0291 53.5496 56.4911 53.5496C56.8375 53.5496 57.1263 53.4702 57.3284 53.3112C57.5305 53.1523 57.6171 52.9404 57.6171 52.6226H58.1368C58.1368 53.0729 57.9924 53.3907 57.6748 53.6026C57.3861 53.8145 56.9819 53.947 56.4622 53.947C55.8848 53.9734 55.394 53.8145 55.0764 53.5232Z" fill="#3D3228"/>
<path d="M59.1761 53.5232C58.8297 53.2053 58.6853 52.755 58.6853 52.1458C58.6853 51.5366 58.8585 51.0863 59.1761 50.7684C59.5226 50.4506 59.9845 50.3181 60.5908 50.3181C61.1971 50.3181 61.6879 50.477 62.0055 50.7684C62.352 51.0863 62.4963 51.5366 62.4963 52.1458C62.4963 52.755 62.3231 53.2053 62.0055 53.4967C61.6591 53.8145 61.1971 53.947 60.5908 53.947C59.9845 53.9734 59.4937 53.8145 59.1761 53.5232ZM61.6013 53.2318C61.8323 53.0199 61.9478 52.6491 61.9478 52.1723V52.1458C61.9478 51.669 61.8323 51.2982 61.6013 51.0863C61.3704 50.8744 61.0239 50.7419 60.5908 50.7419C60.1578 50.7419 59.8113 50.8479 59.5803 51.0863C59.3494 51.2982 59.2339 51.669 59.2339 52.1458V52.1723C59.2339 52.6491 59.3494 53.0199 59.5803 53.2318C59.8113 53.4437 60.1578 53.5761 60.5908 53.5761C61.0239 53.5496 61.3704 53.4437 61.6013 53.2318Z" fill="#3D3228"/>
<path d="M63.1893 50.3976H63.9688L64.8927 52.808C64.9215 52.8874 64.9504 52.9934 65.0082 53.1258C65.037 53.2318 65.0659 53.3112 65.0659 53.3377H65.0948C65.0948 53.3112 65.1236 53.2318 65.1525 53.0993C65.1814 52.9669 65.2103 52.8874 65.2391 52.808L66.163 50.3976H66.9425V53.9205H66.4229V50.9273H66.394C66.394 50.9538 66.3651 51.0068 66.3651 51.0863C66.3362 51.1657 66.3362 51.2187 66.3074 51.2717L65.268 53.9205H64.8349L63.7956 51.2717C63.7667 51.2187 63.7667 51.1657 63.7378 51.0863C63.7089 51.0068 63.7089 50.9538 63.7089 50.9273H63.6801V53.9205H63.1893V50.3976Z" fill="#3D3228"/>
<path d="M67.8664 50.3976H69.7431C70.1184 50.3976 70.436 50.5035 70.6381 50.6889C70.8402 50.8744 70.9557 51.1392 70.9557 51.4571C70.9557 51.8014 70.8402 52.0663 70.6381 52.2517C70.436 52.4636 70.1184 52.5431 69.772 52.5431H68.4439V53.894H67.9242V50.3976H67.8664ZM69.7142 52.1193C69.9163 52.1193 70.0895 52.0663 70.205 51.9339C70.3205 51.8014 70.3783 51.6425 70.3783 51.4571C70.3783 51.2452 70.3205 51.0863 70.205 50.9803C70.0895 50.8744 69.9163 50.8214 69.6853 50.8214H68.3861V52.1458H69.7142V52.1193Z" fill="#3D3228"/>
<path d="M72.2838 50.3976H72.9478L74.4491 53.9205H73.8717L73.4964 52.9669H71.7063L71.331 53.9205H70.7825L72.2838 50.3976ZM73.3231 52.5431L72.8612 51.4306L72.6014 50.7949H72.5725L72.3126 51.4306L71.8507 52.5431H73.3231Z" fill="#3D3228"/>
<path d="M74.9111 50.3976H75.4019L77.4229 52.8345L77.5672 52.9934H77.5961V50.3976H78.0869V53.9205H77.625L75.604 51.4306L75.4307 51.2452V53.9205H74.9111V50.3976Z" fill="#3D3228"/>
<path d="M80.1368 52.4371L78.6066 50.3711H79.2707L80.3966 51.9869H80.4255L81.5804 50.3711H82.1867L80.6565 52.4371V53.9205H80.1368V52.4371Z" fill="#3D3228"/>
<path d="M22.7732 40.9204C23.384 42.4387 24.1984 43.0292 24.8092 43.0573V43.7321C23.1513 43.6758 20.7955 43.6477 18.5269 43.6477C16.2001 43.6477 13.9606 43.6758 12.7391 43.7321V43.0573C14.3678 43.001 15.1531 42.748 15.1531 41.8483C15.1531 41.4547 15.0076 40.9486 14.7459 40.2738L12.6809 34.8192H5.75875L5.17706 36.3094C4.39177 38.2213 4.04276 39.6271 4.04276 40.6112C4.04276 42.5512 5.32248 42.9729 7.15481 43.0292V43.704C5.43882 43.6477 4.21727 43.6196 2.6467 43.6196C1.74508 43.6196 0.668946 43.6477 0 43.704V43.0292C1.04705 42.8605 2.06501 41.9045 3.17022 39.121L10.8195 20.1426C11.3721 20.1988 12.0119 20.1988 12.6227 20.1988C13.2335 20.1988 13.8733 20.1707 14.426 20.1426L22.7732 40.9204ZM9.33615 25.7939L6.02051 34.1163H12.4482L9.33615 25.7939Z" fill="#3D3228"/>
<path d="M51.2761 42.3825C49.851 43.7602 48.2223 44.1819 46.1282 44.1819C43.1325 44.1819 41.242 43.3103 40.8057 40.5831L40.2822 37.2653C39.875 34.5381 39.2933 32.5418 37.5482 32.5418H35.9776V40.1894C35.9776 42.6074 36.3557 42.9448 38.4208 43.0573V43.7321C37.0829 43.6758 34.8143 43.6477 32.662 43.6477C30.1607 43.6477 27.834 43.6758 26.5251 43.7321V43.0573C28.6192 42.9729 28.9683 42.6074 28.9683 40.1894V23.6571C28.9683 21.2391 28.5902 20.9017 26.5251 20.7892V20.1426C27.834 20.1988 30.2771 20.2269 32.4584 20.2269C34.7561 20.2269 37.1119 20.1707 37.9845 20.1707C44.9648 20.1707 48.3677 22.0264 48.3677 25.9626C48.3677 28.8867 46.5063 31.8108 39.9331 32.4012C44.6449 32.6543 46.9134 34.032 47.4661 36.7311L48.1932 40.1894C48.5422 41.8483 48.9494 42.3544 49.7347 42.3544C50.1709 42.3544 50.4909 42.2138 50.7817 41.9045L51.2761 42.3825ZM35.9776 23.6571V31.8389H36.9084C40.4276 31.8389 41.1547 29.3647 41.1547 26.3C41.1547 22.8136 40.2822 20.7611 37.8391 20.7611C36.2976 20.7892 35.9776 21.3797 35.9776 23.6571Z" fill="#3D3228"/>
<path d="M64.975 20.7892C62.8809 20.8736 62.5319 21.2391 62.5319 23.6571V40.1613C62.5319 42.5793 62.91 42.9167 64.975 43.0292V43.704C63.6371 43.6477 61.3685 43.6196 59.2162 43.6196C56.715 43.6196 54.3882 43.6477 53.0794 43.704V43.0292C55.1735 42.9448 55.5225 42.5793 55.5225 40.1613V23.6571C55.5225 21.2391 55.1444 20.9017 53.0794 20.7892V20.1426C54.3882 20.1988 56.744 20.2269 59.2162 20.2269C61.3394 20.2269 63.608 20.1988 64.975 20.1426V20.7892Z" fill="#3D3228"/>
<path d="M88.5626 43.704C86.2358 43.6196 82.9783 43.6196 80.6807 43.6196C78.2085 43.6196 72.6242 43.6196 68.6396 43.704V43.0292C70.7337 42.9448 71.0827 42.5793 71.0827 40.1613V23.6571C71.0827 21.2391 70.7046 20.9017 68.6396 20.7892V20.1426C72.6242 20.2269 78.2085 20.2269 80.6807 20.2269C82.7747 20.2269 85.7414 20.2269 87.8646 20.1426C87.69 22.3637 87.6319 24.6412 87.6319 25.7377C87.6319 26.6655 87.661 27.5652 87.7191 28.1557H86.9338C86.0904 22.6168 83.4146 20.9017 80.5934 20.9017H80.1281C78.3539 20.9017 78.034 21.1829 78.034 23.0104V31.5296H78.383C80.9715 31.5296 82.6584 29.0835 83.0656 27.1435H83.8509C83.7636 28.6055 83.7055 29.5896 83.7055 30.3769C83.7055 30.9392 83.7345 31.3891 83.7345 31.867C83.7345 32.9636 83.7927 34.0601 83.9672 36.5906H83.1819C82.7748 34.1163 80.9715 32.1763 78.383 32.1763H78.034V40.8361C78.034 42.6637 78.3539 42.9448 80.1281 42.9448H81.2624C83.531 42.9448 86.4976 41.0891 87.6028 35.0723H88.3881C88.3299 35.8595 88.3008 36.9279 88.3008 38.1369C88.3299 39.2054 88.3299 41.5109 88.5626 43.704Z" fill="#3D3228"/>
<path d="M107.729 20.9861C108.282 21.2953 108.573 21.464 108.893 21.464C109.358 21.464 109.503 20.9579 109.649 20.002H110.434C110.347 21.4359 110.26 23.1229 110.26 28.1276H109.474C109.213 24.4443 107.06 20.5643 103.483 20.5643C101.476 20.5643 99.9638 21.6608 99.9638 23.6571C99.9638 26.1313 101.709 27.1154 106.042 30.0395C109.096 32.092 111.627 33.9476 111.627 37.5746C111.627 42.0732 107.293 44.1819 102.261 44.1819C99.1203 44.1819 97.4334 43.5353 96.1537 42.9448C95.6011 42.6074 95.252 42.4668 94.9903 42.4668C94.5249 42.4668 94.3795 42.9729 94.205 43.9289H93.4197C93.507 42.2419 93.5651 39.9926 93.5651 34.285H94.3504C94.6122 38.9804 96.2118 43.1697 100.604 43.1697C103.134 43.1697 104.734 41.9889 104.734 39.9083C104.734 37.1529 102.64 35.5503 99.702 33.6383C96.4445 31.5296 93.5942 29.6177 93.5942 25.9345C93.5942 21.5765 97.6661 19.6365 102.116 19.6365C105.112 19.6646 106.566 20.3675 107.729 20.9861Z" fill="#3D3228"/>
</g>
<defs>
<linearGradient id="paint0_linear_1854_10134" x1="150.87" y1="19.949" x2="150.87" y2="3.78341" gradientUnits="userSpaceOnUse">
<stop stop-color="#3D3228"/>
<stop offset="1" stop-color="#3D3228" stop-opacity="0"/>
</linearGradient>
<linearGradient id="paint1_linear_1854_10134" x1="150.87" y1="16.8536" x2="150.87" y2="0.85998" gradientUnits="userSpaceOnUse">
<stop stop-color="#3D3228"/>
<stop offset="1" stop-color="#3D3228" stop-opacity="0"/>
</linearGradient>
<linearGradient id="paint2_linear_1854_10134" x1="150.87" y1="13.758" x2="150.87" y2="-0.515924" gradientUnits="userSpaceOnUse">
<stop stop-color="#3D3228"/>
<stop offset="1" stop-color="#3D3228" stop-opacity="0"/>
</linearGradient>
<clipPath id="clip0_1854_10134">
<rect width="184" height="54" fill="white"/>
</clipPath>
</defs>
</svg>
