<svg width="184" height="54" viewBox="0 0 184 54" fill="none" xmlns="http://www.w3.org/2000/svg">
<g clip-path="url(#clip0_74_21552)">
<path d="M184 19.4675C184 19.5019 184 19.5019 184 19.5363C184 19.5707 184 19.5707 184 19.6051C184 19.6739 183.931 19.7426 183.896 19.777C183.828 19.8114 183.759 19.8458 183.69 19.8458H150.973H118.221C118.153 19.8458 118.084 19.8114 118.015 19.777C117.946 19.7426 117.912 19.6739 117.912 19.6051C117.912 19.6051 117.912 19.5707 117.912 19.5363C117.912 19.5363 117.912 19.5019 117.912 19.4675C117.912 19.4331 117.946 19.3987 117.946 19.3643C117.981 19.2955 118.05 19.2611 118.118 19.2267C129.081 14.8242 140.044 10.456 150.973 6.05347C161.936 10.456 172.899 14.8242 183.828 19.2267C183.896 19.2611 183.965 19.2955 184 19.3643C184 19.3987 184 19.4331 184 19.4675ZM132.655 17.2318H169.222L150.939 9.9057L132.655 17.2318Z" fill="url(#paint0_linear_74_21552)"/>
<path d="M184 16.4409C184 16.4409 184 16.4753 184 16.5097C184 16.5097 184 16.5441 184 16.5784C184 16.6472 183.931 16.716 183.896 16.7504C183.828 16.7848 183.759 16.8192 183.69 16.8192H150.973H118.221C118.153 16.8192 118.084 16.7848 118.015 16.7504C117.946 16.716 117.912 16.6472 117.912 16.5784C117.912 16.5441 117.912 16.5441 117.912 16.5097C117.912 16.4753 117.912 16.4753 117.912 16.4409C117.912 16.4065 117.946 16.3721 117.946 16.3377C117.981 16.2689 118.05 16.2345 118.118 16.2001C129.081 11.7976 140.044 7.4294 150.973 3.02686C161.936 7.4294 172.899 11.7976 183.828 16.2001C183.896 16.2345 183.965 16.2689 184 16.3377C184 16.3721 184 16.4065 184 16.4409ZM132.655 14.2052H169.222L150.939 6.87908L132.655 14.2052Z" fill="url(#paint1_linear_74_21552)"/>
<path d="M184 13.414C184 13.4484 184 13.4484 184 13.4828C184 13.5172 184 13.5172 184 13.5516C184 13.6204 183.931 13.6892 183.896 13.7236C183.828 13.758 183.759 13.7924 183.69 13.7924H150.973H118.221C118.153 13.7924 118.084 13.758 118.015 13.7236C117.946 13.6892 117.912 13.6204 117.912 13.5516C117.912 13.5516 117.912 13.5172 117.912 13.4828C117.912 13.4828 117.912 13.4484 117.912 13.414C117.912 13.3796 117.946 13.3452 117.946 13.3108C117.981 13.242 118.05 13.2076 118.118 13.1732C129.081 8.7707 140.044 4.40255 150.973 0C161.936 4.40255 172.899 8.7707 183.828 13.1732C183.896 13.2076 183.965 13.242 184 13.3108C184 13.3452 184 13.3796 184 13.414ZM132.655 11.2127H169.222L150.939 3.88662L132.655 11.2127Z" fill="url(#paint2_linear_74_21552)"/>
<path d="M184 19.5708V20.0179C184 20.6714 183.725 21.3249 183.278 21.7721C182.797 22.2536 182.178 22.4944 181.525 22.4944H120.387C119.734 22.4944 119.081 22.2192 118.634 21.7721C118.153 21.3249 117.912 20.6714 117.912 20.0179V19.5708C117.912 19.6396 117.981 19.7084 118.015 19.7428C118.084 19.7772 118.153 19.8116 118.221 19.8116H150.939H183.69C183.759 19.8116 183.828 19.7772 183.896 19.7428C183.931 19.7084 184 19.6396 184 19.5708Z" fill="#3D3228"/>
<path d="M183.45 26.7936V31.3337L180.838 32.228V31.7464C180.838 31.4025 180.7 31.0585 180.46 30.8178C180.219 30.577 179.876 30.4394 179.532 30.4394C179.188 30.4394 178.845 30.577 178.604 30.8178C178.363 31.0585 178.226 31.4025 178.226 31.7464V33.1222L175.614 34.0165V31.7464C175.614 31.4025 175.477 31.0585 175.236 30.8178C174.995 30.577 174.652 30.4394 174.308 30.4394C173.964 30.4394 173.621 30.577 173.38 30.8178C173.14 31.0585 173.002 31.4025 173.002 31.7464V34.9452L170.39 35.8394V33.0534C170.39 32.6407 170.356 32.228 170.253 31.8152C170.184 31.3681 170.047 30.9554 169.875 30.5426C169.531 29.7515 169.05 29.0292 168.466 28.4445C167.847 27.8254 167.16 27.3783 166.369 27.0343C165.957 26.8624 165.545 26.7248 165.098 26.656C164.685 26.5872 164.273 26.5528 163.861 26.5528C163.448 26.5528 163.036 26.5872 162.623 26.656C162.211 26.7248 161.764 26.8624 161.352 27.0343C160.561 27.3783 159.84 27.8598 159.255 28.4445C158.637 29.0636 158.19 29.7515 157.846 30.5426C157.675 30.9554 157.572 31.3681 157.468 31.8152C157.4 32.228 157.365 32.6407 157.365 33.0534V40.3796L154.753 41.2738V31.7464C154.753 31.4025 154.616 31.0585 154.375 30.8178C154.135 30.577 153.791 30.4394 153.447 30.4394C153.104 30.4394 152.76 30.577 152.52 30.8178C152.279 31.0585 152.142 31.4025 152.142 31.7464V42.2025L149.53 43.0968V31.7464C149.53 31.4025 149.392 31.0585 149.152 30.8178C148.911 30.577 148.567 30.4394 148.224 30.4394C147.88 30.4394 147.536 30.577 147.296 30.8178C147.055 31.0585 146.918 31.4025 146.918 31.7464V44.0254L144.306 44.9197V33.0534C144.306 32.6407 144.272 32.228 144.203 31.8152C144.134 31.3681 143.997 30.9554 143.825 30.5426C143.481 29.7515 143.034 29.0292 142.416 28.4445C141.797 27.8254 141.11 27.3783 140.319 27.0343C139.907 26.8624 139.495 26.7248 139.048 26.656C138.635 26.5872 138.223 26.5528 137.811 26.5528C137.398 26.5528 136.986 26.5872 136.573 26.656C136.161 26.7248 135.714 26.8624 135.302 27.0343C134.511 27.3783 133.79 27.8598 133.205 28.4445C132.587 29.0636 132.106 29.7515 131.796 30.5426C131.625 30.9554 131.487 31.3681 131.418 31.8152C131.35 32.228 131.315 32.6407 131.315 33.0534V49.4598L128.703 50.3541V31.7464C128.703 31.4025 128.566 31.0585 128.325 30.8178C128.085 30.577 127.741 30.4394 127.397 30.4394C127.054 30.4394 126.71 30.577 126.47 30.8178C126.229 31.0585 126.091 31.4025 126.091 31.7464V51.2483L123.48 52.1426V31.7464C123.48 31.4025 123.342 31.0585 123.102 30.8178C122.861 30.577 122.517 30.4394 122.174 30.4394C121.83 30.4394 121.486 30.577 121.246 30.8178C121.005 31.0585 120.868 31.4025 120.868 31.7464V53.0713L118.256 53.9655V26.7936C118.256 26.1401 118.531 25.4866 118.978 25.0394C119.459 24.5579 120.077 24.3171 120.73 24.3171H150.733H180.735C181.388 24.3171 182.041 24.5923 182.487 25.0394C183.175 25.4866 183.45 26.1057 183.45 26.7936Z" fill="#3D3228"/>
<path d="M45.7856 49.0799H43.918V48.4023H48.4412V49.0799H46.5443V53.9115H45.7856V49.0799Z" fill="#3D3228"/>
<path d="M52.0597 48.4023C52.6142 48.4023 53.0227 48.5496 53.3145 48.8147C53.6063 49.1093 53.7523 49.4629 53.7523 49.9637C53.7523 50.3467 53.6647 50.6708 53.4896 50.9359C53.3145 51.2011 53.0811 51.4073 52.7601 51.5252L54.0149 53.9115H53.1686L51.9722 51.643H49.9586V53.9115H49.1999V48.4023H52.0597ZM52.0305 50.9654C52.3223 50.9654 52.5558 50.877 52.7309 50.7002C52.906 50.5235 52.9935 50.2878 52.9935 49.9637C52.9935 49.6691 52.906 49.4629 52.7601 49.2861C52.6142 49.1093 52.3515 49.0504 52.0305 49.0504H49.9878V50.9359H52.0305V50.9654Z" fill="#3D3228"/>
<path d="M55.5324 53.4696C55.153 53.1161 54.9487 52.5858 54.9487 51.8787V48.4023H55.7074V51.9082C55.7074 52.3795 55.8242 52.7331 56.0868 52.9688C56.3494 53.2045 56.6996 53.3223 57.1665 53.3223C57.6334 53.3223 58.0128 53.2045 58.2754 52.9393C58.5381 52.7036 58.6548 52.3501 58.6548 51.8787V48.4023H59.4135V51.8787C59.4135 52.5858 59.2093 53.1455 58.8299 53.4696C58.4505 53.8231 57.8961 53.9999 57.1665 53.9999C56.4662 53.9999 55.9409 53.8231 55.5324 53.4696Z" fill="#3D3228"/>
<path d="M61.0769 53.5875C60.6684 53.3223 60.4641 52.9098 60.4641 52.3501V52.2028H61.2228C61.2228 52.2028 61.2228 52.2322 61.2228 52.2617C61.2228 52.2912 61.2228 52.3206 61.2228 52.3795C61.2228 52.7036 61.3687 52.9393 61.6314 53.1161C61.894 53.2928 62.2442 53.3812 62.7111 53.3812C63.2072 53.3812 63.5865 53.2928 63.8492 53.1455C64.1118 52.9982 64.2577 52.7625 64.2577 52.4679C64.2577 52.2617 64.1994 52.1144 64.0535 51.9671C63.9075 51.8492 63.7325 51.7314 63.5282 51.6725C63.3239 51.5841 63.0321 51.5252 62.6819 51.4368C62.2442 51.3189 61.894 51.2305 61.6314 51.1127C61.3687 50.9949 61.1353 50.8476 60.931 50.6413C60.7267 50.4351 60.6392 50.1699 60.6392 49.8164C60.6392 49.345 60.8435 48.962 61.2228 48.7263C61.6314 48.4612 62.1275 48.3433 62.7403 48.3433C63.3531 48.3433 63.8492 48.4612 64.2577 48.7263C64.6371 48.9915 64.8414 49.3745 64.8414 49.9048V49.9932H64.1118V49.8753C64.1118 49.6102 63.9951 49.3745 63.7325 49.2272C63.499 49.0799 63.178 48.9915 62.7695 48.9915C62.3609 48.9915 62.0107 49.0504 61.7773 49.1977C61.5146 49.3156 61.3979 49.5218 61.3979 49.7869C61.3979 49.9637 61.4563 50.1405 61.6022 50.2583C61.7481 50.3762 61.894 50.4646 62.0983 50.5529C62.3025 50.6119 62.5652 50.7002 62.9154 50.7886C63.3531 50.9065 63.7033 51.0243 63.9951 51.1127C64.2869 51.2305 64.5204 51.3779 64.6955 51.5841C64.8997 51.7903 64.9873 52.0555 64.9873 52.3795C64.9873 52.9688 64.783 53.3812 64.3745 53.6758C63.9659 53.941 63.4115 54.0883 62.7403 54.0883C62.0399 53.9999 61.5146 53.8526 61.0769 53.5875Z" fill="#3D3228"/>
<path d="M67.4094 49.0799H65.5417V48.4023H70.0357V49.0799H68.1681V53.9115H67.4094V49.0799Z" fill="#3D3228"/>
<path d="M73.3333 53.2928C72.8956 52.8215 72.6621 52.1144 72.6621 51.1422C72.6621 50.1994 72.8956 49.4923 73.3333 48.9915C73.771 48.5201 74.4422 48.2844 75.3177 48.2844C76.018 48.2844 76.6017 48.4612 77.0102 48.8147C77.4479 49.1683 77.6522 49.6986 77.6522 50.3762H76.8935C76.8935 49.9048 76.7476 49.5513 76.4849 49.3156C76.1931 49.0799 75.8138 48.962 75.3177 48.962C74.6757 48.962 74.2087 49.1388 73.9169 49.4629C73.6251 49.8164 73.45 50.3467 73.45 51.1422V51.1716C73.45 51.9376 73.5959 52.4974 73.9169 52.8509C74.2379 53.2045 74.7048 53.3812 75.3468 53.3812C75.8429 53.3812 76.2515 53.2634 76.5141 53.0277C76.8059 52.792 76.9518 52.4385 76.9518 51.9671H77.6814C77.6814 52.6447 77.4771 53.175 77.0394 53.5285C76.6017 53.8821 76.0472 54.0588 75.3177 54.0588C74.413 53.9999 73.771 53.7642 73.3333 53.2928Z" fill="#3D3228"/>
<path d="M79.0821 53.2928C78.6152 52.8215 78.3818 52.1144 78.3818 51.1716C78.3818 50.2289 78.6152 49.5218 79.0821 49.0504C79.549 48.579 80.2202 48.3433 81.0957 48.3433C81.9711 48.3433 82.6423 48.579 83.1092 49.0504C83.5761 49.5218 83.8096 50.2289 83.8096 51.1716C83.8096 52.1144 83.5761 52.8215 83.1092 53.2928C82.6423 53.7642 81.9711 53.9999 81.0957 53.9999C80.2494 53.9999 79.5782 53.7642 79.0821 53.2928ZM82.5548 52.8215C82.8758 52.4679 83.0508 51.9376 83.0508 51.1716V51.1422C83.0508 50.3762 82.8758 49.8164 82.5548 49.4629C82.2338 49.1093 81.7377 48.9326 81.1248 48.9326C80.512 48.9326 80.0159 49.1093 79.6949 49.4629C79.3739 49.8164 79.1988 50.3762 79.1988 51.1422V51.1716C79.1988 51.9376 79.3739 52.4679 79.6949 52.8215C80.0159 53.175 80.512 53.3518 81.1248 53.3518C81.7377 53.3518 82.2046 53.175 82.5548 52.8215Z" fill="#3D3228"/>
<path d="M84.8309 48.4023H85.9399L87.253 52.1439C87.3114 52.2912 87.3406 52.4385 87.3989 52.6152C87.4573 52.792 87.4865 52.9098 87.4865 52.9688H87.5157C87.5449 52.9098 87.574 52.792 87.6032 52.5858C87.6616 52.409 87.6908 52.2322 87.7491 52.1144L89.0623 48.3728H90.1712V53.8821H89.4125V50.2583L89.4417 49.2272H89.3833C89.3833 49.2566 89.3541 49.345 89.325 49.4629C89.2958 49.5807 89.2666 49.6691 89.2374 49.7575L87.7491 53.8821H87.1071L85.648 49.7575C85.6189 49.6691 85.5897 49.5807 85.5605 49.4629C85.5313 49.345 85.5021 49.2566 85.5021 49.2272L85.5313 50.2583V53.8821H84.8309V48.4023Z" fill="#3D3228"/>
<path d="M91.426 48.4023H94.0816C94.636 48.4023 95.0446 48.5496 95.3364 48.8736C95.6282 49.1683 95.7741 49.5807 95.7741 50.0816C95.7741 50.6119 95.6282 51.0243 95.3072 51.3189C95.0154 51.643 94.5777 51.7903 94.0816 51.7903H92.1848V53.9115H91.426V48.4023ZM94.0524 51.1127C94.3442 51.1127 94.5777 51.0243 94.7528 50.8181C94.9279 50.6413 95.0154 50.3762 95.0154 50.0521C95.0154 49.728 94.9279 49.4629 94.782 49.2861C94.6069 49.1093 94.3734 49.021 94.0524 49.021H92.1848V51.0832H94.0524V51.1127Z" fill="#3D3228"/>
<path d="M97.671 48.4023H98.634L100.735 53.9115H99.9472L99.3927 52.4385H96.8831L96.3578 53.9115H95.5699L97.671 48.4023ZM99.1592 51.7609L98.5172 50.0521L98.1379 49.0504H98.1087L97.7585 50.0226L97.1165 51.7609H99.1592Z" fill="#3D3228"/>
<path d="M101.435 48.4023H102.107L104.996 52.2322L105.171 52.4974L105.2 52.4679V48.4023H105.9V53.9115H105.258L102.369 50.0226L102.165 49.728L102.136 49.7575V53.9115H101.435V48.4023Z" fill="#3D3228"/>
<path d="M108.818 51.6135L106.659 48.4023H107.593L109.198 50.9065H109.227L110.861 48.4023H111.707L109.577 51.6135V53.9115H108.818V51.6135Z" fill="#3D3228"/>
<path d="M22.8494 41.2726C23.4622 42.8636 24.2793 43.4822 24.8921 43.5117V44.2188C23.2288 44.1599 20.865 44.1304 18.5888 44.1304C16.2543 44.1304 14.0073 44.1599 12.7817 44.2188V43.5117C14.4158 43.4528 15.2038 43.1876 15.2038 42.2449C15.2038 41.8324 15.0578 41.3021 14.7952 40.595L12.7233 34.8795H5.77801L5.19437 36.441C4.40646 38.4444 4.05628 39.9174 4.05628 40.9486C4.05628 42.9814 5.34028 43.4233 7.17874 43.4822V44.1893C5.45701 44.1304 4.23137 44.1009 2.65555 44.1009C1.75091 44.1009 0.671183 44.1304 0 44.1893V43.4822C1.05055 43.3055 2.07191 42.3038 3.18082 39.3871L10.8557 19.5008C11.4101 19.5597 12.0521 19.5597 12.6649 19.5597C13.2777 19.5597 13.9197 19.5302 14.4742 19.5008L22.8494 41.2726ZM9.36738 25.4225L6.04065 34.143H12.4898L9.36738 25.4225Z" fill="#3D3228"/>
<path d="M51.4476 42.8046C50.0177 44.2482 48.3835 44.6902 46.2824 44.6902C43.2767 44.6902 41.3799 43.7769 40.9422 40.9191L40.4169 37.4427C40.0083 34.5849 39.4247 32.4932 37.6738 32.4932H36.098V40.5067C36.098 43.0403 36.4773 43.3939 38.5492 43.5117V44.2188C37.2069 44.1599 34.9307 44.1304 32.7712 44.1304C30.2616 44.1304 27.927 44.1599 26.6139 44.2188V43.5117C28.715 43.4233 29.0651 43.0403 29.0651 40.5067V23.1834C29.0651 20.6498 28.6858 20.2962 26.6139 20.1784V19.5008C27.927 19.5597 30.3783 19.5891 32.567 19.5891C34.8723 19.5891 37.2361 19.5302 38.1115 19.5302C45.1152 19.5302 48.5294 21.4747 48.5294 25.5992C48.5294 28.6632 46.6618 31.7272 40.0667 32.3459C44.7942 32.611 47.0704 34.0546 47.6248 36.8829L48.3544 40.5067C48.7045 42.2449 49.1131 42.7752 49.901 42.7752C50.3387 42.7752 50.6597 42.6279 50.9515 42.3038L51.4476 42.8046ZM36.098 23.1834V31.7567H37.0318C40.5628 31.7567 41.2923 29.1641 41.2923 25.9528C41.2923 22.2996 40.4169 20.1489 37.9656 20.1489C36.419 20.1784 36.098 20.7971 36.098 23.1834Z" fill="#3D3228"/>
<path d="M65.1923 20.1784C63.0912 20.2668 62.741 20.6498 62.741 23.1834V40.4772C62.741 43.0109 63.1204 43.3644 65.1923 43.4822V44.1893C63.8499 44.1304 61.5737 44.1009 59.4143 44.1009C56.9046 44.1009 54.5701 44.1304 53.2569 44.1893V43.4822C55.358 43.3939 55.7082 43.0109 55.7082 40.4772V23.1834C55.7082 20.6498 55.3288 20.2962 53.2569 20.1784V19.5008C54.5701 19.5597 56.9338 19.5891 59.4143 19.5891C61.5446 19.5891 63.8207 19.5597 65.1923 19.5008V20.1784Z" fill="#3D3228"/>
<path d="M88.8588 44.1893C86.5242 44.1009 83.2559 44.1009 80.9505 44.1009C78.47 44.1009 72.8671 44.1009 68.8692 44.1893V43.4822C70.9703 43.3939 71.3205 43.0109 71.3205 40.4772V23.1834C71.3205 20.6498 70.9411 20.2962 68.8692 20.1784V19.5008C72.8671 19.5891 78.47 19.5891 80.9505 19.5891C83.0516 19.5891 86.0281 19.5891 88.1584 19.5008C87.9833 21.8282 87.925 24.2146 87.925 25.3636C87.925 26.3358 87.9541 27.2785 88.0125 27.8972H87.2246C86.3783 22.0934 83.6936 20.2962 80.863 20.2962H80.396C78.616 20.2962 78.2949 20.5908 78.2949 22.5058V31.4326H78.6451C81.2423 31.4326 82.9349 28.8694 83.3434 26.8366H84.1313C84.0438 28.3686 83.9854 29.3998 83.9854 30.2247C83.9854 30.8139 84.0146 31.2853 84.0146 31.7861C84.0146 32.9351 84.073 34.0841 84.248 36.7356H83.4601C83.0516 34.143 81.2423 32.1102 78.6451 32.1102H78.2949V41.1843C78.2949 43.0992 78.616 43.3939 80.396 43.3939H81.5341C83.8103 43.3939 86.7869 41.4494 87.8958 35.1447H88.6837C88.6253 35.9696 88.5961 37.0891 88.5961 38.356C88.6253 39.4755 88.6253 41.8913 88.8588 44.1893Z" fill="#3D3228"/>
<path d="M108.09 20.3846C108.644 20.7087 108.936 20.8854 109.257 20.8854C109.724 20.8854 109.87 20.3551 110.016 19.3535H110.804C110.716 20.856 110.628 22.6237 110.628 27.8678H109.841C109.578 24.0083 107.418 19.9427 103.829 19.9427C101.816 19.9427 100.298 21.0917 100.298 23.1834C100.298 25.776 102.049 26.8072 106.397 29.8711C109.461 32.0218 112 33.9662 112 37.7668C112 42.4806 107.652 44.6902 102.603 44.6902C99.4518 44.6902 97.7593 44.0125 96.4753 43.3939C95.9208 43.0403 95.5706 42.893 95.308 42.893C94.8411 42.893 94.6952 43.4233 94.5201 44.425H93.7322C93.8197 42.6573 93.8781 40.3004 93.8781 34.3198H94.666C94.9286 39.2398 96.5336 43.6295 100.94 43.6295C103.479 43.6295 105.084 42.3922 105.084 40.212C105.084 37.3248 102.983 35.6455 100.035 33.6422C96.7671 31.4326 93.9072 29.4292 93.9072 25.5698C93.9072 21.0033 97.9927 18.9705 102.458 18.9705C105.463 18.9999 106.922 19.7365 108.09 20.3846Z" fill="#3D3228"/>
</g>
<defs>
<linearGradient id="paint0_linear_74_21552" x1="150.87" y1="19.949" x2="150.87" y2="3.78341" gradientUnits="userSpaceOnUse">
<stop stop-color="#3D3228"/>
<stop offset="1" stop-color="#3D3228" stop-opacity="0"/>
</linearGradient>
<linearGradient id="paint1_linear_74_21552" x1="150.87" y1="16.8536" x2="150.87" y2="0.85998" gradientUnits="userSpaceOnUse">
<stop stop-color="#3D3228"/>
<stop offset="1" stop-color="#3D3228" stop-opacity="0"/>
</linearGradient>
<linearGradient id="paint2_linear_74_21552" x1="150.87" y1="13.758" x2="150.87" y2="-0.515924" gradientUnits="userSpaceOnUse">
<stop stop-color="#3D3228"/>
<stop offset="1" stop-color="#3D3228" stop-opacity="0"/>
</linearGradient>
<clipPath id="clip0_74_21552">
<rect width="184" height="54" fill="white"/>
</clipPath>
</defs>
</svg>
