<svg width="25" height="24" viewBox="0 0 25 24" fill="none" xmlns="http://www.w3.org/2000/svg">
<path fill-rule="evenodd" clip-rule="evenodd" d="M12.25 24C18.8774 24 24.25 18.6274 24.25 12C24.25 5.37258 18.8774 0 12.25 0C5.62258 0 0.25 5.37258 0.25 12C0.25 18.6274 5.62258 24 12.25 24ZM8.25195 8.50025C8.25195 6.84339 9.5951 5.50024 11.252 5.50024H13.752C15.4088 5.50024 16.752 6.84339 16.752 8.50024V15.5336C16.752 17.1904 15.4088 18.5336 13.752 18.5336H11.252C9.5951 18.5336 8.25195 17.1904 8.25195 15.5336V8.50025ZM11.6519 16.5502C11.6519 15.9243 12.1593 15.4169 12.7852 15.4169C13.4111 15.4169 13.9185 15.9243 13.9185 16.5502C13.9185 17.1761 13.4111 17.6835 12.7852 17.6835C12.1593 17.6835 11.6519 17.1761 11.6519 16.5502Z" fill="url(#paint0_linear_148_535)"/>
<defs>
<linearGradient id="paint0_linear_148_535" x1="-0.72826" y1="11.6907" x2="24.25" y2="11.6907" gradientUnits="userSpaceOnUse">
<stop stop-color="#BE9D66"/>
<stop offset="1" stop-color="#E8D2A3"/>
</linearGradient>
</defs>
</svg>
