<svg width="25" height="24" viewBox="0 0 25 24" fill="none" xmlns="http://www.w3.org/2000/svg">
<path fill-rule="evenodd" clip-rule="evenodd" d="M12.75 24C19.3774 24 24.75 18.6274 24.75 12C24.75 5.37258 19.3774 0 12.75 0C6.12258 0 0.75 5.37258 0.75 12C0.75 18.6274 6.12258 24 12.75 24ZM8.75195 8.50025C8.75195 6.84339 10.0951 5.50024 11.752 5.50024H14.252C15.9088 5.50024 17.252 6.84339 17.252 8.50024V15.5336C17.252 17.1904 15.9088 18.5336 14.252 18.5336H11.752C10.0951 18.5336 8.75195 17.1904 8.75195 15.5336V8.50025ZM12.1519 16.5502C12.1519 15.9243 12.6593 15.4169 13.2852 15.4169C13.9111 15.4169 14.4185 15.9243 14.4185 16.5502C14.4185 17.1761 13.9111 17.6835 13.2852 17.6835C12.6593 17.6835 12.1519 17.1761 12.1519 16.5502Z" fill="#3D3228"/>
</svg>
