<svg width="32" height="32" viewBox="0 0 32 32" fill="none" xmlns="http://www.w3.org/2000/svg">
<rect x="0.5" y="0.5" width="31" height="31" rx="11.5" fill="url(#paint0_linear_53_19695)" stroke="#3B5649"/>
<path fill-rule="evenodd" clip-rule="evenodd" d="M9.99935 16.4998C9.99935 13.1861 12.6856 10.4998 15.9993 10.4998C19.3131 10.4998 21.9993 13.1861 21.9993 16.4998C21.9993 19.8135 19.3131 22.4998 15.9993 22.4998C12.6856 22.4998 9.99935 19.8135 9.99935 16.4998ZM15.9993 9.1665C11.9493 9.1665 8.66602 12.4497 8.66602 16.4998C8.66602 20.5499 11.9493 23.8332 15.9993 23.8332C20.0494 23.8332 23.3327 20.5499 23.3327 16.4998C23.3327 12.4497 20.0494 9.1665 15.9993 9.1665ZM13.8613 13.3618C14.1216 13.1014 14.5437 13.1014 14.8041 13.3618L15.9993 14.557L17.1946 13.3618C17.455 13.1014 17.8771 13.1014 18.1374 13.3618C18.3978 13.6221 18.3978 14.0442 18.1374 14.3046L17.2755 15.1665H17.9993C18.3675 15.1665 18.666 15.465 18.666 15.8332C18.666 16.2014 18.3675 16.4998 17.9993 16.4998H16.666V17.1665H17.9993C18.3675 17.1665 18.666 17.465 18.666 17.8332C18.666 18.2014 18.3675 18.4998 17.9993 18.4998H16.666V19.1665C16.666 19.5347 16.3675 19.8332 15.9993 19.8332C15.6312 19.8332 15.3327 19.5347 15.3327 19.1665V18.4998H13.9993C13.6312 18.4998 13.3327 18.2014 13.3327 17.8332C13.3327 17.465 13.6312 17.1665 13.9993 17.1665H15.3327V16.4998H13.9993C13.6312 16.4998 13.3327 16.2014 13.3327 15.8332C13.3327 15.465 13.6312 15.1665 13.9993 15.1665H14.7232L13.8613 14.3046C13.6009 14.0442 13.6009 13.6221 13.8613 13.3618Z" fill="#C2D7C7" fill-opacity="0.963"/>
<defs>
<linearGradient id="paint0_linear_53_19695" x1="16" y1="0" x2="16" y2="32" gradientUnits="userSpaceOnUse">
<stop stop-color="#3B5649"/>
<stop offset="1" stop-color="#32473D"/>
</linearGradient>
</defs>
</svg>
