<svg width="156" height="52" viewBox="0 0 156 52" fill="none" xmlns="http://www.w3.org/2000/svg">
<g clip-path="url(#clip0_140_23448)">
<path d="M140 20.9783C140 21.0012 140 21.0012 140 21.0242C140 21.0471 140 21.0471 140 21.07C140 21.1159 139.954 21.1618 139.931 21.1847C139.884 21.2076 139.838 21.2305 139.792 21.2305H117.743H95.6713C95.625 21.2305 95.5787 21.2076 95.5324 21.1847C95.486 21.1618 95.4629 21.1159 95.4629 21.07C95.4629 21.07 95.4629 21.0471 95.4629 21.0242C95.4629 21.0242 95.4629 21.0012 95.4629 20.9783C95.4629 20.9554 95.4861 20.9325 95.4861 20.9095C95.5092 20.8637 95.5555 20.8407 95.6019 20.8178C102.99 17.8828 110.378 14.9707 117.743 12.0356C125.131 14.9707 132.519 17.8828 139.884 20.8178C139.931 20.8407 139.977 20.8637 140 20.9095C140 20.9325 140 20.9554 140 20.9783ZM105.399 19.4879H130.041L117.72 14.6038L105.399 19.4879Z" fill="url(#paint0_linear_140_23448)"/>
<path d="M140 18.9605C140 18.9605 140 18.9834 140 19.0064C140 19.0064 140 19.0293 140 19.0522C140 19.0981 139.954 19.1439 139.931 19.1669C139.884 19.1898 139.838 19.2127 139.792 19.2127H117.743H95.6713C95.625 19.2127 95.5787 19.1898 95.5324 19.1669C95.486 19.1439 95.4629 19.0981 95.4629 19.0522C95.4629 19.0293 95.4629 19.0293 95.4629 19.0064C95.4629 18.9834 95.4629 18.9834 95.4629 18.9605C95.4629 18.9376 95.4861 18.9146 95.4861 18.8917C95.5092 18.8458 95.5555 18.8229 95.6019 18.8C102.99 15.865 110.378 12.9529 117.743 10.0178C125.131 12.9529 132.519 15.865 139.884 18.8C139.931 18.8229 139.977 18.8458 140 18.8917C140 18.9146 140 18.9376 140 18.9605ZM105.399 17.4701H130.041L117.72 12.586L105.399 17.4701Z" fill="url(#paint1_linear_140_23448)"/>
<path d="M140 16.9427C140 16.9656 140 16.9656 140 16.9885C140 17.0115 140 17.0115 140 17.0344C140 17.0803 139.954 17.1261 139.931 17.149C139.884 17.172 139.838 17.1949 139.792 17.1949H117.743H95.6713C95.625 17.1949 95.5787 17.172 95.5324 17.149C95.486 17.1261 95.4629 17.0803 95.4629 17.0344C95.4629 17.0344 95.4629 17.0115 95.4629 16.9885C95.4629 16.9885 95.4629 16.9656 95.4629 16.9427C95.4629 16.9197 95.4861 16.8968 95.4861 16.8739C95.5092 16.828 95.5555 16.8051 95.6019 16.7822C102.99 13.8471 110.378 10.935 117.743 8C125.131 10.935 132.519 13.8471 139.884 16.7822C139.931 16.8051 139.977 16.828 140 16.8739C140 16.8968 140 16.9197 140 16.9427ZM105.399 15.4752H130.041L117.72 10.5911L105.399 15.4752Z" fill="url(#paint2_linear_140_23448)"/>
<path d="M140 21.0471V21.3452C140 21.7809 139.815 22.2165 139.514 22.5146C139.189 22.8357 138.773 22.9962 138.333 22.9962H97.1304C96.6904 22.9962 96.2503 22.8127 95.9493 22.5146C95.625 22.2165 95.4629 21.7809 95.4629 21.3452V21.0471C95.4629 21.093 95.5092 21.1388 95.5324 21.1618C95.5787 21.1847 95.625 21.2076 95.6713 21.2076H117.72H139.792C139.838 21.2076 139.884 21.1847 139.931 21.1618C139.954 21.1388 140 21.093 140 21.0471Z" fill="url(#paint3_linear_140_23448)"/>
<path d="M139.629 25.8624V28.8891L137.869 29.4853V29.1643C137.869 28.935 137.777 28.7057 137.614 28.5452C137.452 28.3847 137.221 28.293 136.989 28.293C136.757 28.293 136.526 28.3847 136.364 28.5452C136.202 28.7057 136.109 28.935 136.109 29.1643V30.0815L134.349 30.6777V29.1643C134.349 28.935 134.256 28.7057 134.094 28.5452C133.932 28.3847 133.7 28.293 133.469 28.293C133.237 28.293 133.006 28.3847 132.843 28.5452C132.681 28.7057 132.589 28.935 132.589 29.1643V31.2968L130.828 31.893V30.0356C130.828 29.7605 130.805 29.4853 130.736 29.2102C130.689 28.9121 130.597 28.6369 130.481 28.3617C130.249 27.8344 129.925 27.3528 129.531 26.963C129.115 26.5503 128.651 26.2522 128.119 26.0229C127.841 25.9082 127.563 25.8165 127.262 25.7707C126.984 25.7248 126.706 25.7019 126.428 25.7019C126.15 25.7019 125.872 25.7248 125.594 25.7707C125.316 25.8165 125.015 25.9082 124.737 26.0229C124.205 26.2522 123.718 26.5732 123.325 26.963C122.908 27.3758 122.607 27.8344 122.375 28.3617C122.259 28.6369 122.19 28.9121 122.12 29.2102C122.074 29.4853 122.051 29.7605 122.051 30.0356V34.9197L120.291 35.5159V29.1643C120.291 28.935 120.198 28.7057 120.036 28.5452C119.874 28.3847 119.642 28.293 119.41 28.293C119.179 28.293 118.947 28.3847 118.785 28.5452C118.623 28.7057 118.53 28.935 118.53 29.1643V36.135L116.77 36.7312V29.1643C116.77 28.935 116.678 28.7057 116.515 28.5452C116.353 28.3847 116.122 28.293 115.89 28.293C115.658 28.293 115.427 28.3847 115.265 28.5452C115.103 28.7057 115.01 28.935 115.01 29.1643V37.3503L113.25 37.9465V30.0356C113.25 29.7605 113.227 29.4853 113.18 29.2102C113.134 28.9121 113.041 28.6369 112.926 28.3617C112.694 27.8344 112.393 27.3528 111.976 26.963C111.559 26.5503 111.096 26.2522 110.563 26.0229C110.285 25.9082 110.007 25.8165 109.706 25.7707C109.428 25.7248 109.15 25.7019 108.873 25.7019C108.595 25.7019 108.317 25.7248 108.039 25.7707C107.761 25.8165 107.46 25.9082 107.182 26.0229C106.649 26.2522 106.163 26.5732 105.769 26.963C105.352 27.3758 105.028 27.8344 104.819 28.3617C104.704 28.6369 104.611 28.9121 104.565 29.2102C104.518 29.4853 104.495 29.7605 104.495 30.0356V40.9732L102.735 41.5694V29.1643C102.735 28.935 102.642 28.7057 102.48 28.5452C102.318 28.3847 102.087 28.293 101.855 28.293C101.623 28.293 101.392 28.3847 101.23 28.5452C101.068 28.7057 100.975 28.935 100.975 29.1643V42.1656L99.2147 42.7617V29.1643C99.2147 28.935 99.1221 28.7057 98.9599 28.5452C98.7978 28.3847 98.5662 28.293 98.3346 28.293C98.103 28.293 97.8714 28.3847 97.7093 28.5452C97.5472 28.7057 97.4545 28.935 97.4545 29.1643V43.3809L95.6943 43.977V25.8624C95.6943 25.4267 95.8796 24.991 96.1807 24.693C96.5049 24.3719 96.9218 24.2114 97.3619 24.2114H117.581H137.8C138.24 24.2114 138.68 24.3949 138.981 24.693C139.444 24.991 139.629 25.4038 139.629 25.8624Z" fill="url(#paint4_linear_140_23448)"/>
<path d="M46.8563 40.72H45.5977V40.2683H48.6459V40.72H47.3676V43.9411H46.8563V40.72Z" fill="url(#paint5_linear_140_23448)"/>
<path d="M51.0845 40.2683C51.4581 40.2683 51.7335 40.3665 51.9301 40.5432C52.1268 40.7396 52.2251 40.9753 52.2251 41.3092C52.2251 41.5646 52.1661 41.7806 52.0481 41.9574C51.9301 42.1341 51.7728 42.2716 51.5565 42.3502L52.4021 43.9411H51.8318L51.0255 42.4288H49.6685V43.9411H49.1572V40.2683H51.0845ZM51.0648 41.977C51.2615 41.977 51.4188 41.9181 51.5368 41.8002C51.6548 41.6824 51.7138 41.5253 51.7138 41.3092C51.7138 41.1128 51.6548 40.9753 51.5565 40.8575C51.4581 40.7396 51.2811 40.7004 51.0648 40.7004H49.6882V41.9574H51.0648V41.977Z" fill="url(#paint6_linear_140_23448)"/>
<path d="M53.4247 43.6465C53.1691 43.4108 53.0314 43.0573 53.0314 42.5859V40.2683H53.5427V42.6055C53.5427 42.9198 53.6214 43.1555 53.7984 43.3126C53.9754 43.4697 54.2114 43.5483 54.526 43.5483C54.8407 43.5483 55.0964 43.4697 55.2733 43.293C55.4503 43.1358 55.529 42.9001 55.529 42.5859V40.2683H56.0403V42.5859C56.0403 43.0573 55.9027 43.4304 55.647 43.6465C55.3913 43.8822 55.0177 44 54.526 44C54.0541 44 53.7001 43.8822 53.4247 43.6465Z" fill="url(#paint7_linear_140_23448)"/>
<path d="M57.1613 43.7251C56.886 43.5483 56.7483 43.2733 56.7483 42.9001V42.8019H57.2596C57.2596 42.8019 57.2596 42.8216 57.2596 42.8412C57.2596 42.8609 57.2596 42.8805 57.2596 42.9198C57.2596 43.1358 57.3579 43.293 57.5349 43.4108C57.7119 43.5286 57.9479 43.5876 58.2626 43.5876C58.5969 43.5876 58.8526 43.5286 59.0296 43.4304C59.2066 43.3322 59.3049 43.1751 59.3049 42.9787C59.3049 42.8412 59.2656 42.743 59.1672 42.6448C59.0689 42.5662 58.9509 42.4877 58.8132 42.4484C58.6756 42.3895 58.4789 42.3502 58.2429 42.2913C57.9479 42.2127 57.7119 42.1538 57.5349 42.0752C57.3579 41.9967 57.2006 41.8985 57.063 41.761C56.9253 41.6235 56.8663 41.4467 56.8663 41.211C56.8663 40.8968 57.004 40.6414 57.2596 40.4843C57.5349 40.3075 57.8693 40.229 58.2823 40.229C58.6952 40.229 59.0296 40.3075 59.3049 40.4843C59.5605 40.6611 59.6982 40.9164 59.6982 41.2699V41.3289H59.2066V41.2503C59.2066 41.0735 59.1279 40.9164 58.9509 40.8182C58.7936 40.72 58.5772 40.6611 58.3019 40.6611C58.0266 40.6611 57.7906 40.7004 57.6333 40.7986C57.4563 40.8771 57.3776 41.0146 57.3776 41.1914C57.3776 41.3092 57.4169 41.4271 57.5153 41.5056C57.6136 41.5842 57.7119 41.6431 57.8496 41.702C57.9873 41.7413 58.1643 41.8002 58.4002 41.8592C58.6952 41.9377 58.9312 42.0163 59.1279 42.0752C59.3246 42.1538 59.4819 42.252 59.5999 42.3895C59.7375 42.527 59.7965 42.7037 59.7965 42.9198C59.7965 43.3126 59.6589 43.5876 59.3836 43.784C59.1082 43.9607 58.7346 44.0589 58.2823 44.0589C57.8103 44 57.4563 43.9018 57.1613 43.7251Z" fill="url(#paint8_linear_140_23448)"/>
<path d="M61.4288 40.72H60.1702V40.2683H63.1988V40.72H61.9401V43.9411H61.4288V40.72Z" fill="url(#paint9_linear_140_23448)"/>
<path d="M65.421 43.5286C65.126 43.2144 64.9687 42.743 64.9687 42.0949C64.9687 41.4664 65.126 40.995 65.421 40.6611C65.716 40.3468 66.1683 40.1897 66.7583 40.1897C67.2303 40.1897 67.6236 40.3075 67.8989 40.5432C68.1939 40.7789 68.3316 41.1325 68.3316 41.5842H67.8203C67.8203 41.2699 67.722 41.0343 67.545 40.8771C67.3483 40.72 67.0926 40.6414 66.7583 40.6414C66.3257 40.6414 66.011 40.7593 65.8143 40.9753C65.6177 41.211 65.4997 41.5646 65.4997 42.0949V42.1145C65.4997 42.6252 65.598 42.9983 65.8143 43.234C66.0307 43.4697 66.3453 43.5876 66.778 43.5876C67.1123 43.5876 67.3876 43.509 67.5646 43.3519C67.7613 43.1947 67.8596 42.9591 67.8596 42.6448H68.3513C68.3513 43.0965 68.2136 43.4501 67.9186 43.6858C67.6236 43.9215 67.25 44.0393 66.7583 44.0393C66.1487 44 65.716 43.8429 65.421 43.5286Z" fill="url(#paint10_linear_140_23448)"/>
<path d="M69.2952 43.5286C68.9806 43.2144 68.8232 42.743 68.8232 42.1145C68.8232 41.486 68.9806 41.0146 69.2952 40.7004C69.6099 40.3861 70.0622 40.229 70.6522 40.229C71.2422 40.229 71.6945 40.3861 72.0091 40.7004C72.3238 41.0146 72.4811 41.486 72.4811 42.1145C72.4811 42.743 72.3238 43.2144 72.0091 43.5286C71.6945 43.8429 71.2422 44 70.6522 44C70.0819 44 69.6296 43.8429 69.2952 43.5286ZM71.6355 43.2144C71.8518 42.9787 71.9698 42.6252 71.9698 42.1145V42.0949C71.9698 41.5842 71.8518 41.211 71.6355 40.9753C71.4192 40.7396 71.0848 40.6218 70.6719 40.6218C70.2589 40.6218 69.9245 40.7396 69.7082 40.9753C69.4919 41.211 69.3739 41.5842 69.3739 42.0949V42.1145C69.3739 42.6252 69.4919 42.9787 69.7082 43.2144C69.9245 43.4501 70.2589 43.5679 70.6719 43.5679C71.0848 43.5679 71.3995 43.4501 71.6355 43.2144Z" fill="url(#paint11_linear_140_23448)"/>
<path d="M73.1694 40.2683H73.9168L74.8017 42.7626C74.8411 42.8609 74.8607 42.9591 74.9001 43.0769C74.9394 43.1947 74.9591 43.2733 74.9591 43.3126H74.9787C74.9984 43.2733 75.0181 43.1947 75.0377 43.0573C75.0771 42.9394 75.0967 42.8216 75.1361 42.743L76.021 40.2486H76.7683V43.9215H76.257V41.5056L76.2767 40.8182H76.2373C76.2373 40.8378 76.2177 40.8968 76.198 40.9753C76.1784 41.0539 76.1587 41.1128 76.139 41.1717L75.1361 43.9215H74.7034L73.7201 41.1717C73.7004 41.1128 73.6808 41.0539 73.6611 40.9753C73.6414 40.8968 73.6218 40.8378 73.6218 40.8182L73.6414 41.5056V43.9215H73.1694V40.2683Z" fill="url(#paint12_linear_140_23448)"/>
<path d="M77.614 40.2683H79.4036C79.7772 40.2683 80.0526 40.3665 80.2492 40.5825C80.4459 40.7789 80.5442 41.0539 80.5442 41.3878C80.5442 41.7413 80.4459 42.0163 80.2296 42.2127C80.0329 42.4288 79.7379 42.527 79.4036 42.527H78.1253V43.9411H77.614V40.2683ZM79.3839 42.0752C79.5806 42.0752 79.7379 42.0163 79.8559 41.8788C79.9739 41.761 80.0329 41.5842 80.0329 41.3681C80.0329 41.1521 79.9739 40.9753 79.8756 40.8575C79.7576 40.7396 79.6002 40.6807 79.3839 40.6807H78.1253V42.0556H79.3839V42.0752Z" fill="url(#paint13_linear_140_23448)"/>
<path d="M81.8225 40.2683H82.4715L83.8874 43.9411H83.3565L82.9828 42.9591H81.2915L80.9375 43.9411H80.4065L81.8225 40.2683ZM82.8255 42.5073L82.3928 41.3681L82.1372 40.7004H82.1175L81.8815 41.3485L81.4488 42.5073H82.8255Z" fill="url(#paint14_linear_140_23448)"/>
<path d="M84.3594 40.2683H84.8117L86.7587 42.8216L86.8767 42.9983L86.8963 42.9787V40.2683H87.3683V43.9411H86.9357L84.9887 41.3485L84.8511 41.1521L84.8314 41.1717V43.9411H84.3594V40.2683Z" fill="url(#paint15_linear_140_23448)"/>
<path d="M89.3349 42.4091L87.8796 40.2683H88.509L89.5906 41.9377H89.6103L90.7116 40.2683H91.2819L89.8462 42.4091V43.9411H89.3349V42.4091Z" fill="url(#paint16_linear_140_23448)"/>
<path d="M31.3985 35.5151C31.8115 36.5757 32.3621 36.9882 32.7751 37.0078V37.4792C31.6542 37.4399 30.0612 37.4203 28.5273 37.4203C26.954 37.4203 25.4397 37.4399 24.6137 37.4792V37.0078C25.715 36.9685 26.246 36.7918 26.246 36.1632C26.246 35.8883 26.1477 35.5347 25.9707 35.0634L24.5744 31.253H19.8939L19.5006 32.294C18.9696 33.6296 18.7336 34.6116 18.7336 35.299C18.7336 36.6543 19.5989 36.9489 20.8378 36.9882V37.4595C19.6775 37.4203 18.8516 37.4006 17.7896 37.4006C17.18 37.4006 16.4523 37.4203 16 37.4595V36.9882C16.708 36.8703 17.3963 36.2025 18.1436 34.2581L23.3158 21.0005C23.6894 21.0398 24.1221 21.0398 24.5351 21.0398C24.948 21.0398 25.3807 21.0201 25.7544 21.0005L31.3985 35.5151ZM22.3128 24.9483L20.0709 30.762H24.4171L22.3128 24.9483Z" fill="url(#paint17_linear_140_23448)"/>
<path d="M50.6712 36.5364C49.7076 37.4988 48.6063 37.7934 47.1903 37.7934C45.1647 37.7934 43.8864 37.1846 43.5915 35.2794L43.2375 32.9618C42.9621 31.0566 42.5688 29.6621 41.3889 29.6621H40.3269V35.0044C40.3269 36.6935 40.5826 36.9292 41.9788 37.0078V37.4792C41.0742 37.4399 39.5403 37.4203 38.085 37.4203C36.3937 37.4203 34.8204 37.4399 33.9354 37.4792V37.0078C35.3514 36.9489 35.5874 36.6935 35.5874 35.0044V23.4556C35.5874 21.7665 35.3317 21.5308 33.9354 21.4522V21.0005C34.8204 21.0398 36.4723 21.0594 37.9473 21.0594C39.5009 21.0594 41.0939 21.0201 41.6839 21.0201C46.4037 21.0201 48.7046 22.3164 48.7046 25.0662C48.7046 27.1088 47.446 29.1515 43.0015 29.5639C46.1874 29.7407 47.7213 30.7031 48.095 32.5886L48.5866 35.0044C48.8226 36.1632 49.0979 36.5168 49.6289 36.5168C49.9239 36.5168 50.1402 36.4186 50.3369 36.2025L50.6712 36.5364ZM40.3269 23.4556V29.1711H40.9562C43.3358 29.1711 43.8274 27.4427 43.8274 25.3019C43.8274 22.8664 43.2375 21.4326 41.5855 21.4326C40.5432 21.4522 40.3269 21.8647 40.3269 23.4556Z" fill="url(#paint18_linear_140_23448)"/>
<path d="M59.9339 21.4522C58.518 21.5112 58.282 21.7665 58.282 23.4556V34.9848C58.282 36.6739 58.5376 36.9096 59.9339 36.9882V37.4595C59.0293 37.4203 57.4953 37.4006 56.0401 37.4006C54.3488 37.4006 52.7755 37.4203 51.8905 37.4595V36.9882C53.3065 36.9292 53.5425 36.6739 53.5425 34.9848V23.4556C53.5425 21.7665 53.2868 21.5308 51.8905 21.4522V21.0005C52.7755 21.0398 54.3685 21.0594 56.0401 21.0594C57.4757 21.0594 59.0096 21.0398 59.9339 21.0005V21.4522Z" fill="url(#paint19_linear_140_23448)"/>
<path d="M75.8831 37.4595C74.3098 37.4006 72.1072 37.4006 70.5536 37.4006C68.882 37.4006 65.1061 37.4006 62.4119 37.4595V36.9882C63.8278 36.9292 64.0638 36.6739 64.0638 34.9848V23.4556C64.0638 21.7665 63.8081 21.5308 62.4119 21.4522V21.0005C65.1061 21.0594 68.882 21.0594 70.5536 21.0594C71.9696 21.0594 73.9755 21.0594 75.4111 21.0005C75.2931 22.5521 75.2538 24.143 75.2538 24.909C75.2538 25.5572 75.2734 26.1857 75.3128 26.5982H74.7818C74.2115 22.7289 72.4022 21.5308 70.4946 21.5308H70.1799C68.9803 21.5308 68.764 21.7272 68.764 23.0039V28.9551H69C70.7503 28.9551 71.8909 27.2463 72.1662 25.8911H72.6972C72.6382 26.9124 72.5989 27.5998 72.5989 28.1498C72.5989 28.5426 72.6185 28.8568 72.6185 29.1907C72.6185 29.9567 72.6579 30.7227 72.7759 32.4904H72.2449C71.9696 30.762 70.7503 29.4068 69 29.4068H68.764V35.4562C68.764 36.7328 68.9803 36.9292 70.1799 36.9292H70.9469C72.4809 36.9292 74.4868 35.6329 75.2341 31.4298H75.7651C75.7258 31.9797 75.7061 32.7261 75.7061 33.5707C75.7258 34.317 75.7258 35.9276 75.8831 37.4595Z" fill="url(#paint20_linear_140_23448)"/>
<path d="M88.843 21.5897C89.2167 21.8058 89.4133 21.9236 89.6297 21.9236C89.9443 21.9236 90.0426 21.5701 90.141 20.9023H90.672C90.613 21.904 90.554 23.0824 90.554 26.5785H90.023C89.846 24.0056 88.3907 21.2951 85.9718 21.2951C84.6148 21.2951 83.5922 22.0611 83.5922 23.4556C83.5922 25.184 84.7721 25.8714 87.7024 27.9141C89.7673 29.3479 91.4783 30.6442 91.4783 33.1778C91.4783 36.3204 88.548 37.7934 85.1458 37.7934C83.0219 37.7934 81.8812 37.3417 81.0159 36.9292C80.6423 36.6935 80.4063 36.5953 80.2293 36.5953C79.9146 36.5953 79.8163 36.9489 79.6983 37.6167H79.1673C79.2263 36.4382 79.2657 34.8669 79.2657 30.8799H79.7966C79.9736 34.1599 81.0553 37.0864 84.0248 37.0864C85.7358 37.0864 86.8174 36.2614 86.8174 34.808C86.8174 32.8832 85.4015 31.7637 83.4152 30.4281C81.2126 28.9551 79.2853 27.6195 79.2853 25.0465C79.2853 22.0022 82.0386 20.647 85.0475 20.647C87.0731 20.6666 88.0564 21.1576 88.843 21.5897Z" fill="url(#paint21_linear_140_23448)"/>
</g>
<defs>
<linearGradient id="paint0_linear_140_23448" x1="118" y1="21" x2="118" y2="8" gradientUnits="userSpaceOnUse">
<stop stop-color="#BE9D66"/>
<stop offset="1" stop-color="#E8D2A3" stop-opacity="0.3"/>
</linearGradient>
<linearGradient id="paint1_linear_140_23448" x1="118" y1="19" x2="118" y2="8" gradientUnits="userSpaceOnUse">
<stop stop-color="#BE9D66"/>
<stop offset="1" stop-color="#E8D2A3" stop-opacity="0.3"/>
</linearGradient>
<linearGradient id="paint2_linear_140_23448" x1="117.5" y1="17" x2="117.5" y2="8" gradientUnits="userSpaceOnUse">
<stop stop-color="#BE9D66"/>
<stop offset="1" stop-color="#E8D2A3" stop-opacity="0.3"/>
</linearGradient>
<linearGradient id="paint3_linear_140_23448" x1="117" y1="23" x2="117" y2="7.5" gradientUnits="userSpaceOnUse">
<stop stop-color="#BE9D66"/>
<stop offset="1" stop-color="#E8D2A3"/>
</linearGradient>
<linearGradient id="paint4_linear_140_23448" x1="93.9035" y1="33.8395" x2="139.629" y2="33.8395" gradientUnits="userSpaceOnUse">
<stop stop-color="#BE9D66"/>
<stop offset="1" stop-color="#E8D2A3"/>
</linearGradient>
<linearGradient id="paint5_linear_140_23448" x1="43.7355" y1="42.0745" x2="91.2819" y2="42.0745" gradientUnits="userSpaceOnUse">
<stop stop-color="#BE9D66"/>
<stop offset="1" stop-color="#E8D2A3"/>
</linearGradient>
<linearGradient id="paint6_linear_140_23448" x1="43.7355" y1="42.0745" x2="91.2819" y2="42.0745" gradientUnits="userSpaceOnUse">
<stop stop-color="#BE9D66"/>
<stop offset="1" stop-color="#E8D2A3"/>
</linearGradient>
<linearGradient id="paint7_linear_140_23448" x1="43.7355" y1="42.0745" x2="91.2819" y2="42.0745" gradientUnits="userSpaceOnUse">
<stop stop-color="#BE9D66"/>
<stop offset="1" stop-color="#E8D2A3"/>
</linearGradient>
<linearGradient id="paint8_linear_140_23448" x1="43.7355" y1="42.0745" x2="91.2819" y2="42.0745" gradientUnits="userSpaceOnUse">
<stop stop-color="#BE9D66"/>
<stop offset="1" stop-color="#E8D2A3"/>
</linearGradient>
<linearGradient id="paint9_linear_140_23448" x1="43.7355" y1="42.0745" x2="91.2819" y2="42.0745" gradientUnits="userSpaceOnUse">
<stop stop-color="#BE9D66"/>
<stop offset="1" stop-color="#E8D2A3"/>
</linearGradient>
<linearGradient id="paint10_linear_140_23448" x1="43.7355" y1="42.0745" x2="91.2819" y2="42.0745" gradientUnits="userSpaceOnUse">
<stop stop-color="#BE9D66"/>
<stop offset="1" stop-color="#E8D2A3"/>
</linearGradient>
<linearGradient id="paint11_linear_140_23448" x1="43.7355" y1="42.0745" x2="91.2819" y2="42.0745" gradientUnits="userSpaceOnUse">
<stop stop-color="#BE9D66"/>
<stop offset="1" stop-color="#E8D2A3"/>
</linearGradient>
<linearGradient id="paint12_linear_140_23448" x1="43.7355" y1="42.0745" x2="91.2819" y2="42.0745" gradientUnits="userSpaceOnUse">
<stop stop-color="#BE9D66"/>
<stop offset="1" stop-color="#E8D2A3"/>
</linearGradient>
<linearGradient id="paint13_linear_140_23448" x1="43.7355" y1="42.0745" x2="91.2819" y2="42.0745" gradientUnits="userSpaceOnUse">
<stop stop-color="#BE9D66"/>
<stop offset="1" stop-color="#E8D2A3"/>
</linearGradient>
<linearGradient id="paint14_linear_140_23448" x1="43.7355" y1="42.0745" x2="91.2819" y2="42.0745" gradientUnits="userSpaceOnUse">
<stop stop-color="#BE9D66"/>
<stop offset="1" stop-color="#E8D2A3"/>
</linearGradient>
<linearGradient id="paint15_linear_140_23448" x1="43.7355" y1="42.0745" x2="91.2819" y2="42.0745" gradientUnits="userSpaceOnUse">
<stop stop-color="#BE9D66"/>
<stop offset="1" stop-color="#E8D2A3"/>
</linearGradient>
<linearGradient id="paint16_linear_140_23448" x1="43.7355" y1="42.0745" x2="91.2819" y2="42.0745" gradientUnits="userSpaceOnUse">
<stop stop-color="#BE9D66"/>
<stop offset="1" stop-color="#E8D2A3"/>
</linearGradient>
<linearGradient id="paint17_linear_140_23448" x1="12.9234" y1="28.9992" x2="91.4783" y2="28.9992" gradientUnits="userSpaceOnUse">
<stop stop-color="#BE9D66"/>
<stop offset="1" stop-color="#E8D2A3"/>
</linearGradient>
<linearGradient id="paint18_linear_140_23448" x1="12.9234" y1="28.9992" x2="91.4783" y2="28.9992" gradientUnits="userSpaceOnUse">
<stop stop-color="#BE9D66"/>
<stop offset="1" stop-color="#E8D2A3"/>
</linearGradient>
<linearGradient id="paint19_linear_140_23448" x1="12.9234" y1="28.9992" x2="91.4783" y2="28.9992" gradientUnits="userSpaceOnUse">
<stop stop-color="#BE9D66"/>
<stop offset="1" stop-color="#E8D2A3"/>
</linearGradient>
<linearGradient id="paint20_linear_140_23448" x1="12.9234" y1="28.9992" x2="91.4783" y2="28.9992" gradientUnits="userSpaceOnUse">
<stop stop-color="#BE9D66"/>
<stop offset="1" stop-color="#E8D2A3"/>
</linearGradient>
<linearGradient id="paint21_linear_140_23448" x1="12.9234" y1="28.9992" x2="91.4783" y2="28.9992" gradientUnits="userSpaceOnUse">
<stop stop-color="#BE9D66"/>
<stop offset="1" stop-color="#E8D2A3"/>
</linearGradient>
<clipPath id="clip0_140_23448">
<rect width="124" height="36" fill="white" transform="translate(16 8)"/>
</clipPath>
</defs>
</svg>
