
<svg width="24" height="24" viewBox="0 0 24 24" fill="none" xmlns="http://www.w3.org/2000/svg">
    <path fill-rule="evenodd" clip-rule="evenodd" d="M23.0273 12.0283C23.0273 18.1035 18.1025 23.0283 12.0273 23.0283C5.95221 23.0283 1.02734 18.1035 1.02734 12.0283C1.02734 5.95319 5.95221 1.02832 12.0273 1.02832C18.1025 1.02832 23.0273 5.95319 23.0273 12.0283ZM18.7219 18.0436C20.1552 16.4495 21.0273 14.3408 21.0273 12.0283C21.0273 7.05776 16.9979 3.02832 12.0273 3.02832C7.05678 3.02832 3.02734 7.05776 3.02734 12.0283C3.02734 14.3178 3.88221 16.4076 5.29015 17.9959C5.84639 16.1312 7.15883 14.5926 8.87169 13.7358C8.0253 12.9176 7.49902 11.7703 7.49902 10.5001C7.49902 8.01481 9.51374 6.00009 11.999 6.00009C14.4843 6.00009 16.499 8.01481 16.499 10.5001C16.499 11.7703 15.9727 12.9176 15.1264 13.7358C16.8538 14.5999 18.174 16.1575 18.7219 18.0436ZM16.9786 19.5452C16.7488 16.9969 14.6071 15.0001 11.999 15.0001C9.40306 15.0001 7.26917 16.9784 7.02277 19.5097C8.45377 20.4689 10.1752 21.0283 12.0273 21.0283C13.8565 21.0283 15.5582 20.4826 16.9786 19.5452ZM11.999 13.0001C13.3797 13.0001 14.499 11.8808 14.499 10.5001C14.499 9.11938 13.3797 8.00009 11.999 8.00009C10.6183 8.00009 9.49902 9.11938 9.49902 10.5001C9.49902 11.8808 10.6183 13.0001 11.999 13.0001Z" fill="url(#paint0_linear_1615_138605)"/>
    <defs>
        <linearGradient id="paint0_linear_1615_138605" x1="0.130605" y1="11.7448" x2="23.0273" y2="11.7448" gradientUnits="userSpaceOnUse">
            <stop stop-color="#BE9D66"/>
            <stop offset="1" stop-color="#E8D2A3"/>
        </linearGradient>
    </defs>
</svg>
