<svg width="18" height="17" viewBox="0 0 18 17" fill="none" xmlns="http://www.w3.org/2000/svg">
<path d="M8.55312 1.00511C8.73763 0.637483 9.26237 0.637483 9.44688 1.00511L11.2894 4.67647C11.5077 5.11138 11.9234 5.41338 12.4044 5.48657L16.4655 6.10444C16.8721 6.16631 17.0343 6.66537 16.7417 6.95445L13.8194 9.84134C13.4732 10.1833 13.3145 10.672 13.3935 11.1521L14.0608 15.2053C14.1276 15.6112 13.7031 15.9196 13.3377 15.7307L9.68912 13.8435C9.2569 13.62 8.7431 13.62 8.31088 13.8435L4.66226 15.7307L4.89196 16.1748L4.66225 15.7307C4.2969 15.9196 3.87237 15.6112 3.93919 15.2053L4.6065 11.1521C4.68555 10.672 4.52678 10.1833 4.1806 9.84134L1.25832 6.95445C0.965696 6.66537 1.12785 6.16631 1.53451 6.10444L5.59555 5.48657C6.07662 5.41338 6.4923 5.11138 6.71057 4.67647L8.55312 1.00511Z" stroke="#695D52"/>
</svg>
