<svg width="18" height="17" viewBox="0 0 18 17" fill="none" xmlns="http://www.w3.org/2000/svg">
<path d="M8.10624 0.780837C8.47525 0.0455748 9.52475 0.0455756 9.89376 0.780838L11.7363 4.45219C11.8818 4.74213 12.1589 4.94347 12.4797 4.99226L16.5407 5.61013C17.354 5.73387 17.6783 6.73199 17.0931 7.31015L14.1708 10.197C13.94 10.425 13.8342 10.7508 13.8869 11.0709L14.5542 15.1241C14.6878 15.9358 13.8387 16.5527 13.108 16.1748L9.45941 14.2876C9.17127 14.1386 8.82873 14.1386 8.54059 14.2876L4.89196 16.1748C4.16125 16.5527 3.31219 15.9358 3.44583 15.1241L4.11314 11.0709C4.16584 10.7508 4.05999 10.425 3.82921 10.197L0.906926 7.31015C0.32168 6.73199 0.645992 5.73387 1.4593 5.61013L5.52034 4.99226C5.84106 4.94347 6.11817 4.74213 6.26369 4.45219L8.10624 0.780837Z" fill="#3D3228"/>
</svg>
