<svg width="44" height="44" viewBox="0 0 44 44" fill="none" xmlns="http://www.w3.org/2000/svg">
<path fill-rule="evenodd" clip-rule="evenodd" d="M22 44C34.1503 44 44 34.1503 44 22C44 9.84974 34.1503 0 22 0C9.84974 0 0 9.84974 0 22C0 34.1503 9.84974 44 22 44ZM25.0582 23.1633C23.5754 24.9258 21.5801 27.4295 19.6516 30.25L12.375 22.8726L16.468 19.4967L19.9547 22.9431C21.3442 21.7002 22.7791 20.4973 23.896 19.6025C23.9485 19.5605 24.0007 19.5186 24.0527 19.4769C24.6387 19.0072 25.1977 18.5592 25.7404 18.1482C26.337 17.6966 26.97 17.2225 27.6521 16.7292C27.7035 16.692 27.7557 16.6543 27.8084 16.6161C28.9561 15.786 30.4079 14.7359 31.9137 13.75L33 15.2572C32.1494 15.7949 30.7968 17.0502 29.6398 18.1835C28.961 18.8483 28.2549 19.5547 27.5427 20.3253C26.7558 21.1766 25.9336 22.1229 25.0582 23.1633Z" fill="url(#paint0_linear_148_1226)"/>
<defs>
<linearGradient id="paint0_linear_148_1226" x1="-1.79348" y1="21.433" x2="44" y2="21.433" gradientUnits="userSpaceOnUse">
<stop stop-color="#BE9D66"/>
<stop offset="1" stop-color="#E8D2A3"/>
</linearGradient>
</defs>
</svg>
