<svg width="16" height="16" viewBox="0 0 16 16" fill="none" xmlns="http://www.w3.org/2000/svg">
<path fill-rule="evenodd" clip-rule="evenodd" d="M8 16C12.4183 16 16 12.4183 16 8C16 3.58172 12.4183 0 8 0C3.58172 0 0 3.58172 0 8C0 12.4183 3.58172 16 8 16ZM8.76364 10.0571C8.54545 9.82857 8.32727 9.71429 8 9.71429C7.67273 9.71429 7.45455 9.82857 7.23636 10.0571C7.01818 10.2857 6.90909 10.5143 6.90909 10.8571C6.90909 11.2 7.01818 11.4286 7.23636 11.6571C7.45455 11.8857 7.67273 12 8 12C8.32727 12 8.54545 11.8857 8.76364 11.6571C8.98182 11.4286 9.09091 11.2 9.09091 10.8571C9.09091 10.5143 8.98182 10.2857 8.76364 10.0571ZM8.65455 8.8L8.98182 4H7.01818L7.45455 8.8H8.65455Z" fill="url(#paint0_linear_191_28734)"/>
<defs>
<linearGradient id="paint0_linear_191_28734" x1="-0.652174" y1="7.79381" x2="16" y2="7.79381" gradientUnits="userSpaceOnUse">
<stop stop-color="#BE9D66"/>
<stop offset="1" stop-color="#E8D2A3"/>
</linearGradient>
</defs>
</svg>
