<svg width="16" height="16" viewBox="0 0 16 16" fill="none" xmlns="http://www.w3.org/2000/svg">
<path fill-rule="evenodd" clip-rule="evenodd" d="M8 16C12.4183 16 16 12.4183 16 8C16 3.58172 12.4183 0 8 0C3.58172 0 0 3.58172 0 8C0 12.4183 3.58172 16 8 16ZM9.11208 8.42303C8.57289 9.06392 7.8473 9.97436 7.14602 11L4.5 8.31733L5.98836 7.08971L7.25624 8.34296C7.76152 7.89097 8.28333 7.45357 8.68947 7.12818C8.70853 7.1129 8.72751 7.09769 8.74642 7.08253C8.95951 6.91173 9.16278 6.7488 9.36015 6.59936C9.57708 6.43514 9.80726 6.26272 10.0553 6.08333C10.074 6.0698 10.093 6.05609 10.1122 6.04222C10.5295 5.74038 11.0574 5.35852 11.605 5L12 5.54808C11.6907 5.74359 11.1988 6.20009 10.7781 6.61219C10.5313 6.85391 10.2745 7.11082 10.0155 7.391C9.72937 7.70057 9.4304 8.04469 9.11208 8.42303Z" fill="url(#paint0_linear_256_6829)"/>
<defs>
<linearGradient id="paint0_linear_256_6829" x1="-0.652174" y1="7.79381" x2="16" y2="7.79381" gradientUnits="userSpaceOnUse">
<stop stop-color="#BE9D66"/>
<stop offset="1" stop-color="#E8D2A3"/>
</linearGradient>
</defs>
</svg>
