<svg width="25" height="21" viewBox="0 0 25 21" fill="none" xmlns="http://www.w3.org/2000/svg">
    <path d="M24.9988 7.1521V7.32553C24.9989 7.5745 24.9002 7.81334 24.7244 7.9896C24.5483 8.16584 24.3094 8.26494 24.0603 8.26511H0.939581C0.816215 8.26509 0.694066 8.24074 0.580117 8.19347C0.466169 8.14619 0.362659 8.07692 0.275509 7.9896C0.101102 7.81453 0.00220133 7.57812 0 7.33102V7.15649C0.00488833 7.18417 0.0202121 7.20892 0.0428096 7.22564C0.0652717 7.24259 0.0926044 7.25182 0.120741 7.25198H24.878C24.9058 7.25144 24.9326 7.24223 24.9549 7.22564C24.9779 7.20725 24.9935 7.18112 24.9988 7.1521Z"
          fill="#E4CEA0"/>
    <path d="M24.7858 9.87293V11.5896L23.7979 11.9332V11.7565C23.7975 11.6264 23.7458 11.5018 23.6541 11.4096C23.5619 11.3171 23.4368 11.265 23.3062 11.2647C23.1786 11.2672 23.057 11.3192 22.967 11.4096C22.9214 11.4551 22.8852 11.5092 22.8605 11.5687C22.8359 11.6282 22.8232 11.6921 22.8232 11.7565V12.2768L21.8353 12.6203V11.7587C21.8354 11.6943 21.8227 11.6304 21.798 11.5709C21.7733 11.5114 21.7372 11.4573 21.6915 11.4118C21.5992 11.3195 21.4741 11.2675 21.3436 11.2669C21.2134 11.2674 21.0886 11.3195 20.9967 11.4118C20.9511 11.4573 20.9149 11.5114 20.8903 11.5709C20.8656 11.6304 20.8529 11.6943 20.8529 11.7587V12.9661L19.8706 13.3075V12.2537C19.8701 12.0978 19.8547 11.9423 19.8245 11.7894C19.7935 11.6262 19.7461 11.4666 19.6829 11.313C19.5591 11.0149 19.3783 10.7438 19.1505 10.5151C18.9214 10.2879 18.6504 10.1075 18.3525 9.98379C18.1995 9.91989 18.0402 9.87207 17.8772 9.8411C17.7239 9.81166 17.568 9.79695 17.4118 9.79719C17.2557 9.79701 17.0998 9.81171 16.9464 9.8411C16.7841 9.87236 16.6252 9.91979 16.4723 9.98269C16.1744 10.1069 15.9034 10.2877 15.6743 10.5151C15.4465 10.7438 15.2656 11.0149 15.1419 11.313C15.0787 11.4666 15.0313 11.6262 15.0003 11.7894C14.9696 11.9423 14.9541 12.0978 14.9542 12.2537V15.0209L13.9718 15.3633V11.7565C13.9719 11.6921 13.9592 11.6282 13.9345 11.5687C13.9098 11.5092 13.8737 11.4551 13.828 11.4096C13.7362 11.3173 13.6114 11.2652 13.4812 11.2647C13.3503 11.265 13.2247 11.3171 13.1321 11.4096C13.0867 11.4552 13.0507 11.5093 13.0262 11.5688C13.0017 11.6283 12.9892 11.6921 12.9894 11.7565V15.7014L12.0016 16.0428V11.762C12.0016 11.6975 11.9889 11.6337 11.9642 11.5742C11.9396 11.5147 11.9034 11.4606 11.8578 11.4151C11.7659 11.3228 11.6412 11.2707 11.5109 11.2702C11.38 11.2705 11.2545 11.3226 11.1619 11.4151C11.1164 11.4607 11.0804 11.5148 11.0559 11.5743C11.0314 11.6338 11.0189 11.6976 11.0192 11.762V16.3918L10.0313 16.7332V12.2482C10.0316 12.0924 10.0169 11.9369 9.98739 11.7839C9.95607 11.6207 9.90826 11.4611 9.8447 11.3075C9.72058 11.0093 9.53937 10.7383 9.31125 10.5096C9.08297 10.282 8.81222 10.1015 8.51436 9.97831C8.3613 9.91441 8.20202 9.86659 8.03908 9.83561C7.88569 9.80622 7.72986 9.79152 7.57368 9.79171C7.41787 9.79147 7.26239 9.80617 7.10938 9.83561C6.94628 9.86688 6.7867 9.91431 6.633 9.97721C6.33828 10.1025 6.07036 10.2832 5.8438 10.5096C5.61532 10.738 5.43406 11.0091 5.31034 11.3075C5.2463 11.4609 5.19847 11.6206 5.16765 11.7839C5.13816 11.9369 5.12345 12.0924 5.12374 12.2482V18.4411L4.13587 18.7836V11.7587C4.1357 11.6942 4.12282 11.6303 4.09796 11.5708C4.0731 11.5113 4.03674 11.4573 3.99098 11.4118C3.94539 11.3659 3.89119 11.3295 3.83147 11.3046C3.77175 11.2798 3.70771 11.267 3.64303 11.2669C3.51278 11.2674 3.38804 11.3195 3.29617 11.4118C3.25056 11.4573 3.21438 11.5114 3.1897 11.5709C3.16503 11.6304 3.15234 11.6943 3.15238 11.7587V19.1261L2.16999 19.4685V11.7565C2.16982 11.692 2.15694 11.6282 2.13208 11.5686C2.10722 11.5091 2.07087 11.4551 2.0251 11.4096C1.97952 11.3637 1.92531 11.3273 1.86559 11.3024C1.80588 11.2776 1.74184 11.2648 1.67715 11.2647C1.55149 11.2686 1.43208 11.3205 1.34347 11.4096C1.29785 11.4551 1.26167 11.5092 1.237 11.5687C1.21232 11.6282 1.19964 11.6921 1.19968 11.7565V19.811L0.217285 20.1545V9.87293C0.217701 9.62428 0.31587 9.38577 0.4906 9.20886C0.667507 9.03413 0.906022 8.93596 1.15467 8.93555H23.8451C24.0939 8.93549 24.3326 9.03372 24.5092 9.20886C24.5967 9.29595 24.6661 9.39943 24.7136 9.51338C24.761 9.62732 24.7856 9.7495 24.7858 9.87293Z"
          fill="#E4CEA0"/>
    <path d="M24.9996 7.11102C25.0001 7.11796 25.0001 7.12494 24.9996 7.13188C24.9996 7.13846 24.9996 7.14615 24.9996 7.15273C24.9931 7.17973 24.9776 7.20371 24.9557 7.22079C24.9335 7.23818 24.906 7.24747 24.8778 7.24713H0.12264C0.0944223 7.24747 0.0669329 7.23818 0.0447086 7.22079C0.0228069 7.20371 0.0073322 7.17973 0.000803633 7.15273C0.00133273 7.14579 0.00133273 7.13882 0.000803633 7.13188C-0.000267878 7.12497 -0.000267878 7.11793 0.000803633 7.11102C0.00220436 7.09687 0.00710899 7.08329 0.0150735 7.07151C0.0276203 7.04655 0.0492085 7.02732 0.0754425 7.01773L12.5007 2.04102L24.926 7.01773C24.9518 7.02811 24.9731 7.04712 24.9864 7.07151C24.9935 7.08362 24.998 7.09708 24.9996 7.11102ZM5.5878 6.27023H19.4115L12.4964 3.50198L5.5878 6.27023Z"
          fill="url(#paint0_linear_378_26551)"/>
    <path d="M24.9996 6.21222C25.0001 6.21916 25.0001 6.22613 24.9996 6.23307C24.9996 6.23966 24.9996 6.24734 24.9996 6.25393C24.9928 6.28079 24.9773 6.30468 24.9557 6.32198C24.9335 6.33937 24.906 6.34867 24.8778 6.34833H0.12264C0.0944223 6.34867 0.0669329 6.33937 0.0447086 6.32198C0.0230568 6.30468 0.00764209 6.28079 0.000803633 6.25393C0.00133273 6.24699 0.00133273 6.24002 0.000803633 6.23307C-0.000267878 6.22616 -0.000267878 6.21913 0.000803633 6.21222C0.00220436 6.19807 0.00710899 6.18449 0.0150735 6.17271C0.0280694 6.14784 0.0494592 6.1284 0.0754425 6.11782C4.21721 4.46038 8.35898 2.80148 12.5007 1.14111C16.6425 2.80075 20.7843 4.45965 24.926 6.11782C24.9516 6.129 24.9729 6.14828 24.9864 6.17271C24.9935 6.18482 24.998 6.19828 24.9996 6.21222ZM5.5878 5.37143H19.4115L12.4964 2.60317L5.5878 5.37143Z"
          fill="url(#paint1_linear_378_26551)"/>
    <path d="M24.9996 5.07001C25.0001 5.07695 25.0001 5.08392 24.9996 5.09086C24.9996 5.09745 24.9996 5.10513 24.9996 5.11172C24.9928 5.13891 24.9774 5.16318 24.9557 5.18087C24.9332 5.19782 24.9059 5.20705 24.8778 5.20721H0.12264C0.0945034 5.20705 0.0671707 5.19782 0.0447086 5.18087C0.022978 5.16318 0.00757276 5.13891 0.000803633 5.11172C0.00133273 5.10478 0.00133273 5.0978 0.000803633 5.09086C-0.000267878 5.08395 -0.000267878 5.07692 0.000803633 5.07001C0.00224559 5.0562 0.00715467 5.04299 0.0150735 5.03159C0.0273979 5.00622 0.0490149 4.98656 0.0754425 4.97671C4.21721 3.31927 8.35898 1.66037 12.5007 0C16.6425 1.65963 20.7843 3.31854 24.926 4.97671C24.9519 4.98752 24.9732 5.0069 24.9864 5.03159C24.9935 5.0433 24.998 5.0564 24.9996 5.07001ZM5.5878 4.22921H19.4115L12.4964 1.46206L5.5878 4.22921Z"
          fill="url(#paint2_linear_378_26551)"/>
    <defs>
        <linearGradient id="paint0_linear_378_26551" x1="12.4996" y1="6.83771" x2="12.4996" y2="2.50642"
                        gradientUnits="userSpaceOnUse">
            <stop stop-color="#E4CEA0"/>
            <stop offset="1" stop-opacity="0"/>
        </linearGradient>
        <linearGradient id="paint1_linear_378_26551" x1="12.4996" y1="5.93891" x2="12.4996" y2="1.60761"
                        gradientUnits="userSpaceOnUse">
            <stop stop-color="#E4CEA0"/>
            <stop offset="1" stop-opacity="0"/>
        </linearGradient>
        <linearGradient id="paint2_linear_378_26551" x1="12.4996" y1="4.79779" x2="12.4996" y2="0.466498"
                        gradientUnits="userSpaceOnUse">
            <stop stop-color="#E4CEA0"/>
            <stop offset="1" stop-opacity="0"/>
        </linearGradient>
    </defs>
</svg>
