<svg width="32" height="32" viewBox="0 0 32 32" fill="none" xmlns="http://www.w3.org/2000/svg">
<g filter="url(#filter0_d_1854_10461)">
<rect width="24" height="24" rx="12" fill="url(#paint0_linear_1854_10461)"/>
<rect x="0.5" y="0.5" width="23" height="23" rx="11.5" stroke="url(#paint1_linear_1854_10461)"/>
</g>
<path fill-rule="evenodd" clip-rule="evenodd" d="M8.6665 7.33301V9.08301L11.487 9.08301V10.0148C10.3664 10.0552 9.35419 10.1746 8.56791 10.3506C8.0819 10.4594 7.65603 10.5953 7.33985 10.7626C7.18251 10.8459 7.02768 10.9496 6.9062 11.0824C6.78273 11.2175 6.6665 11.4146 6.6665 11.6664C6.6665 11.9182 6.78273 12.1154 6.9062 12.2504C7.02768 12.3833 7.18251 12.487 7.33985 12.5702C7.65603 12.7375 8.0819 12.8735 8.56791 12.9822C9.2199 13.1281 10.0272 13.2352 10.9229 13.2905V16.6663H13.7434V13.2905C14.6391 13.2352 15.4464 13.1281 16.0984 12.9822C16.5844 12.8735 17.0103 12.7375 17.3265 12.5702C17.4838 12.487 17.6387 12.3833 17.7601 12.2504C17.8836 12.1154 17.9998 11.9182 17.9998 11.6664C17.9998 11.4146 17.8836 11.2175 17.7601 11.0824C17.6387 10.9496 17.4838 10.8459 17.3265 10.7626C17.0103 10.5953 16.5844 10.4594 16.0984 10.3506C15.3122 10.1746 14.2999 10.0552 13.1793 10.0148V9.08301L15.9998 9.08301V7.33301H8.6665ZM11.487 11.03V11.9997H13.1793V11.03C14.2421 11.0699 15.1835 11.1834 15.8949 11.3426C16.3448 11.4433 16.6769 11.5567 16.8852 11.6664C16.6769 11.7762 16.3448 11.8896 15.8949 11.9903C14.9997 12.1906 13.7402 12.3186 12.3332 12.3186C10.9261 12.3186 9.66661 12.1906 8.77146 11.9903C8.32153 11.8896 7.98944 11.7762 7.78113 11.6664C7.98944 11.5567 8.32153 11.4433 8.77146 11.3426C9.48282 11.1834 10.4243 11.0699 11.487 11.03Z" fill="url(#paint2_linear_1854_10461)"/>
<defs>
<filter id="filter0_d_1854_10461" x="0" y="0" width="32" height="32" filterUnits="userSpaceOnUse" color-interpolation-filters="sRGB">
<feFlood flood-opacity="0" result="BackgroundImageFix"/>
<feColorMatrix in="SourceAlpha" type="matrix" values="0 0 0 0 0 0 0 0 0 0 0 0 0 0 0 0 0 0 127 0" result="hardAlpha"/>
<feOffset dx="4" dy="4"/>
<feGaussianBlur stdDeviation="2"/>
<feComposite in2="hardAlpha" operator="out"/>
<feColorMatrix type="matrix" values="0 0 0 0 0.102083 0 0 0 0 0.125 0 0 0 0 0.11125 0 0 0 0.2 0"/>
<feBlend mode="normal" in2="BackgroundImageFix" result="effect1_dropShadow_1854_10461"/>
<feBlend mode="normal" in="SourceGraphic" in2="effect1_dropShadow_1854_10461" result="shape"/>
</filter>
<linearGradient id="paint0_linear_1854_10461" x1="0.422535" y1="12" x2="24" y2="12" gradientUnits="userSpaceOnUse">
<stop stop-color="#191D1E"/>
<stop offset="1" stop-color="#3A3E3A"/>
</linearGradient>
<linearGradient id="paint1_linear_1854_10461" x1="-0.97826" y1="11.6907" x2="24" y2="11.6907" gradientUnits="userSpaceOnUse">
<stop stop-color="#BE9D66"/>
<stop offset="1" stop-color="#E8D2A3"/>
</linearGradient>
<linearGradient id="paint2_linear_1854_10461" x1="6.6665" y1="12.0673" x2="17.9998" y2="12.0673" gradientUnits="userSpaceOnUse">
<stop stop-color="#AF8160"/>
<stop offset="1" stop-color="#D0B588"/>
</linearGradient>
</defs>
</svg>
