<svg width="24" height="24" viewBox="0 0 24 24" fill="none" xmlns="http://www.w3.org/2000/svg">
<path fill-rule="evenodd" clip-rule="evenodd" d="M13.4211 2.90909C13.4211 2.40701 12.9969 2 12.4737 2H4.89474C3.8483 2 3 2.81403 3 3.81818V20.1818C3 21.186 3.8483 22 4.89474 22H19.1053C20.1517 22 21 21.186 21 20.1818V10.1818C21 9.67974 20.5758 9.27273 20.0526 9.27273H15.3158C14.2694 9.27273 13.4211 8.4587 13.4211 7.45455V2.90909ZM5.84211 8.36364C5.84211 7.86156 6.26626 7.45455 6.78947 7.45455H10.5789C11.1022 7.45455 11.5263 7.86156 11.5263 8.36364C11.5263 8.86571 11.1022 9.27273 10.5789 9.27273H6.78947C6.26626 9.27273 5.84211 8.86571 5.84211 8.36364ZM5.84211 12.9091C5.84211 12.407 6.26626 12 6.78947 12H17.2105C17.7337 12 18.1579 12.407 18.1579 12.9091C18.1579 13.4112 17.7337 13.8182 17.2105 13.8182H6.78947C6.26626 13.8182 5.84211 13.4112 5.84211 12.9091ZM6.78947 16.5455C6.26626 16.5455 5.84211 16.9525 5.84211 17.4545C5.84211 17.9566 6.26626 18.3636 6.78947 18.3636H17.2105C17.7337 18.3636 18.1579 17.9566 18.1579 17.4545C18.1579 16.9525 17.7337 16.5455 17.2105 16.5455H6.78947ZM20.1177 7.90908H15.7895C15.2663 7.90908 14.8421 7.50207 14.8421 6.99999V2.84669C14.8421 2.19876 15.6585 1.87428 16.1359 2.33244L20.6536 6.66755C21.131 7.12571 20.7929 7.90908 20.1177 7.90908Z" fill="url(#paint0_linear_19_17140)"/>
<defs>
<linearGradient id="paint0_linear_19_17140" x1="2.2663" y1="11.7423" x2="21" y2="11.7423" gradientUnits="userSpaceOnUse">
<stop stop-color="#BE9D66"/>
<stop offset="1" stop-color="#E8D2A3"/>
</linearGradient>
</defs>
</svg>
